<svg xmlns="http://www.w3.org/2000/svg" width="1024" height="1024" fill="none" viewBox="0 0 1024 1024">
  <path fill="#fff" d="M256 251c0-34.667 6.917-67.25 20.75-97.75s32.5-57.083 56-79.75 50.667-40.583 81.5-53.75C445.083 6.583 477.667 0 512 0c35.333 0 68.583 6.667 99.75 20s58.333 31.583 81.5 54.75 41.417 50.333 54.75 81.5c13.333 31.167 20 64.417 20 99.75s-6.667 68.583-20 99.75-31.583 58.333-54.75 81.5-50.333 41.417-81.5 54.75c-31.167 13.333-64.417 20-99.75 20-36.333 0-70.083-6.833-101.25-20.5s-58.25-32.333-81.25-56-41-51.333-54-83S256 287 256 251Zm448 1c0-26-5.167-50.417-15.5-73.25S664.25 136 646.75 119s-37.917-30.417-61.25-40.25C562.167 68.917 537.667 64 512 64c-26.667 0-51.667 5-75 15s-43.667 23.667-61 41-31 37.667-41 61-15 48.333-15 75 5 51.667 15 75 23.667 43.667 41 61 37.667 31 61 41 48.333 15 75 15c27.333 0 52.75-5.083 76.25-15.25s43.833-24.167 61-42 30.583-38.667 40.25-62.5C699.167 304.417 704 279 704 252ZM64 704c0-17 3.333-33.25 10-48.75s15.667-29.083 27-40.75c11.333-11.667 24.583-21 39.75-28 15.167-7 31.417-10.5 48.75-10.5H832c17 0 33.25 3.333 48.75 10s29.083 15.667 40.75 27c11.667 11.333 21 24.583 28 39.75 7 15.167 10.5 31.417 10.5 48.75 0 41-6.333 77.5-19 109.5s-29.833 59.917-51.5 83.75-47.083 44-76.25 60.5-60.333 29.833-93.5 40c-33.167 10.17-67.5 17.5-103 22S546.333 1024 512 1024c-33 0-65.833-1.75-98.5-5.25A577.328 577.328 0 0 1 317 1000c-36-10.333-69.417-24.167-100.25-41.5s-57.583-38.25-80.25-62.75-40.417-52.667-53.25-84.5C70.417 779.417 64 743.667 64 704Zm832 0c0-8.667-1.667-16.917-5-24.75-3.333-7.833-7.917-14.667-13.75-20.5s-12.667-10.417-20.5-13.75-16.083-5-24.75-5H192c-9 0-17.333 1.667-25 5-7.667 3.333-14.417 7.917-20.25 13.75S136.333 671.333 133 679s-5 16-5 25c0 34.333 5.667 64.417 17 90.25s26.667 48.25 46 67.25 41.75 34.833 67.25 47.5c25.5 12.667 52.5 22.75 81 30.25s57.583 12.833 87.25 16S484.667 960 512 960s55.833-1.583 85.5-4.75 58.75-8.5 87.25-16 55.5-17.583 81-30.25c25.5-12.667 47.917-28.5 67.25-47.5s34.667-41.5 46-67.5c11.333-26 17-56 17-90Z"/>
</svg>
