<svg width="896" height="1024" viewBox="0 0 896 1024" fill="none" xmlns="http://www.w3.org/2000/svg">
<g clip-path="url(#clip0_12_72)">
<path d="M192 251C192 216.333 198.917 183.75 212.75 153.25C226.583 122.75 245.25 96.1667 268.75 73.5C292.25 50.8334 319.417 32.9167 350.25 19.75C381.083 6.58337 413.667 0 448 0C483.333 0 516.583 6.66669 547.75 20C578.917 33.3334 606.083 51.5834 629.25 74.75C652.417 97.9167 670.667 125.083 684 156.25C697.333 187.417 704 220.667 704 256C704 291.333 697.333 324.583 684 355.75C670.667 386.917 652.417 414.083 629.25 437.25C606.083 460.417 578.917 478.667 547.75 492C516.583 505.333 483.333 512 448 512C411.667 512 377.917 505.167 346.75 491.5C315.583 477.833 288.5 459.167 265.5 435.5C242.5 411.833 224.5 384.167 211.5 352.5C198.5 320.833 192 287 192 251ZM640 252C640 226 634.833 201.583 624.5 178.75C614.167 155.917 600.25 136 582.75 119C565.25 102 544.833 88.5834 521.5 78.75C498.167 68.9167 473.667 64.0001 448 64C421.333 64.0001 396.333 69.0001 373 79C349.667 89.0001 329.333 102.667 312 120C294.667 137.333 281 157.667 271 181C261 204.333 256 229.333 256 256C256 282.667 261 307.667 271 331C281 354.333 294.667 374.667 312 392C329.333 409.333 349.667 423 373 433C396.333 443 421.333 448 448 448C475.333 448 500.75 442.917 524.25 432.75C547.75 422.583 568.083 408.583 585.25 390.75C602.417 372.917 615.833 352.083 625.5 328.25C635.167 304.417 640 279 640 252ZM0 704C0 687 3.3333 670.75 10 655.25C16.6667 639.75 25.6667 626.167 37 614.5C48.333 602.833 61.583 593.5 76.75 586.5C91.917 579.5 108.167 576 125.5 576H768C785 576 801.25 579.333 816.75 586C832.25 592.667 845.833 601.667 857.5 613C869.167 624.333 878.5 637.583 885.5 652.75C892.5 667.917 896 684.167 896 701.5C896 742.5 889.667 779 877 811C864.333 843 847.167 870.917 825.5 894.75C803.833 918.583 778.417 938.75 749.25 955.25C720.083 971.75 688.917 985.083 655.75 995.25C622.583 1005.42 588.25 1012.75 552.75 1017.25C517.25 1021.75 482.333 1024 448 1024C415 1024 382.167 1022.25 349.5 1018.75C316.833 1015.25 284.667 1009 253 1000C217 989.667 183.583 975.833 152.75 958.5C121.917 941.167 95.167 920.25 72.5 895.75C49.833 871.25 32.0833 843.083 19.25 811.25C6.4167 779.417 0 743.667 0 704ZM832 704C832 695.333 830.333 687.083 827 679.25C823.667 671.417 819.083 664.583 813.25 658.75C807.417 652.917 800.583 648.333 792.75 645C784.917 641.667 776.667 640 768 640H128C119 640 110.667 641.667 103 645C95.333 648.333 88.583 652.917 82.75 658.75C76.917 664.583 72.333 671.333 69 679C65.667 686.667 64 695 64 704C64 738.333 69.667 768.417 81 794.25C92.333 820.083 107.667 842.5 127 861.5C146.333 880.5 168.75 896.333 194.25 909C219.75 921.667 246.75 931.75 275.25 939.25C303.75 946.75 332.833 952.083 362.5 955.25C392.167 958.417 420.667 960 448 960C475.333 960 503.833 958.417 533.5 955.25C563.167 952.083 592.25 946.75 620.75 939.25C649.25 931.75 676.25 921.667 701.75 909C727.25 896.333 749.667 880.5 769 861.5C788.333 842.5 803.667 820 815 794C826.333 768 832 738 832 704Z" fill="black" fill-opacity="0.8956"/>
</g>
<defs>
<clipPath id="clip0_12_72">
<rect width="896" height="1024" fill="white"/>
</clipPath>
</defs>
</svg>
