<svg xmlns="http://www.w3.org/2000/svg" width="1024" height="1024" fill="none" viewBox="0 0 1024 1024">
  <path fill="#fff" d="M960 256.5c0 11.333-1.75 22.417-5.25 33.25-3.5 10.833-8.417 20.833-14.75 30-6.333 9.167-13.917 17.25-22.75 24.25s-18.583 12.5-29.25 16.5l-184 70V584c0 1 2.333 8 7 21s10.583 29.25 17.75 48.75 15 40.833 23.5 64 16.667 45.333 24.5 66.5c7.833 21.167 14.667 39.917 20.5 56.25s9.75 27.333 11.75 33c2 6.333 3.667 12.667 5 19 1.333 6.333 2 12.833 2 19.5 0 15.667-2.917 30.25-8.75 43.75s-13.917 25.333-24.25 35.5c-10.333 10.17-22.333 18.17-36 24-13.667 5.83-28.167 8.75-43.5 8.75-11.667 0-22.917-1.75-33.75-5.25a113.93 113.93 0 0 1-30.25-15c-9.333-6.5-17.5-14.333-24.5-23.5S602.5 961 598.5 950L512 711.5 425 950c-4 11.333-9.5 21.5-16.5 30.5s-15.083 16.75-24.25 23.25-19.167 11.5-30 15c-10.833 3.5-22.25 5.25-34.25 5.25-15.333 0-29.833-2.92-43.5-8.75-13.667-5.83-25.583-13.83-35.75-24-10.167-10.167-18.167-22.083-24-35.75-5.833-13.667-8.75-28.167-8.75-43.5 0-6.667.667-13.167 2-19.5s3-12.667 5-19c1.333-4.333 3.917-11.667 7.75-22a7271.125 7271.125 0 0 0 13.5-36.75 10617.16 10617.16 0 0 1 17-46.25 16665.168 16665.168 0 0 0 18.5-50.25 29011.953 29011.953 0 0 1 18-49c5.833-15.833 11-29.917 15.5-42.25 4.5-12.333 8.083-22.333 10.75-30 2.667-7.667 4-11.833 4-12.5v-154l-184-70c-11-4-20.917-9.583-29.75-16.75-8.833-7.167-16.333-15.25-22.5-24.25-6.167-9-11-18.917-14.5-29.75C65.75 278.917 64 267.667 64 256c0-15.333 2.917-29.833 8.75-43.5 5.833-13.667 13.833-25.583 24-35.75 10.167-10.167 22-18.167 35.5-24 13.5-5.833 28.083-8.75 43.75-8.75 13.667 0 27 2.5 40 7.5L358.5 206c-2.333-8-4-16.167-5-24.5-1-8.333-1.5-16.667-1.5-25 0-21.667 4.333-42 13-61s20.333-35.583 35-49.75c14.667-14.167 31.667-25.333 51-33.5C470.333 4.083 490.667 0 512 0s41.667 4.083 61 12.25 36.333 19.333 51 33.5c14.667 14.167 26.333 30.75 35 49.75 8.667 19 13 39.333 13 61 0 8.333-.5 16.667-1.5 25-1 8.333-2.833 16.5-5.5 24.5l143-54.5c13-5 26.333-7.5 40-7.5 15.333 0 29.833 2.917 43.5 8.75 13.667 5.833 25.583 13.917 35.75 24.25 10.167 10.333 18.167 22.333 24 36 5.833 13.667 8.75 28.167 8.75 43.5ZM416 160c0 13 2.5 25.333 7.5 37 5 11.667 11.917 21.917 20.75 30.75 8.833 8.833 19.083 15.75 30.75 20.75 11.667 5 24 7.5 37 7.5s25.333-2.5 37-7.5c11.667-5 21.917-11.917 30.75-20.75 8.833-8.833 15.75-19.083 20.75-30.75 5-11.667 7.5-24 7.5-37s-2.5-25.333-7.5-37c-5-11.667-11.917-21.917-20.75-30.75-8.833-8.833-19.083-15.75-30.75-20.75-11.667-5-24-7.5-37-7.5s-25.333 2.5-37 7.5c-11.667 5-21.917 11.917-30.75 20.75-8.833 8.833-15.75 19.083-20.75 30.75-5 11.667-7.5 24-7.5 37Zm480 95.5c0-6.333-1.25-12.417-3.75-18.25s-6-10.917-10.5-15.25-9.667-7.75-15.5-10.25A45.863 45.863 0 0 0 848 208c-6 0-11.667 1-17 3L563 313c-8 3-16.333 5.333-25 7a137.36 137.36 0 0 1-26 2.5c-17 0-34.167-3.167-51.5-9.5L193 211c-5.667-2-11.333-3-17-3-13.667 0-25.083 4.583-34.25 13.75C132.583 230.917 128 242.333 128 256c0 10 2.75 19.083 8.25 27.25 5.5 8.167 13.083 14.083 22.75 17.75l204.5 77.5c6.333 2.333 11.333 6.25 15 11.75s5.5 11.583 5.5 18.25V590c0 4.333-.667 8-2 11L275 895.5c-2 5.667-3 11.167-3 16.5 0 13.333 4.667 24.667 14 34 9.333 9.333 20.667 14 34 14 10 0 19.083-2.833 27.25-8.5 8.167-5.667 14.083-13.333 17.75-23L452 690c4.667-13.333 12.25-23.75 22.75-31.25S497.667 647.5 512 647.5c14.333 0 26.75 3.75 37.25 11.25S567.333 676.667 572 690l87 238.5c3.667 9.667 9.5 17.333 17.5 23 8 5.667 17.167 8.5 27.5 8.5 13.333 0 24.667-4.667 34-14 9.333-9.333 14-20.667 14-34 0-5.333-1-10.833-3-16.5L642 601c-1.333-3-2-6.667-2-11V408.5c0-6.667 1.833-12.75 5.5-18.25s8.667-9.417 15-11.75L865 301c9.667-3.667 17.25-9.583 22.75-17.75S896 265.833 896 255.5Z"/>
</svg>
