<!-- Exported by Character Map UWP -->
<svg height="100%" viewBox="64 64 896 896" width="100%" xmlns="http://www.w3.org/2000/svg" xmlns:xlink="http://www.w3.org/1999/xlink">
  <path d="M960,320C960,332.333 957.5,344.583 952.5,356.75C947.5,368.917 940.667,379.333 932,388L807.5,512.5C819.833,513.5 831.417,516.667 842.25,522C853.083,527.333 862.5,534.25 870.5,542.75C878.5,551.25 884.75,561.167 889.25,572.5C893.75,583.833 896,595.667 896,608L896,864C896,877.333 893.5,889.833 888.5,901.5C883.5,913.167 876.667,923.333 868,932C859.333,940.667 849.167,947.5 837.5,952.5C825.833,957.5 813.333,960 800,960L160,960C146.667,960 134.167,957.5 122.5,952.5C110.833,947.5 100.667,940.667 92,932C83.3333,923.333 76.5,913.167 71.5,901.5C66.5,889.833 64,877.333 64,864L64,224C64,210.667 66.5,198.167 71.5,186.5C76.5,174.833 83.3333,164.667 92,156C100.667,147.333 110.833,140.5 122.5,135.5C134.167,130.5 146.667,128 160,128L416,128C428.333,128 440.167,130.25 451.5,134.75C462.833,139.25 472.75,145.5 481.25,153.5C489.75,161.5 496.667,170.917 502,181.75C507.333,192.583 510.5,204.167 511.5,216.5L636,92C644.667,83.3334 655,76.5001 667,71.5C679,66.5001 691.333,64.0001 704,64C716.667,64.0001 729,66.5001 741,71.5C753,76.5001 763.333,83.3334 772,92L932,252C940.667,260.667 947.5,271 952.5,283C957.5,295 960,307.333 960,320ZM896,320C896,311.333 892.833,303.833 886.5,297.5L726.5,137.5C720.167,131.167 712.667,128 704,128C695.333,128 687.833,131.167 681.5,137.5L521.5,297.5C515.167,303.833 512,311.333 512,320C512,328.667 515.167,336.167 521.5,342.5L681.5,502.5C687.833,508.833 695.333,512 704,512C712.667,512 720.167,508.833 726.5,502.5L886.5,342.5C892.833,336.167 896,328.667 896,320ZM448,512L448,224C448,215.333 444.833,207.833 438.5,201.5C432.167,195.167 424.667,192 416,192L160,192C151.333,192 143.833,195.167 137.5,201.5C131.167,207.833 128,215.333 128,224L128,512ZM600,512L512,424L512,512ZM448,896L448,576L128,576L128,864C128,872.667 131.167,880.167 137.5,886.5C143.833,892.833 151.333,896 160,896ZM832,608C832,599.333 828.833,591.833 822.5,585.5C816.167,579.167 808.667,576 800,576L512,576L512,896L800,896C808.667,896 816.167,892.833 822.5,886.5C828.833,880.167 832,872.667 832,864Z" fill="#000000" fill-opacity="1">
  </path>
</svg>