<svg xmlns="http://www.w3.org/2000/svg" width="1024" height="1024" fill="none" viewBox="0 0 1024 1024">
  <path fill="#fff" d="M959.5 320c0 12.333-2.5 24.583-7.5 36.75-5 12.167-11.833 22.583-20.5 31.25L807 512.5c12.333 1 23.917 4.167 34.75 9.5 10.833 5.333 20.25 12.25 28.25 20.75s14.25 18.417 18.75 29.75c4.5 11.333 6.75 23.167 6.75 35.5v256c0 13.333-2.5 25.833-7.5 37.5-5 11.667-11.833 21.833-20.5 30.5-8.667 8.667-18.833 15.5-30.5 20.5-11.667 5-24.167 7.5-37.5 7.5h-640c-13.333 0-25.833-2.5-37.5-7.5-11.667-5-21.833-11.833-30.5-20.5-8.667-8.667-15.5-18.833-20.5-30.5-5-11.667-7.5-24.167-7.5-37.5V224c0-13.333 2.5-25.833 7.5-37.5 5-11.667 11.833-21.833 20.5-30.5 8.667-8.667 18.833-15.5 30.5-20.5 11.667-5 24.167-7.5 37.5-7.5h256c12.333 0 24.167 2.25 35.5 6.75 11.333 4.5 21.25 10.75 29.75 18.75s15.417 17.417 20.75 28.25c5.333 10.833 8.5 22.417 9.5 34.75L635.5 92c8.667-8.667 19-15.5 31-20.5s24.333-7.5 37-7.5c12.667 0 25 2.5 37 7.5s22.333 11.833 31 20.5l160 160c8.667 8.667 15.5 19 20.5 31s7.5 24.333 7.5 37Zm-64 0c0-8.667-3.167-16.167-9.5-22.5l-160-160c-6.333-6.333-13.833-9.5-22.5-9.5s-16.167 3.167-22.5 9.5l-160 160c-6.333 6.333-9.5 13.833-9.5 22.5s3.167 16.167 9.5 22.5l160 160c6.333 6.333 13.833 9.5 22.5 9.5s16.167-3.167 22.5-9.5l160-160c6.333-6.333 9.5-13.833 9.5-22.5Zm-448 192V224c0-8.667-3.167-16.167-9.5-22.5-6.333-6.333-13.833-9.5-22.5-9.5h-256c-8.667 0-16.167 3.167-22.5 9.5-6.333 6.333-9.5 13.833-9.5 22.5v288h320Zm152 0-88-88v88h88Zm-152 384V576h-320v288c0 8.667 3.167 16.167 9.5 22.5 6.333 6.333 13.833 9.5 22.5 9.5h288Zm384-288c0-8.667-3.167-16.167-9.5-22.5-6.333-6.333-13.833-9.5-22.5-9.5h-288v320h288c8.667 0 16.167-3.167 22.5-9.5 6.333-6.333 9.5-13.833 9.5-22.5V608Z"/>
</svg>
