<svg width="1024" height="1024" viewBox="0 0 1024 1024" fill="none" xmlns="http://www.w3.org/2000/svg">
<mask id="mask0_3_13" style="mask-type:luminance" maskUnits="userSpaceOnUse" x="63" y="64" width="897" height="896">
<path d="M959.5 64H63.5V960H959.5V64Z" fill="white"/>
</mask>
<g mask="url(#mask0_3_13)">
<path d="M959.5 320C959.5 332.333 957 344.583 952 356.75C947 368.917 940.167 379.333 931.5 388L807 512.5C819.333 513.5 830.917 516.667 841.75 522C852.583 527.333 862 534.25 870 542.75C878 551.25 884.25 561.167 888.75 572.5C893.25 583.833 895.5 595.667 895.5 608V864C895.5 877.333 893 889.833 888 901.5C883 913.167 876.167 923.333 867.5 932C858.833 940.667 848.667 947.5 837 952.5C825.333 957.5 812.833 960 799.5 960H159.5C146.167 960 133.667 957.5 122 952.5C110.333 947.5 100.167 940.667 91.5 932C82.8333 923.333 76 913.167 71 901.5C66 889.833 63.5 877.333 63.5 864V224C63.5 210.667 66 198.167 71 186.5C76 174.833 82.8333 164.667 91.5 156C100.167 147.333 110.333 140.5 122 135.5C133.667 130.5 146.167 128 159.5 128H415.5C427.833 128 439.667 130.25 451 134.75C462.333 139.25 472.25 145.5 480.75 153.5C489.25 161.5 496.167 170.917 501.5 181.75C506.833 192.583 510 204.167 511 216.5L635.5 92C644.167 83.3334 654.5 76.5001 666.5 71.5C678.5 66.5001 690.833 64.0001 703.5 64C716.167 64.0001 728.5 66.5001 740.5 71.5C752.5 76.5001 762.833 83.3334 771.5 92L931.5 252C940.167 260.667 947 271 952 283C957 295 959.5 307.333 959.5 320ZM895.5 320C895.5 311.333 892.333 303.833 886 297.5L726 137.5C719.667 131.167 712.167 128 703.5 128C694.833 128 687.333 131.167 681 137.5L521 297.5C514.667 303.833 511.5 311.333 511.5 320C511.5 328.667 514.667 336.167 521 342.5L681 502.5C687.333 508.833 694.833 512 703.5 512C712.167 512 719.667 508.833 726 502.5L886 342.5C892.333 336.167 895.5 328.667 895.5 320ZM447.5 512V224C447.5 215.333 444.333 207.833 438 201.5C431.667 195.167 424.167 192 415.5 192H159.5C150.833 192 143.333 195.167 137 201.5C130.667 207.833 127.5 215.333 127.5 224V512H447.5ZM599.5 512L511.5 424V512H599.5ZM447.5 896V576H127.5V864C127.5 872.667 130.667 880.167 137 886.5C143.333 892.833 150.833 896 159.5 896H447.5ZM831.5 608C831.5 599.333 828.333 591.833 822 585.5C815.667 579.167 808.167 576 799.5 576H511.5V896H799.5C808.167 896 815.667 892.833 822 886.5C828.333 880.167 831.5 872.667 831.5 864V608Z" fill="black" fill-opacity="0.8956"/>
</g>
</svg>
