<svg xmlns="http://www.w3.org/2000/svg" width="1025" height="1025" fill="none" viewBox="0 0 1025 1025">
  <g clip-path="url(#a)">
    <path fill="#000" fill-opacity=".896" d="m480.5 583-203 177.5c-5.667 5.333-12.667 8-21 8-9 0-16.583-3.167-22.75-9.5-6.167-6.333-9.25-14-9.25-23 0-9.333 3.667-17.167 11-23.5l228.5-200-228.5-200c-7.333-6.333-11-14.333-11-24 0-9 3.083-16.583 9.25-22.75 6.167-6.167 13.75-9.25 22.75-9.25 8.333 0 15.333 2.667 21 8l203 177.5V32.5c0-8.667 3.25-16.167 9.75-22.5C496.75 3.667 504.333.5 513 .5c8.333 0 15.667 3.167 22 9.5l256 256c6.333 6.333 9.5 13.667 9.5 22 0 10-3.667 18.167-11 24.5L561 512.5l228.5 200c4 3.667 6.833 7.333 8.5 11 1.667 3.667 2.5 8.167 2.5 13.5 0 8.333-3.167 15.667-9.5 22l-256 256c-6.333 6.33-13.833 9.5-22.5 9.5s-16.167-3.17-22.5-9.5c-6.333-6.33-9.5-13.83-9.5-22.5V583Zm64-473.5V442l177-155-177-177.5Zm0 473.5v332l177-177-177-155Z"/>
  </g>
  <defs>
    <clipPath id="a">
      <path fill="#fff" d="M.5.5h1024v1024H.5z"/>
    </clipPath>
  </defs>
</svg>
