<!-- Exported by Character Map UWP -->
<svg height="100%" viewBox="192 0 576 1024" width="100%" xmlns="http://www.w3.org/2000/svg" xmlns:xlink="http://www.w3.org/1999/xlink">
  <path d="M448,582.5L245,760C239.333,765.333 232.333,768 224,768C215,768 207.417,764.833 201.25,758.5C195.083,752.167 192,744.5 192,735.5C192,726.167 195.667,718.333 203,712L431.5,512L203,312C195.667,305.667 192,297.667 192,288C192,279 195.083,271.417 201.25,265.25C207.417,259.083 215,256 224,256C232.333,256 239.333,258.667 245,264L448,441.5L448,32C448,23.3334 451.25,15.8334 457.75,9.5C464.25,3.16669 471.833,0 480.5,0C488.833,0 496.167,3.16669 502.5,9.5L758.5,265.5C764.833,271.833 768,279.167 768,287.5C768,297.5 764.333,305.667 757,312L528.5,512L757,712C761,715.667 763.833,719.333 765.5,723C767.167,726.667 768,731.167 768,736.5C768,744.833 764.833,752.167 758.5,758.5L502.5,1014.5C496.167,1020.83 488.667,1024 480,1024C471.333,1024 463.833,1020.83 457.5,1014.5C451.167,1008.17 448,1000.67 448,992ZM512,109L512,441.5L689,286.5ZM512,582.5L512,914.5L689,737.5Z" fill="#FFFFFF" fill-opacity="1">
  </path>
</svg>