<svg width="576" height="1024" viewBox="0 0 576 1024" fill="none" xmlns="http://www.w3.org/2000/svg">
<g clip-path="url(#clip0_12_60)">
<path d="M256 582.5L53 760C47.333 765.333 40.333 768 32 768C23 768 15.417 764.833 9.25 758.5C3.083 752.167 0 744.5 0 735.5C0 726.167 3.667 718.333 11 712L239.5 512L11 312C3.667 305.667 0 297.667 0 288C0 279 3.083 271.417 9.25 265.25C15.417 259.083 23 256 32 256C40.333 256 47.333 258.667 53 264L256 441.5V32C256 23.3334 259.25 15.8334 265.75 9.5C272.25 3.16669 279.833 0 288.5 0C296.833 0 304.167 3.16669 310.5 9.5L566.5 265.5C572.833 271.833 576 279.167 576 287.5C576 297.5 572.333 305.667 565 312L336.5 512L565 712C569 715.667 571.833 719.333 573.5 723C575.167 726.667 576 731.167 576 736.5C576 744.833 572.833 752.167 566.5 758.5L310.5 1014.5C304.167 1020.83 296.667 1024 288 1024C279.333 1024 271.833 1020.83 265.5 1014.5C259.167 1008.17 256 1000.67 256 992V582.5ZM320 109V441.5L497 286.5L320 109ZM320 582.5V914.5L497 737.5L320 582.5Z" fill="black" fill-opacity="0.8956"/>
</g>
<defs>
<clipPath id="clip0_12_60">
<rect width="576" height="1024" fill="white"/>
</clipPath>
</defs>
</svg>
