<!-- Exported by Character Map UWP -->
<svg height="100%" viewBox="0 128 1024 704" width="100%" xmlns="http://www.w3.org/2000/svg" xmlns:xlink="http://www.w3.org/1999/xlink">
  <path d="M206,832C178,832 151.5,826.167 126.5,814.5C101.5,802.833 79.5833,787.25 60.75,767.75C41.9167,748.25 27.0833,725.75 16.25,700.25C5.41667,674.75 0,648.167 0,620.5C0,592.167 4.83333,565 14.5,539C24.1667,513 37.75,489.917 55.25,469.75C72.75,449.583 93.6667,433.25 118,420.75C142.333,408.25 169.167,401.333 198.5,400L214.5,399.5C218.167,358.5 228,321.333 244,288C260,254.667 281,226.083 307,202.25C333,178.417 363.417,160.083 398.25,147.25C433.083,134.417 471,128 512,128C553,128 590.917,134.5 625.75,147.5C660.583,160.5 691,178.833 717,202.5C743,226.167 764,254.667 780,288C796,321.333 805.833,358.5 809.5,399.5L817.5,399.5C846.5,399.5 873.583,405.417 898.75,417.25C923.917,429.083 945.75,445 964.25,465C982.75,485 997.333,508.083 1008,534.25C1018.67,560.417 1024,587.667 1024,616C1024,644.333 1018.67,671.5 1008,697.5C997.333,723.5 982.75,746.5 964.25,766.5C945.75,786.5 924,802.417 899,814.25C874,826.083 847,832 818,832ZM817,768C837.333,768 856.25,763.75 873.75,755.25C891.25,746.75 906.333,735.5 919,721.5C931.667,707.5 941.667,691.333 949,673C956.333,654.667 960,635.667 960,616C960,594.667 956.167,574.75 948.5,556.25C940.833,537.75 930.25,521.583 916.75,507.75C903.25,493.917 887.333,483.083 869,475.25C850.667,467.417 830.833,463.5 809.5,463.5C792.167,463.5 777.833,458.083 766.5,447.25C755.167,436.417 748.167,422.667 745.5,406C743.833,394 741.917,382.333 739.75,371C737.583,359.667 734.333,348.167 730,336.5C721.333,312.5 709.75,291.5 695.25,273.5C680.75,255.5 664.083,240.417 645.25,228.25C626.417,216.083 605.75,207 583.25,201C560.75,195 537,192 512,192C487,192 463.25,195 440.75,201C418.25,207 397.583,216 378.75,228C359.917,240 343.25,255 328.75,273C314.25,291 302.667,312 294,336C289.667,347.667 286.417,359.167 284.25,370.5C282.083,381.833 280.167,393.667 278.5,406C275.833,425.667 268.083,440.167 255.25,449.5C242.417,458.833 226.5,463.5 207.5,463.5C187.167,463.5 168.25,467.75 150.75,476.25C133.25,484.75 118.083,496.083 105.25,510.25C92.4167,524.417 82.3333,540.667 75,559C67.6667,577.333 64,596.333 64,616C64,635.667 67.6667,654.667 75,673C82.3333,691.333 92.3333,707.5 105,721.5C117.667,735.5 132.75,746.75 150.25,755.25C167.75,763.75 186.667,768 207,768Z" fill="#000000" fill-opacity="1">
  </path>
</svg>