<svg xmlns="http://www.w3.org/2000/svg" width="1025" height="1025" fill="none" viewBox="0 0 1025 1025">
  <g clip-path="url(#a)">
    <path fill="#000" fill-opacity=".896" d="M206 864.5c-28 0-54.5-5.833-79.5-17.5s-46.917-27.25-65.75-46.75-33.667-42-44.5-67.5C5.417 707.25 0 680.667 0 653c0-28.333 4.833-55.5 14.5-81.5s23.25-49.083 40.75-69.25 38.417-36.5 62.75-49 51.167-19.417 80.5-20.75l16-.5c3.667-41 13.5-78.167 29.5-111.5s37-61.917 63-85.75 56.417-42.167 91.25-55C433.083 166.917 471 160.5 512 160.5s78.917 6.5 113.75 19.5S691 211.333 717 235s47 52.167 63 85.5S805.833 391 809.5 432h8c29 0 56.083 5.917 81.25 17.75s47 27.75 65.5 47.75 33.083 43.083 43.75 69.25c10.67 26.167 16 53.417 16 81.75s-5.33 55.5-16 81.5c-10.667 26-25.25 49-43.75 69S924 834.917 899 846.75c-25 11.833-52 17.75-81 17.75H206Zm611-64c20.333 0 39.25-4.25 56.75-12.75S906.333 768 919 754c12.667-14 22.667-30.167 30-48.5 7.333-18.333 11-37.333 11-57 0-21.333-3.833-41.25-11.5-59.75s-18.25-34.667-31.75-48.5c-13.5-13.833-29.417-24.667-47.75-32.5-18.333-7.833-38.167-11.75-59.5-11.75-17.333 0-31.667-5.417-43-16.25-11.333-10.833-18.333-24.583-21-41.25a697.172 697.172 0 0 0-5.75-35c-2.167-11.333-5.417-22.833-9.75-34.5-8.667-24-20.25-45-34.75-63s-31.167-33.083-50-45.25c-18.833-12.167-39.5-21.25-62-27.25s-46.25-9-71.25-9-48.75 3-71.25 9-43.167 15-62 27-35.5 27-50 45-26.083 39-34.75 63c-4.333 11.667-7.583 23.167-9.75 34.5-2.167 11.333-4.083 23.167-5.75 35.5-2.667 19.667-10.417 34.167-23.25 43.5-12.833 9.333-28.75 14-47.75 14-20.333 0-39.25 4.25-56.75 12.75s-32.667 19.833-45.5 34C92.417 556.917 82.333 573.167 75 591.5c-7.333 18.333-11 37.333-11 57s3.667 38.667 11 57S92.333 740 105 754c12.667 14 27.75 25.25 45.25 33.75S186.667 800.5 207 800.5h610Z"/>
  </g>
  <defs>
    <clipPath id="a">
      <path fill="#fff" d="M.5.5h1024v1024H.5z"/>
    </clipPath>
  </defs>
</svg>
