<svg width="1024" height="704" viewBox="0 0 1024 704" fill="none" xmlns="http://www.w3.org/2000/svg">
<g clip-path="url(#clip0_12_82)">
<path d="M206 704C178 704 151.5 698.167 126.5 686.5C101.5 674.833 79.5833 659.25 60.75 639.75C41.9167 620.25 27.0833 597.75 16.25 572.25C5.41667 546.75 0 520.167 0 492.5C0 464.167 4.83333 437 14.5 411C24.1667 385 37.75 361.917 55.25 341.75C72.75 321.583 93.6667 305.25 118 292.75C142.333 280.25 169.167 273.333 198.5 272L214.5 271.5C218.167 230.5 228 193.333 244 160C260 126.667 281 98.083 307 74.25C333 50.417 363.417 32.083 398.25 19.25C433.083 6.417 471 0 512 0C553 0 590.917 6.5 625.75 19.5C660.583 32.5 691 50.833 717 74.5C743 98.167 764 126.667 780 160C796 193.333 805.833 230.5 809.5 271.5H817.5C846.5 271.5 873.583 277.417 898.75 289.25C923.917 301.083 945.75 317 964.25 337C982.75 357 997.333 380.083 1008 406.25C1018.67 432.417 1024 459.667 1024 488C1024 516.333 1018.67 543.5 1008 569.5C997.333 595.5 982.75 618.5 964.25 638.5C945.75 658.5 924 674.417 899 686.25C874 698.083 847 704 818 704H206ZM817 640C837.333 640 856.25 635.75 873.75 627.25C891.25 618.75 906.333 607.5 919 593.5C931.667 579.5 941.667 563.333 949 545C956.333 526.667 960 507.667 960 488C960 466.667 956.167 446.75 948.5 428.25C940.833 409.75 930.25 393.583 916.75 379.75C903.25 365.917 887.333 355.083 869 347.25C850.667 339.417 830.833 335.5 809.5 335.5C792.167 335.5 777.833 330.083 766.5 319.25C755.167 308.417 748.167 294.667 745.5 278C743.833 266 741.917 254.333 739.75 243C737.583 231.667 734.333 220.167 730 208.5C721.333 184.5 709.75 163.5 695.25 145.5C680.75 127.5 664.083 112.417 645.25 100.25C626.417 88.083 605.75 79 583.25 73C560.75 67 537 64 512 64C487 64 463.25 67 440.75 73C418.25 79 397.583 88 378.75 100C359.917 112 343.25 127 328.75 145C314.25 163 302.667 184 294 208C289.667 219.667 286.417 231.167 284.25 242.5C282.083 253.833 280.167 265.667 278.5 278C275.833 297.667 268.083 312.167 255.25 321.5C242.417 330.833 226.5 335.5 207.5 335.5C187.167 335.5 168.25 339.75 150.75 348.25C133.25 356.75 118.083 368.083 105.25 382.25C92.4167 396.417 82.3333 412.667 75 431C67.6667 449.333 64 468.333 64 488C64 507.667 67.6667 526.667 75 545C82.3333 563.333 92.3333 579.5 105 593.5C117.667 607.5 132.75 618.75 150.25 627.25C167.75 635.75 186.667 640 207 640H817Z" fill="black" fill-opacity="0.8956"/>
</g>
<defs>
<clipPath id="clip0_12_82">
<rect width="1024" height="704" fill="white"/>
</clipPath>
</defs>
</svg>
