<svg xmlns="http://www.w3.org/2000/svg" width="1024" height="1024" fill="none" viewBox="0 0 1024 1024">
  <g clip-path="url(#a)">
    <path fill="#fff" d="M205.5 864c-28 0-54.5-5.833-79.5-17.5s-46.917-27.25-65.75-46.75-33.667-42-44.5-67.5C4.917 706.75-.5 680.167-.5 652.5-.5 624.167 4.333 597 14 571s23.25-49.083 40.75-69.25 38.417-36.5 62.75-49S168.667 433.333 198 432l16-.5c3.667-41 13.5-78.167 29.5-111.5s37-61.917 63-85.75 56.417-42.167 91.25-55C432.583 166.417 470.5 160 511.5 160s78.917 6.5 113.75 19.5 65.25 31.333 91.25 55 47 52.167 63 85.5 25.833 70.5 29.5 111.5h8c29 0 56.083 5.917 81.25 17.75s47 27.75 65.5 47.75 33.083 43.083 43.75 69.25c10.67 26.167 16 53.417 16 81.75s-5.33 55.5-16 81.5c-10.667 26-25.25 49-43.75 69s-40.25 35.917-65.25 47.75c-25 11.833-52 17.75-81 17.75h-612Zm611-64c20.333 0 39.25-4.25 56.75-12.75s32.583-19.75 45.25-33.75c12.667-14 22.667-30.167 30-48.5 7.333-18.333 11-37.333 11-57 0-21.333-3.833-41.25-11.5-59.75s-18.25-34.667-31.75-48.5c-13.5-13.833-29.417-24.667-47.75-32.5-18.333-7.833-38.167-11.75-59.5-11.75-17.333 0-31.667-5.417-43-16.25-11.333-10.833-18.333-24.583-21-41.25a697.172 697.172 0 0 0-5.75-35c-2.167-11.333-5.417-22.833-9.75-34.5-8.667-24-20.25-45-34.75-63s-31.167-33.083-50-45.25c-18.833-12.167-39.5-21.25-62-27.25s-46.25-9-71.25-9-48.75 3-71.25 9-43.167 15-62 27-35.5 27-50 45-26.083 39-34.75 63c-4.333 11.667-7.583 23.167-9.75 34.5-2.167 11.333-4.083 23.167-5.75 35.5-2.667 19.667-10.417 34.167-23.25 43.5-12.833 9.333-28.75 14-47.75 14-20.333 0-39.25 4.25-56.75 12.75s-32.667 19.833-45.5 34C91.917 556.417 81.833 572.667 74.5 591c-7.333 18.333-11 37.333-11 57s3.667 38.667 11 57 17.333 34.5 30 48.5c12.667 14 27.75 25.25 45.25 33.75S186.167 800 206.5 800h610Z"/>
  </g>
  <defs>
    <clipPath id="a">
      <path fill="#fff" d="M0 0h1024v1024H0z"/>
    </clipPath>
  </defs>
</svg>
