<svg xmlns="http://www.w3.org/2000/svg" width="1025" height="1025" fill="none" viewBox="0 0 1025 1025">
  <g clip-path="url(#a)">
    <path fill="#000" fill-opacity=".896" d="M324.5 603.733c-15 0-28.667 2.991-41 8.973a406.242 406.242 0 0 0-36.25 19.942 372.456 372.456 0 0 1-36.75 19.943c-12.667 5.982-26.667 8.972-42 8.972-20.667 0-40.333-4.985-59-14.956S74 625.17 59 612.208c-20.333-17.615-35.167-37.806-44.5-60.573-9.333-22.766-14-47.444-14-74.033s3.667-53.094 11-79.517c7.333-26.422 16.333-51.599 27-75.529 11.667-25.924 25.167-51.017 40.5-75.279 15.333-24.262 32-47.361 50-69.297a671.307 671.307 0 0 1 52-56.584c18.333-17.781 38.5-33.651 60.5-47.61 37.667-23.93 77.75-42.21 120.25-54.84C404.25 6.316 447.833.003 492.5.003c42.333 0 84 5.484 125 16.452 41 10.968 80.167 26.422 117.5 46.364 45.667 24.927 86.417 54.008 122.25 87.244 35.833 33.235 66.167 70.127 91 110.676 24.833 40.548 43.75 84.336 56.75 131.365 13 47.029 19.5 96.634 19.5 148.814 0 31.906-2.42 63.564-7.25 94.972-4.83 31.408-11.92 62.401-21.25 92.978-7.333 23.598-16.583 47.279-27.75 71.042-11.167 23.763-24.25 46.53-39.25 68.299a490.323 490.323 0 0 1-50 61.321c-18.333 19.111-38.25 35.645-59.75 49.604-21.5 13.959-44.5 24.927-69 32.907C725.75 1020.01 700 1024 673 1024c-15 0-29.75-1.32-44.25-3.99-14.5-2.66-28.75-6.48-42.75-11.46-29.333-10.303-54.5-23.103-75.5-38.391-21-15.288-38.417-33.07-52.25-53.343-13.833-20.274-24.333-43.041-31.5-68.3-7.167-25.259-11.75-53.012-13.75-83.256a1208.15 1208.15 0 0 1-2.75-54.84c-.5-18.279-2.917-36.393-7.25-54.341a650.465 650.465 0 0 0-4.5-15.953c-1.667-5.65-4.333-10.303-8-13.959-3.667-3.988-8.167-7.478-13.5-10.469a76.149 76.149 0 0 0-17-6.979c-6-1.662-12.083-2.909-18.25-3.74-6.167-.83-11.917-1.246-17.25-1.246ZM673 960.188c25 0 48.833-4.736 71.5-14.208 22.667-9.472 43.667-22.017 63-37.639 26.333-21.27 49.167-46.365 68.5-75.28s35.333-59.742 48-92.479c12.667-32.737 22-66.472 28-101.204 6-34.731 9-68.548 9-101.451 0-46.198-5.75-89.905-17.25-131.117-11.5-41.213-28.25-79.517-50.25-114.914-22-35.396-48.833-67.552-80.5-96.467-31.667-28.915-67.667-54.341-108-76.277-32.333-17.615-66.5-31.407-102.5-41.378-36-9.97-72.667-14.956-110-14.956-46 0-89.083 7.312-129.25 21.936-40.167 14.624-76.917 34.814-110.25 60.572-33.333 25.757-63.167 56.003-89.5 90.734-26.333 34.731-48.5 72.205-66.5 112.421a436.421 436.421 0 0 0-23.25 62.816c-6.167 21.603-9.25 43.704-9.25 66.305 0 17.283 2.667 32.987 8 47.112 5.333 14.126 14.5 27.005 27.5 38.638 3.667 3.323 8.25 6.979 13.75 10.967 5.5 3.988 11.25 7.727 17.25 11.217s12 6.481 18 8.974c6 2.492 11.5 3.74 16.5 3.74 9.333 0 19.333-3.075 30-9.224 10.667-6.149 22.417-12.796 35.25-19.942 12.833-7.146 26.917-13.792 42.25-19.941 15.333-6.149 32.5-9.223 51.5-9.223 10.333 0 20.667.914 31 2.742 10.333 1.827 20.333 4.238 30 7.229 21.667 6.98 38.333 16.95 50 29.912 11.667 12.962 20.25 27.835 25.75 44.619s8.917 35.064 10.25 54.839a5656.343 5656.343 0 0 1 3.75 60.573 647.913 647.913 0 0 0 6.5 61.82c3.167 20.607 9.25 40.132 18.25 58.578 9 18.446 22 35.313 39 50.601 17 15.288 39.833 27.918 68.5 37.889 21.333 7.645 43.167 11.466 65.5 11.466ZM448.5 238.802c0-13.294 4.667-24.595 14-33.901 9.333-9.306 20.667-13.959 34-13.959 13.333 0 24.667 4.653 34 13.959 9.333 9.306 14 20.607 14 33.901 0 13.294-4.667 24.595-14 33.901-9.333 9.305-20.667 13.959-34 13.959-13.333 0-24.667-4.654-34-13.959-9.333-9.306-14-20.607-14-33.901Zm192 63.813c0-13.294 4.667-24.595 14-33.901 9.333-9.306 20.667-13.959 34-13.959 13.333 0 24.667 4.653 34 13.959 9.333 9.306 14 20.607 14 33.901 0 13.294-4.667 24.595-14 33.901-9.333 9.305-20.667 13.959-34 13.959-13.333 0-24.667-4.654-34-13.959-9.333-9.306-14-20.607-14-33.901Zm112 143.579c0-13.294 4.667-24.595 14-33.9 9.333-9.306 20.667-13.959 34-13.959 13.333 0 24.667 4.653 34 13.959 9.333 9.305 14 20.606 14 33.9 0 13.294-4.667 24.595-14 33.901-9.333 9.306-20.667 13.959-34 13.959-13.333 0-24.667-4.653-34-13.959-9.333-9.306-14-20.607-14-33.901Zm0 191.439c0-13.294 4.667-24.595 14-33.9 9.333-9.306 20.667-13.959 34-13.959 13.333 0 24.667 4.653 34 13.959 9.333 9.305 14 20.606 14 33.9 0 13.294-4.667 24.595-14 33.901-9.333 9.306-20.667 13.959-34 13.959-13.333 0-24.667-4.653-34-13.959-9.333-9.306-14-20.607-14-33.901Zm-128 127.627c0-13.295 4.667-24.595 14-33.901 9.333-9.306 20.667-13.958 34-13.958 13.333 0 24.667 4.652 34 13.958 9.333 9.306 14 20.606 14 33.901 0 13.294-4.667 24.594-14 33.9-9.333 9.306-20.667 13.96-34 13.96-13.333 0-24.667-4.654-34-13.96-9.333-9.306-14-20.606-14-33.9Z"/>
  </g>
  <defs>
    <clipPath id="a">
      <path fill="#fff" d="M.5.5h1024v1024H.5z"/>
    </clipPath>
  </defs>
</svg>
