<svg width="1024" height="1027" viewBox="0 0 1024 1027" fill="none" xmlns="http://www.w3.org/2000/svg">
<g clip-path="url(#clip0_12_74)">
<path d="M324 605C309 605 295.333 608 283 614C270.667 620 258.583 626.667 246.75 634C234.917 641.333 222.667 648 210 654C197.333 660 183.333 663 168 663C147.333 663 127.667 658 109 648C90.3333 638 73.5 626.5 58.5 613.5C38.1667 595.833 23.3333 575.583 14 552.75C4.66667 529.917 0 505.167 0 478.5C0 451.833 3.66667 425.25 11 398.75C18.3333 372.25 27.3333 347 38 323C49.6667 297 63.1667 271.833 78.5 247.5C93.8333 223.167 110.5 200 128.5 178C144.833 158 162.167 139.083 180.5 121.25C198.833 103.417 219 87.5001 241 73.5C278.667 49.5001 318.75 31.1667 361.25 18.5C403.75 5.83337 447.333 -0.5 492 -0.5C534.333 -0.5 576 5 617 16C658 27 697.167 42.5 734.5 62.5C780.167 87.5 820.917 116.667 856.75 150C892.583 183.333 922.917 220.333 947.75 261C972.583 301.667 991.5 345.583 1004.5 392.75C1017.5 439.917 1024 489.667 1024 542C1024 574 1021.58 605.75 1016.75 637.25C1011.92 668.75 1004.83 699.833 995.5 730.5C988.167 754.167 978.917 777.917 967.75 801.75C956.583 825.583 943.5 848.417 928.5 870.25C913.5 892.083 896.833 912.583 878.5 931.75C860.167 950.917 840.25 967.5 818.75 981.5C797.25 995.5 774.25 1006.5 749.75 1014.5C725.25 1022.5 699.5 1026.5 672.5 1026.5C657.5 1026.5 642.75 1025.17 628.25 1022.5C613.75 1019.83 599.5 1016 585.5 1011C556.167 1000.67 531 987.833 510 972.5C489 957.167 471.583 939.333 457.75 919C443.917 898.667 433.417 875.833 426.25 850.5C419.083 825.167 414.5 797.333 412.5 767C411.167 748.667 410.25 730.333 409.75 712C409.25 693.667 406.833 675.5 402.5 657.5C401.167 652.5 399.667 647.167 398 641.5C396.333 635.833 393.667 631.167 390 627.5C386.333 623.5 381.833 620 376.5 617C371.167 614 365.5 611.667 359.5 610C353.5 608.333 347.417 607.083 341.25 606.25C335.083 605.417 329.333 605 324 605ZM672.5 962.5C697.5 962.5 721.333 957.75 744 948.25C766.667 938.75 787.667 926.167 807 910.5C833.333 889.167 856.167 864 875.5 835C894.833 806 910.833 775.083 923.5 742.25C936.167 709.417 945.5 675.583 951.5 640.75C957.5 605.917 960.5 572 960.5 539C960.5 492.667 954.75 448.833 943.25 407.5C931.75 366.167 915 327.75 893 292.25C871 256.75 844.167 224.5 812.5 195.5C780.833 166.5 744.833 141 704.5 119C672.167 101.333 638 87.5 602 77.5C566 67.5 529.333 62.5 492 62.5C446 62.5 402.917 69.8334 362.75 84.5C322.583 99.167 285.833 119.417 252.5 145.25C219.167 171.083 189.333 201.417 163 236.25C136.667 271.083 114.5 308.667 96.5 349C87.1667 369.333 79.4167 390.333 73.25 412C67.0833 433.667 64 455.833 64 478.5C64 495.833 66.6667 511.583 72 525.75C77.3333 539.917 86.5 552.833 99.5 564.5C103.167 567.833 107.75 571.5 113.25 575.5C118.75 579.5 124.5 583.25 130.5 586.75C136.5 590.25 142.5 593.25 148.5 595.75C154.5 598.25 160 599.5 165 599.5C174.333 599.5 184.333 596.417 195 590.25C205.667 584.083 217.417 577.417 230.25 570.25C243.083 563.083 257.167 556.417 272.5 550.25C287.833 544.083 305 541 324 541C334.333 541 344.667 541.917 355 543.75C365.333 545.583 375.333 548 385 551C406.667 558 423.333 568 435 581C446.667 594 455.25 608.917 460.75 625.75C466.25 642.583 469.667 660.917 471 680.75C472.333 700.583 473.583 720.833 474.75 741.5C475.917 762.167 478.083 782.833 481.25 803.5C484.417 824.167 490.5 843.75 499.5 862.25C508.5 880.75 521.5 897.667 538.5 913C555.5 928.333 578.333 941 607 951C628.333 958.667 650.167 962.5 672.5 962.5ZM448 239C448 225.667 452.667 214.333 462 205C471.333 195.667 482.667 191 496 191C509.333 191 520.667 195.667 530 205C539.333 214.333 544 225.667 544 239C544 252.333 539.333 263.667 530 273C520.667 282.333 509.333 287 496 287C482.667 287 471.333 282.333 462 273C452.667 263.667 448 252.333 448 239ZM640 303C640 289.667 644.667 278.333 654 269C663.333 259.667 674.667 255 688 255C701.333 255 712.667 259.667 722 269C731.333 278.333 736 289.667 736 303C736 316.333 731.333 327.667 722 337C712.667 346.333 701.333 351 688 351C674.667 351 663.333 346.333 654 337C644.667 327.667 640 316.333 640 303ZM752 447C752 433.667 756.667 422.333 766 413C775.333 403.667 786.667 399 800 399C813.333 399 824.667 403.667 834 413C843.333 422.333 848 433.667 848 447C848 460.333 843.333 471.667 834 481C824.667 490.333 813.333 495 800 495C786.667 495 775.333 490.333 766 481C756.667 471.667 752 460.333 752 447ZM752 639C752 625.667 756.667 614.333 766 605C775.333 595.667 786.667 591 800 591C813.333 591 824.667 595.667 834 605C843.333 614.333 848 625.667 848 639C848 652.333 843.333 663.667 834 673C824.667 682.333 813.333 687 800 687C786.667 687 775.333 682.333 766 673C756.667 663.667 752 652.333 752 639ZM624 767C624 753.667 628.667 742.333 638 733C647.333 723.667 658.667 719 672 719C685.333 719 696.667 723.667 706 733C715.333 742.333 720 753.667 720 767C720 780.333 715.333 791.667 706 801C696.667 810.333 685.333 815 672 815C658.667 815 647.333 810.333 638 801C628.667 791.667 624 780.333 624 767Z" fill="black" fill-opacity="0.8956"/>
</g>
<defs>
<clipPath id="clip0_12_74">
<rect width="1024" height="1027" fill="white"/>
</clipPath>
</defs>
</svg>
