<svg width="1024" height="768" viewBox="0 0 1024 768" fill="none" xmlns="http://www.w3.org/2000/svg">
<g clip-path="url(#clip0_12_54)">
<path d="M836 0C861 0 884.917 5.083 907.75 15.25C930.583 25.417 950.583 39.083 967.75 56.25C984.917 73.417 998.583 93.417 1008.75 116.25C1018.92 139.083 1024 163 1024 188V580C1024 605 1018.92 628.917 1008.75 651.75C998.583 674.583 984.917 694.583 967.75 711.75C950.583 728.917 930.583 742.583 907.75 752.75C884.917 762.917 861 768 836 768H188C163 768 139.083 762.917 116.25 752.75C93.4167 742.583 73.4167 728.917 56.25 711.75C39.0833 694.583 25.4167 674.583 15.25 651.75C5.08333 628.917 0 605 0 580V188C0 163 5.08333 139.083 15.25 116.25C25.4167 93.417 39.0833 73.417 56.25 56.25C73.4167 39.083 93.4167 25.417 116.25 15.25C139.083 5.083 163 0 188 0H836ZM189.5 64C172.833 64 156.917 67.417 141.75 74.25C126.583 81.083 113.25 90.25 101.75 101.75C90.25 113.25 81.0833 126.583 74.25 141.75C67.4167 156.917 64 172.833 64 189.5V448H960V189.5C960 172.833 956.583 156.917 949.75 141.75C942.917 126.583 933.75 113.25 922.25 101.75C910.75 90.25 897.417 81.083 882.25 74.25C867.083 67.417 851.167 64 834.5 64H189.5ZM834.5 704C851.167 704 867.083 700.583 882.25 693.75C897.417 686.917 910.75 677.75 922.25 666.25C933.75 654.75 942.917 641.417 949.75 626.25C956.583 611.083 960 595.167 960 578.5V512H64V578.5C64 595.167 67.4167 611.083 74.25 626.25C81.0833 641.417 90.25 654.75 101.75 666.25C113.25 677.75 126.583 686.917 141.75 693.75C156.917 700.583 172.833 704 189.5 704H834.5Z" fill="black" fill-opacity="0.8956"/>
</g>
<defs>
<clipPath id="clip0_12_54">
<rect width="1024" height="768" fill="white"/>
</clipPath>
</defs>
</svg>
