<svg xmlns="http://www.w3.org/2000/svg" width="1024" height="1024" fill="none" viewBox="0 0 1024 1024">
  <g clip-path="url(#a)">
    <path fill="#fff" d="M835.5 128c25 0 48.917 5.083 71.75 15.25s42.833 23.833 60 41 30.833 37.167 41 60c10.17 22.833 15.25 46.75 15.25 71.75v392c0 25-5.08 48.917-15.25 71.75-10.167 22.833-23.833 42.833-41 60s-37.167 30.833-60 41C884.417 890.917 860.5 896 835.5 896h-648c-25 0-48.917-5.083-71.75-15.25s-42.833-23.833-60-41-30.833-37.167-41-60C4.583 756.917-.5 733-.5 708V316c0-25 5.083-48.917 15.25-71.75s23.833-42.833 41-60 37.167-30.833 60-41C138.583 133.083 162.5 128 187.5 128h648ZM189 192c-16.667 0-32.583 3.417-47.75 10.25-15.167 6.833-28.5 16-40 27.5s-20.667 24.833-27.5 40c-6.833 15.167-10.25 31.083-10.25 47.75V576h896V317.5c0-16.667-3.417-32.583-10.25-47.75-6.833-15.167-16-28.5-27.5-40s-24.833-20.667-40-27.5C866.583 195.417 850.667 192 834 192H189Zm645 640c16.667 0 32.583-3.417 47.75-10.25 15.167-6.833 28.5-16 40-27.5s20.667-24.833 27.5-40c6.833-15.167 10.25-31.083 10.25-47.75V640h-896v66.5c0 16.667 3.417 32.583 10.25 47.75 6.833 15.167 16 28.5 27.5 40s24.833 20.667 40 27.5C156.417 828.583 172.333 832 189 832h645Z"/>
  </g>
  <defs>
    <clipPath id="a">
      <path fill="#fff" d="M0 0h1024v1024H0z"/>
    </clipPath>
  </defs>
</svg>
