<svg xmlns="http://www.w3.org/2000/svg" width="1025" height="1025" fill="none" viewBox="0 0 1025 1025">
  <g clip-path="url(#a)">
    <path fill="#000" fill-opacity=".896" d="M836 128.5c25 0 48.917 5.083 71.75 15.25s42.833 23.833 60 41 30.833 37.167 41 60c10.17 22.833 15.25 46.75 15.25 71.75v392c0 25-5.08 48.917-15.25 71.75-10.167 22.833-23.833 42.833-41 60s-37.167 30.833-60 41C884.917 891.417 861 896.5 836 896.5H188c-25 0-48.917-5.083-71.75-15.25s-42.833-23.833-60-41-30.833-37.167-41-60C5.083 757.417 0 733.5 0 708.5v-392c0-25 5.083-48.917 15.25-71.75s23.833-42.833 41-60 37.167-30.833 60-41C139.083 133.583 163 128.5 188 128.5h648Zm-646.5 64c-16.667 0-32.583 3.417-47.75 10.25-15.167 6.833-28.5 16-40 27.5s-20.667 24.833-27.5 40C67.417 285.417 64 301.333 64 318v258.5h896V318c0-16.667-3.417-32.583-10.25-47.75-6.833-15.167-16-28.5-27.5-40s-24.833-20.667-40-27.5c-15.167-6.833-31.083-10.25-47.75-10.25h-645Zm645 640c16.667 0 32.583-3.417 47.75-10.25 15.167-6.833 28.5-16 40-27.5s20.667-24.833 27.5-40C956.583 739.583 960 723.667 960 707v-66.5H64V707c0 16.667 3.417 32.583 10.25 47.75 6.833 15.167 16 28.5 27.5 40s24.833 20.667 40 27.5c15.167 6.833 31.083 10.25 47.75 10.25h645Z"/>
  </g>
  <defs>
    <clipPath id="a">
      <path fill="#fff" d="M.5.5h1024v1024H.5z"/>
    </clipPath>
  </defs>
</svg>
