<svg xmlns="http://www.w3.org/2000/svg" width="1024" height="1024" fill="none" viewBox="0 0 1024 1024">
  <path fill="#fff" d="M896 392v504c0 17.667-3.333 34.25-10 49.75s-15.833 29.083-27.5 40.75c-11.667 11.667-25.25 20.83-40.75 27.5-15.5 6.67-32.083 10-49.75 10H256c-17.667 0-34.25-3.33-49.75-10s-29.083-15.833-40.75-27.5c-11.667-11.667-20.833-25.25-27.5-40.75-6.667-15.5-10-32.083-10-49.75V128c0-17.667 3.333-34.25 10-49.75s15.833-29.083 27.5-40.75c11.667-11.667 25.25-20.833 40.75-27.5C221.75 3.333 238.333 0 256 0h248c17 0 33.333 3.25 49 9.75 15.667 6.5 29.5 15.75 41.5 27.75l264 264c12 12 21.25 25.833 27.75 41.5 6.5 15.667 9.75 32 9.75 49ZM512 64.5a16.444 16.444 0 0 0-4-.5H256c-9 0-17.333 1.667-25 5-7.667 3.333-14.417 7.917-20.25 13.75S200.333 95.333 197 103s-5 16-5 25v768c0 9 1.667 17.417 5 25.25 3.333 7.833 7.833 14.583 13.5 20.25s12.417 10.167 20.25 13.5 16.25 5 25.25 5h512c9 0 17.333-1.667 25-5 7.667-3.333 14.417-7.917 20.25-13.75S823.667 928.667 827 921s5-16 5-25V388c0-1.333-.167-2.667-.5-4H640c-17.667 0-34.25-3.333-49.75-10s-29.083-15.833-40.75-27.5c-11.667-11.667-20.833-25.25-27.5-40.75-6.667-15.5-10-32.083-10-49.75V64.5ZM787 320 576 109v147c0 9 1.667 17.417 5 25.25 3.333 7.833 7.833 14.583 13.5 20.25s12.417 10.167 20.25 13.5 16.25 5 25.25 5h147Z"/>
</svg>
