<svg xmlns="http://www.w3.org/2000/svg" width="1025" height="1025" fill="none" viewBox="0 0 1025 1025">
  <g clip-path="url(#a)">
    <path fill="#000" fill-opacity=".896" d="M896.5 392.5v504c0 17.667-3.333 34.25-10 49.75S870.667 975.333 859 987c-11.667 11.667-25.25 20.83-40.75 27.5-15.5 6.67-32.083 10-49.75 10h-512c-17.667 0-34.25-3.33-49.75-10S177.667 998.667 166 987c-11.667-11.667-20.833-25.25-27.5-40.75-6.667-15.5-10-32.083-10-49.75v-768c0-17.667 3.333-34.25 10-49.75S154.333 49.667 166 38c11.667-11.667 25.25-20.833 40.75-27.5 15.5-6.667 32.083-10 49.75-10h248c17 0 33.333 3.25 49 9.75C569.167 16.75 583 26 595 38l264 264c12 12 21.25 25.833 27.75 41.5 6.5 15.667 9.75 32 9.75 49ZM512.5 65a16.444 16.444 0 0 0-4-.5h-252c-9 0-17.333 1.667-25 5-7.667 3.333-14.417 7.917-20.25 13.75s-10.417 12.583-13.75 20.25-5 16-5 25v768c0 9 1.667 17.417 5 25.25 3.333 7.833 7.833 14.583 13.5 20.25s12.417 10.167 20.25 13.5 16.25 5 25.25 5h512c9 0 17.333-1.667 25-5 7.667-3.333 14.417-7.917 20.25-13.75s10.417-12.583 13.75-20.25 5-16 5-25v-508c0-1.333-.167-2.667-.5-4H640.5c-17.667 0-34.25-3.333-49.75-10S561.667 358.667 550 347c-11.667-11.667-20.833-25.25-27.5-40.75-6.667-15.5-10-32.083-10-49.75V65Zm275 255.5-211-211v147c0 9 1.667 17.417 5 25.25 3.333 7.833 7.833 14.583 13.5 20.25s12.417 10.167 20.25 13.5 16.25 5 25.25 5h147Z"/>
  </g>
  <defs>
    <clipPath id="a">
      <path fill="#fff" d="M.5.5h1024v1024H.5z"/>
    </clipPath>
  </defs>
</svg>
