<svg xmlns="http://www.w3.org/2000/svg" width="1024" height="1024" fill="none" viewBox="0 0 1024 1024">
  <path fill="#fff" d="M192 576c0-8.667 3.167-16.167 9.5-22.5 6.333-6.333 13.833-9.5 22.5-9.5s16.167 3.167 22.5 9.5l233.5 233V32c0-8.667 3.167-16.167 9.5-22.5C495.833 3.167 503.333 0 512 0s16.167 3.167 22.5 9.5c6.333 6.333 9.5 13.833 9.5 22.5v754.5l233.5-233c6.333-6.333 13.833-9.5 22.5-9.5s16.167 3.167 22.5 9.5c6.333 6.333 9.5 13.833 9.5 22.5s-3.167 16.167-9.5 22.5L536 885c-3.667 3.667-7.25 6.417-10.75 8.25-3.5 1.833-7.917 2.75-13.25 2.75s-9.75-.917-13.25-2.75-7.083-4.583-10.75-8.25L201.5 598.5c-6.333-6.333-9.5-13.833-9.5-22.5Zm640 384c8.667 0 16.167 3.167 22.5 9.5 6.333 6.333 9.5 13.833 9.5 22.5 0 8.67-3.167 16.17-9.5 22.5-6.333 6.33-13.833 9.5-22.5 9.5H192c-8.667 0-16.167-3.17-22.5-9.5-6.333-6.33-9.5-13.83-9.5-22.5 0-8.667 3.167-16.167 9.5-22.5 6.333-6.333 13.833-9.5 22.5-9.5h640Z"/>
</svg>
