<svg width="1024" height="896" viewBox="0 0 1024 896" fill="none" xmlns="http://www.w3.org/2000/svg">
<g clip-path="url(#clip0_12_96)">
<path d="M156.5 896C135.5 896 115.5 891.75 96.5 883.25C77.5 874.75 60.9167 863.417 46.75 849.25C32.5833 835.083 21.25 818.5 12.75 799.5C4.25 780.5 0 760.5 0 739.5V156.5C0 135.5 4.25 115.5 12.75 96.5C21.25 77.5 32.5833 60.917 46.75 46.75C60.9167 32.5834 77.5 21.2501 96.5 12.75C115.5 4.2501 135.5 0.0001 156.5 0H352C375 0.0001 394.75 3.5834 411.25 10.75C427.75 17.9167 442.667 27.5 456 39.5C469.333 51.5 481.667 65.167 493 80.5C504.333 95.833 516 111.667 528 128H867.5C888.5 128 908.5 132.25 927.5 140.75C946.5 149.25 963.083 160.583 977.25 174.75C991.417 188.917 1002.75 205.5 1011.25 224.5C1019.75 243.5 1024 263.5 1024 284.5V739.5C1024 760.5 1019.75 780.5 1011.25 799.5C1002.75 818.5 991.417 835.083 977.25 849.25C963.083 863.417 946.5 874.75 927.5 883.25C908.5 891.75 888.5 896 867.5 896H156.5ZM377 192C386 192 394.333 190.833 402 188.5C409.667 186.167 417.167 183.083 424.5 179.25C431.833 175.417 438.833 171.167 445.5 166.5C452.167 161.833 459 157 466 152C458.333 141.667 450.833 131.25 443.5 120.75C436.167 110.25 428.167 100.833 419.5 92.5C410.833 84.167 401.083 77.333 390.25 72C379.417 66.667 366.667 64 352 64H160C147 64 134.667 66.5 123 71.5C111.333 76.5 101.083 83.417 92.25 92.25C83.4167 101.083 76.5 111.333 71.5 123C66.5 134.667 64 147 64 160V192H377ZM864 832C877 832 889.333 829.5 901 824.5C912.667 819.5 922.917 812.583 931.75 803.75C940.583 794.917 947.5 784.667 952.5 773C957.5 761.333 960 749 960 736V288C960 275 957.5 262.667 952.5 251C947.5 239.333 940.583 229.083 931.75 220.25C922.917 211.417 912.667 204.5 901 199.5C889.333 194.5 877 192 864 192H521.5C509.833 200 498.583 207.833 487.75 215.5C476.917 223.167 465.75 230 454.25 236C442.75 242 430.667 246.833 418 250.5C405.333 254.167 391.667 256 377 256H64V736C64 749 66.5 761.333 71.5 773C76.5 784.667 83.4167 794.917 92.25 803.75C101.083 812.583 111.333 819.5 123 824.5C134.667 829.5 147 832 160 832H864Z" fill="black" fill-opacity="0.8956"/>
</g>
<defs>
<clipPath id="clip0_12_96">
<rect width="1024" height="896" fill="white"/>
</clipPath>
</defs>
</svg>
