<svg width="1024" height="1024" viewBox="0 0 1024 1024" fill="none" xmlns="http://www.w3.org/2000/svg">
<path d="M160 64C71.6344 64 0 135.634 0 224V800C0 888.366 71.6345 960 160 960H864C952.366 960 1024 888.366 1024 800V352C1024 263.634 952.366 192 864 192H493.255L398.059 96.804C377.055 75.7999 348.567 64 318.863 64H160ZM64 224C64 170.981 106.981 128 160 128H318.863C331.593 128 343.802 133.057 352.804 142.059L434.745 224L348.118 310.627C342.117 316.629 333.977 320 325.49 320H64V224ZM64 384H325.49C350.951 384 375.369 373.886 393.373 355.882L493.255 256H864C917.019 256 960 298.981 960 352V800C960 853.019 917.019 896 864 896H160C106.981 896 64 853.019 64 800V384Z" fill="white"/>
</svg>
