<svg xmlns="http://www.w3.org/2000/svg" width="1024" height="1024" fill="none" viewBox="0 0 1024 1024">
  <path fill="#fff" d="M156.5 960c-21 0-41-4.25-60-12.75s-35.583-19.833-49.75-34c-14.167-14.167-25.5-30.75-34-49.75S0 824.5 0 803.5v-583c0-21 4.25-41 12.75-60s19.833-35.583 34-49.75c14.167-14.167 30.75-25.5 49.75-34s39-12.75 60-12.75H352c23 0 42.75 3.583 59.25 10.75S442.667 91.5 456 103.5c13.333 12 25.667 25.667 37 41 11.333 15.333 23 31.167 35 47.5h339.5c21 0 41 4.25 60 12.75s35.583 19.833 49.75 34c14.167 14.167 25.5 30.75 34 49.75s12.75 39 12.75 60v455c0 21-4.25 41-12.75 60s-19.833 35.583-34 49.75c-14.167 14.167-30.75 25.5-49.75 34s-39 12.75-60 12.75h-711ZM377 256c9 0 17.333-1.167 25-3.5 7.667-2.333 15.167-5.417 22.5-9.25a190.258 190.258 0 0 0 21-12.75c6.667-4.667 13.5-9.5 20.5-14.5a1340.894 1340.894 0 0 1-22.5-31.25c-7.333-10.5-15.333-19.917-24-28.25-8.667-8.333-18.417-15.167-29.25-20.5-10.833-5.333-23.583-8-38.25-8H160c-13 0-25.333 2.5-37 7.5-11.667 5-21.917 11.917-30.75 20.75-8.833 8.833-15.75 19.083-20.75 30.75-5 11.667-7.5 24-7.5 37v32h313Zm487 640c13 0 25.333-2.5 37-7.5 11.667-5 21.917-11.917 30.75-20.75 8.833-8.833 15.75-19.083 20.75-30.75 5-11.667 7.5-24 7.5-37V352c0-13-2.5-25.333-7.5-37-5-11.667-11.917-21.917-20.75-30.75-8.833-8.833-19.083-15.75-30.75-20.75-11.667-5-24-7.5-37-7.5H521.5c-11.667 8-22.917 15.833-33.75 23.5-10.833 7.667-22 14.5-33.5 20.5s-23.583 10.833-36.25 14.5c-12.667 3.667-26.333 5.5-41 5.5H64v480c0 13 2.5 25.333 7.5 37 5 11.667 11.917 21.917 20.75 30.75 8.833 8.833 19.083 15.75 30.75 20.75 11.667 5 24 7.5 37 7.5h704Z"/>
</svg>
