<svg width="1024" height="1024" viewBox="0 0 1024 1024" fill="none" xmlns="http://www.w3.org/2000/svg">
<g clip-path="url(#clip0_32_99)">
<mask id="mask0_32_99" style="mask-type:luminance" maskUnits="userSpaceOnUse" x="0" y="64" width="1024" height="896">
<path d="M1024 64H0V960H1024V64Z" fill="white"/>
</mask>
<g mask="url(#mask0_32_99)">
<path d="M156.5 960C135.5 960 115.5 955.75 96.5 947.25C77.5 938.75 60.9167 927.417 46.75 913.25C32.5833 899.083 21.25 882.5 12.75 863.5C4.25 844.5 0 824.5 0 803.5V220.5C0 199.5 4.25 179.5 12.75 160.5C21.25 141.5 32.5833 124.917 46.75 110.75C60.9167 96.5834 77.5 85.2501 96.5 76.75C115.5 68.2501 135.5 64.0001 156.5 64H352C375 64.0001 394.75 67.5834 411.25 74.75C427.75 81.9167 442.667 91.5 456 103.5C469.333 115.5 481.667 129.167 493 144.5C504.333 159.833 516 175.667 528 192H867.5C888.5 192 908.5 196.25 927.5 204.75C946.5 213.25 963.083 224.583 977.25 238.75C991.417 252.917 1002.75 269.5 1011.25 288.5C1019.75 307.5 1024 327.5 1024 348.5V803.5C1024 824.5 1019.75 844.5 1011.25 863.5C1002.75 882.5 991.417 899.083 977.25 913.25C963.083 927.417 946.5 938.75 927.5 947.25C908.5 955.75 888.5 960 867.5 960H156.5ZM377 256C386 256 394.333 254.833 402 252.5C409.667 250.167 417.167 247.083 424.5 243.25C431.833 239.417 438.833 235.167 445.5 230.5C452.167 225.833 459 221 466 216C458.333 205.667 450.833 195.25 443.5 184.75C436.167 174.25 428.167 164.833 419.5 156.5C410.833 148.167 401.083 141.333 390.25 136C379.417 130.667 366.667 128 352 128H160C147 128 134.667 130.5 123 135.5C111.333 140.5 101.083 147.417 92.25 156.25C83.4167 165.083 76.5 175.333 71.5 187C66.5 198.667 64 211 64 224V256H377ZM864 896C877 896 889.333 893.5 901 888.5C912.667 883.5 922.917 876.583 931.75 867.75C940.583 858.917 947.5 848.667 952.5 837C957.5 825.333 960 813 960 800V352C960 339 957.5 326.667 952.5 315C947.5 303.333 940.583 293.083 931.75 284.25C922.917 275.417 912.667 268.5 901 263.5C889.333 258.5 877 256 864 256H521.5C509.833 264 498.583 271.833 487.75 279.5C476.917 287.167 465.75 294 454.25 300C442.75 306 430.667 310.833 418 314.5C405.333 318.167 391.667 320 377 320H64V800C64 813 66.5 825.333 71.5 837C76.5 848.667 83.4167 858.917 92.25 867.75C101.083 876.583 111.333 883.5 123 888.5C134.667 893.5 147 896 160 896H864Z" fill="black" fill-opacity="0.8956"/>
</g>
</g>
<defs>
<clipPath id="clip0_32_99">
<rect width="1024" height="896" fill="white" transform="translate(0 64)"/>
</clipPath>
</defs>
</svg>
