<svg xmlns="http://www.w3.org/2000/svg" width="1025" height="1025" fill="none" viewBox="0 0 1025 1025">
  <g clip-path="url(#a)">
    <path fill="#000" fill-opacity=".896" d="M672 160.5c32.333 0 63.5 4.167 93.5 12.5s58 20.167 84 35.5c26 15.333 49.75 33.75 71.25 55.25S960.667 309 976 335c15.333 26 27.17 54 35.5 84 8.33 30 12.5 61.167 12.5 93.5s-4.17 63.5-12.5 93.5-20.167 58-35.5 84c-15.333 26-33.75 49.75-55.25 71.25s-45.25 39.917-71.25 55.25c-26 15.333-54 27.167-84 35.5-30 8.333-61.167 12.5-93.5 12.5H352c-32.333 0-63.5-4.167-93.5-12.5s-58-20.167-84-35.5c-26-15.333-49.75-33.75-71.25-55.25S63.333 716 48 690c-15.333-26-27.167-54-35.5-84C4.167 576 0 544.833 0 512.5S4.167 449 12.5 419s20.167-58 35.5-84c15.333-26 33.75-49.75 55.25-71.25s45.25-39.917 71.25-55.25c26-15.333 54-27.167 84-35.5 30-8.333 61.167-12.5 93.5-12.5h320Zm0 640c39.667 0 77-7.583 112-22.75S849.5 742 875.5 716s46.583-56.5 61.75-91.5c15.167-35 22.75-72.333 22.75-112 0-26.333-3.417-51.75-10.25-76.25s-16.5-47.417-29-68.75-27.583-40.833-45.25-58.5-37.167-32.75-58.5-45.25-44.25-22.167-68.75-29c-24.5-6.833-49.917-10.25-76.25-10.25H352c-39.667 0-77 7.583-112 22.75S174.5 283 148.5 309s-46.583 56.5-61.75 91.5C71.583 435.5 64 472.833 64 512.5c0 40 7.5 77.5 22.5 112.5s35.5 65.5 61.5 91.5 56.5 46.5 91.5 61.5S312 800.5 352 800.5h320Zm-224-288c0 8.667-3.167 16.167-9.5 22.5-6.333 6.333-13.833 9.5-22.5 9.5h-96v96c0 8.667-3.167 16.167-9.5 22.5-6.333 6.333-13.833 9.5-22.5 9.5s-16.167-3.167-22.5-9.5c-6.333-6.333-9.5-13.833-9.5-22.5v-96h-96c-8.667 0-16.167-3.167-22.5-9.5-6.333-6.333-9.5-13.833-9.5-22.5s3.167-16.167 9.5-22.5c6.333-6.333 13.833-9.5 22.5-9.5h96v-96c0-8.667 3.167-16.167 9.5-22.5 6.333-6.333 13.833-9.5 22.5-9.5s16.167 3.167 22.5 9.5c6.333 6.333 9.5 13.833 9.5 22.5v96h96c8.667 0 16.167 3.167 22.5 9.5 6.333 6.333 9.5 13.833 9.5 22.5Zm384-96c0 9-1.667 17.333-5 25-3.333 7.667-7.917 14.417-13.75 20.25S800.667 472.167 793 475.5s-16 5-25 5-17.417-1.667-25.25-5c-7.833-3.333-14.583-7.833-20.25-13.5s-10.167-12.417-13.5-20.25-5-16.25-5-25.25 1.667-17.333 5-25c3.333-7.667 7.917-14.417 13.75-20.25s12.583-10.417 20.25-13.75 16-5 25-5c8.667 0 16.917 1.667 24.75 5 7.833 3.333 14.667 7.917 20.5 13.75s10.417 12.667 13.75 20.5 5 16.083 5 24.75Zm-128 192c0 9-1.667 17.333-5 25-3.333 7.667-7.917 14.417-13.75 20.25S672.667 664.167 665 667.5s-16 5-25 5-17.417-1.667-25.25-5c-7.833-3.333-14.583-7.833-20.25-13.5s-10.167-12.417-13.5-20.25-5-16.25-5-25.25 1.667-17.333 5-25c3.333-7.667 7.917-14.417 13.75-20.25s12.583-10.417 20.25-13.75 16-5 25-5c8.667 0 16.917 1.667 24.75 5 7.833 3.333 14.667 7.917 20.5 13.75s10.417 12.667 13.75 20.5 5 16.083 5 24.75Z"/>
  </g>
  <defs>
    <clipPath id="a">
      <path fill="#fff" d="M.5.5h1024v1024H.5z"/>
    </clipPath>
  </defs>
</svg>
