<svg width="1024" height="704" viewBox="0 0 1024 704" fill="none" xmlns="http://www.w3.org/2000/svg">
<g clip-path="url(#clip0_12_68)">
<path d="M672 0C704.333 0 735.5 4.167 765.5 12.5C795.5 20.833 823.5 32.667 849.5 48C875.5 63.333 899.25 81.75 920.75 103.25C942.25 124.75 960.667 148.5 976 174.5C991.333 200.5 1003.17 228.5 1011.5 258.5C1019.83 288.5 1024 319.667 1024 352C1024 384.333 1019.83 415.5 1011.5 445.5C1003.17 475.5 991.333 503.5 976 529.5C960.667 555.5 942.25 579.25 920.75 600.75C899.25 622.25 875.5 640.667 849.5 656C823.5 671.333 795.5 683.167 765.5 691.5C735.5 699.833 704.333 704 672 704H352C319.667 704 288.5 699.833 258.5 691.5C228.5 683.167 200.5 671.333 174.5 656C148.5 640.667 124.75 622.25 103.25 600.75C81.75 579.25 63.3333 555.5 48 529.5C32.6667 503.5 20.8333 475.5 12.5 445.5C4.16667 415.5 0 384.333 0 352C0 319.667 4.16667 288.5 12.5 258.5C20.8333 228.5 32.6667 200.5 48 174.5C63.3333 148.5 81.75 124.75 103.25 103.25C124.75 81.75 148.5 63.333 174.5 48C200.5 32.667 228.5 20.833 258.5 12.5C288.5 4.167 319.667 0 352 0H672ZM672 640C711.667 640 749 632.417 784 617.25C819 602.083 849.5 581.5 875.5 555.5C901.5 529.5 922.083 499 937.25 464C952.417 429 960 391.667 960 352C960 325.667 956.583 300.25 949.75 275.75C942.917 251.25 933.25 228.333 920.75 207C908.25 185.667 893.167 166.167 875.5 148.5C857.833 130.833 838.333 115.75 817 103.25C795.667 90.75 772.75 81.083 748.25 74.25C723.75 67.417 698.333 64 672 64H352C312.333 64 275 71.583 240 86.75C205 101.917 174.5 122.5 148.5 148.5C122.5 174.5 101.917 205 86.75 240C71.5833 275 64 312.333 64 352C64 392 71.5 429.5 86.5 464.5C101.5 499.5 122 530 148 556C174 582 204.5 602.5 239.5 617.5C274.5 632.5 312 640 352 640H672ZM448 352C448 360.667 444.833 368.167 438.5 374.5C432.167 380.833 424.667 384 416 384H320V480C320 488.667 316.833 496.167 310.5 502.5C304.167 508.833 296.667 512 288 512C279.333 512 271.833 508.833 265.5 502.5C259.167 496.167 256 488.667 256 480V384H160C151.333 384 143.833 380.833 137.5 374.5C131.167 368.167 128 360.667 128 352C128 343.333 131.167 335.833 137.5 329.5C143.833 323.167 151.333 320 160 320H256V224C256 215.333 259.167 207.833 265.5 201.5C271.833 195.167 279.333 192 288 192C296.667 192 304.167 195.167 310.5 201.5C316.833 207.833 320 215.333 320 224V320H416C424.667 320 432.167 323.167 438.5 329.5C444.833 335.833 448 343.333 448 352ZM832 256C832 265 830.333 273.333 827 281C823.667 288.667 819.083 295.417 813.25 301.25C807.417 307.083 800.667 311.667 793 315C785.333 318.333 777 320 768 320C759 320 750.583 318.333 742.75 315C734.917 311.667 728.167 307.167 722.5 301.5C716.833 295.833 712.333 289.083 709 281.25C705.667 273.417 704 265 704 256C704 247 705.667 238.667 709 231C712.333 223.333 716.917 216.583 722.75 210.75C728.583 204.917 735.333 200.333 743 197C750.667 193.667 759 192 768 192C776.667 192 784.917 193.667 792.75 197C800.583 200.333 807.417 204.917 813.25 210.75C819.083 216.583 823.667 223.417 827 231.25C830.333 239.083 832 247.333 832 256ZM704 448C704 457 702.333 465.333 699 473C695.667 480.667 691.083 487.417 685.25 493.25C679.417 499.083 672.667 503.667 665 507C657.333 510.333 649 512 640 512C631 512 622.583 510.333 614.75 507C606.917 503.667 600.167 499.167 594.5 493.5C588.833 487.833 584.333 481.083 581 473.25C577.667 465.417 576 457 576 448C576 439 577.667 430.667 581 423C584.333 415.333 588.917 408.583 594.75 402.75C600.583 396.917 607.333 392.333 615 389C622.667 385.667 631 384 640 384C648.667 384 656.917 385.667 664.75 389C672.583 392.333 679.417 396.917 685.25 402.75C691.083 408.583 695.667 415.417 699 423.25C702.333 431.083 704 439.333 704 448Z" fill="black" fill-opacity="0.8956"/>
</g>
<defs>
<clipPath id="clip0_12_68">
<rect width="1024" height="704" fill="white"/>
</clipPath>
</defs>
</svg>
