<svg width="1024" height="1024" viewBox="0 0 1024 1024" fill="none" xmlns="http://www.w3.org/2000/svg">
<g clip-path="url(#clip0_13_20)">
<path d="M512 11.5C559 11.5 604.333 17.5834 648 29.75C691.667 41.9167 732.417 59.1667 770.25 81.5C808.083 103.833 842.583 130.583 873.75 161.75C904.917 192.917 931.667 227.417 954 265.25C976.333 303.083 993.583 343.833 1005.75 387.5C1017.92 431.167 1024 476.5 1024 523.5C1024 578.5 1015.58 631.5 998.75 682.5C981.917 733.5 958.167 780.333 927.5 823C896.833 865.667 860 903.083 817 935.25C774 967.417 726.333 992.167 674 1009.5C673 1009.83 671.5 1010.08 669.5 1010.25C667.5 1010.42 666 1010.5 665 1010.5C657.333 1010.5 651.083 1008.25 646.25 1003.75C641.417 999.25 639 993 639 985C639 961.333 639.083 937.917 639.25 914.75C639.417 891.583 639.5 868.167 639.5 844.5C639.5 827.5 637 810.333 632 793C627 775.667 618 761.167 605 749.5C644 745.167 678.167 737.083 707.5 725.25C736.833 713.417 761.167 697.333 780.5 677C799.833 656.667 814.333 631.667 824 602C833.667 572.333 838.5 537.333 838.5 497C838.5 471 834.25 446.333 825.75 423C817.25 399.667 804 378.5 786 359.5C789.667 350.167 792.333 340.5 794 330.5C795.667 320.5 796.5 310.5 796.5 300.5C796.5 287.5 795.083 274.583 792.25 261.75C789.417 248.917 785.667 236.333 781 224C780 223.333 778.917 223 777.75 223C776.583 223 775.5 223 774.5 223C762.833 223 751 224.583 739 227.75C727 230.917 715.25 235 703.75 240C692.25 245 681.083 250.75 670.25 257.25C659.417 263.75 649.333 270.167 640 276.5C598 264.833 555.333 259 512 259C468.667 259 426 264.833 384 276.5C374.333 270.167 364.083 263.833 353.25 257.5C342.417 251.167 331.25 245.417 319.75 240.25C308.25 235.083 296.583 230.917 284.75 227.75C272.917 224.583 261.167 223 249.5 223C248.5 223 247.417 223 246.25 223C245.083 223 244 223.333 243 224C238.333 236.333 234.583 248.917 231.75 261.75C228.917 274.583 227.5 287.5 227.5 300.5C227.5 310.5 228.333 320.5 230 330.5C231.667 340.5 234.333 350.167 238 359.5C220 378.5 206.75 399.667 198.25 423C189.75 446.333 185.5 471 185.5 497C185.5 537 190.333 571.833 200 601.5C209.667 631.167 224.167 656.25 243.5 676.75C262.833 697.25 287.083 713.5 316.25 725.5C345.417 737.5 379.5 745.667 418.5 750C408.833 758.667 401.417 769.083 396.25 781.25C391.083 793.417 387.667 805.833 386 818.5C377 822.833 367.5 826.167 357.5 828.5C347.5 830.833 337.5 832 327.5 832C311.833 832 298.667 829.333 288 824C277.333 818.667 267.917 811.917 259.75 803.75C251.583 795.583 244.167 786.833 237.5 777.5C230.833 768.167 223.833 759.417 216.5 751.25C209.167 743.083 200.917 736.333 191.75 731C182.583 725.667 171.5 723 158.5 723C157.167 723 155.167 723.083 152.5 723.25C149.833 723.417 147.25 723.833 144.75 724.5C142.25 725.167 140 726.167 138 727.5C136 728.833 135 730.5 135 732.5C135 737.167 137.583 741.25 142.75 744.75C147.917 748.25 152 751.333 155 754C163 760 169.667 765.667 175 771C180.333 776.333 185 781.833 189 787.5C193 793.167 196.75 799.25 200.25 805.75C203.75 812.25 207.667 820 212 829C224.667 855.333 240.667 874.333 260 886C279.333 897.667 303.667 903.5 333 903.5C341.667 903.5 350.333 902.917 359 901.75C367.667 900.583 376.333 899.167 385 897.5V984.5C385 992.5 382.583 998.833 377.75 1003.5C372.917 1008.17 366.5 1010.5 358.5 1010.5C355.5 1010.5 352.667 1010.17 350 1009.5C297.667 992.167 250 967.5 207 935.5C164 903.5 127.167 866.167 96.5 823.5C65.8333 780.833 42.0833 733.917 25.25 682.75C8.41667 631.583 0 578.5 0 523.5C0 476.5 6.08333 431.167 18.25 387.5C30.4167 343.833 47.6667 303.083 70 265.25C92.3333 227.417 119.083 192.917 150.25 161.75C181.417 130.583 215.917 103.833 253.75 81.5C291.583 59.1667 332.333 41.9167 376 29.75C419.667 17.5834 465 11.5 512 11.5Z" fill="black" fill-opacity="0.896"/>
</g>
<defs>
<clipPath id="clip0_13_20">
<rect width="1024" height="999" fill="white" transform="translate(0 12)"/>
</clipPath>
</defs>
</svg>
