<svg width="1025" height="1025" viewBox="0 0 1025 1025" fill="none" xmlns="http://www.w3.org/2000/svg">
<g clip-path="url(#clip0_15_7)">
<path d="M26.0203 906.603C8.29571 888.612 0.104512 869.881 1.44756 850.408C2.7906 830.935 13.8008 811.669 34.4798 792.601L596.028 276.17L636.311 316.051L79.597 828.856C71.5404 836.373 66.8407 843.826 65.4979 851.213C64.1551 858.601 68.3177 867.125 77.9857 876.793L120.686 919.091C130.354 928.759 138.948 933.053 146.467 931.981C153.987 930.91 161.372 926.342 168.623 918.285L665.718 359.959L706.001 400.243L205.281 962.999C186.482 984.213 167.146 995.427 147.273 996.636C127.4 997.844 108.601 989.449 90.8764 971.459L26.0203 906.603ZM396.223 102.549C419.05 79.9908 446.779 62.4676 479.408 49.9798C512.038 37.492 546.547 30.7111 582.936 29.6368C619.326 28.5626 654.842 34.0008 689.485 45.9515C724.129 57.9023 754.744 77.171 781.331 103.758L874.385 196.007C885.396 207.018 892.781 217.424 896.541 227.226C900.301 237.029 900.838 247.569 898.153 258.848L889.693 297.52L909.835 317.662L929.171 315.648C938.573 315.11 947.363 316.655 955.556 320.28C963.75 323.906 972.411 330.284 981.539 339.415L1009.74 367.613C1019.41 377.013 1024.44 387.487 1024.84 399.034C1025.25 410.582 1020.75 421.19 1011.35 430.858L904.195 538.414C894.795 547.814 884.053 552.245 871.968 551.708C859.883 551.17 849.142 546.202 839.742 536.803L811.946 509.41C802.547 500.28 796.236 491.417 793.013 482.823C789.791 474.229 788.448 465.233 788.985 455.833L790.596 437.303L769.246 416.356L732.588 422.398C722.115 424.547 712.179 424.882 702.779 423.405C693.379 421.929 683.846 416.221 674.178 406.285L589.583 321.287C579.378 310.814 572.798 299.4 569.844 287.047C566.89 274.693 568.77 260.191 575.484 243.541L597.64 184.727C580.452 175.597 562.929 169.822 545.07 167.405C527.211 164.988 509.554 164.854 492.097 167.003C474.641 169.151 457.857 172.508 441.743 177.073C428.853 180.296 417.708 179.826 408.308 175.664C398.909 171.501 391.927 165.794 387.361 158.543C382.527 150.755 380.647 141.49 381.721 130.748C382.795 120.006 387.629 110.606 396.223 102.549ZM454.634 119.468C452.485 121.08 451.814 122.826 452.62 124.705C453.426 126.585 455.171 126.988 457.857 125.914C481.221 117.857 506.062 113.694 532.381 113.426C558.699 113.158 583.809 117.118 607.71 125.309C631.612 133.501 652.022 146.324 668.941 163.78L631.075 258.446C628.389 265.159 627.248 270.396 627.651 274.156C628.053 277.916 630.537 281.944 635.103 286.241L708.821 359.557C713.387 364.122 717.415 366.808 720.906 367.613C724.397 368.419 729.097 368.151 735.005 366.808L791.402 357.14L846.59 412.73L844.173 448.582C843.636 455.833 846.187 462.413 851.827 468.321L872.371 488.866L961.8 399.437L940.853 378.893C937.364 375.402 934.472 373.253 932.192 372.447C929.912 371.642 926.351 371.373 921.517 371.642L885.262 373.656L829.671 318.468L841.756 263.682C843.099 257.505 843.233 252.47 842.159 248.576C841.085 244.682 838.399 240.586 834.102 236.29L732.588 135.582C716.743 120.006 696.871 107.921 672.969 99.3268C649.068 90.7331 623.757 85.6977 597.035 84.2206C570.314 82.7436 544.466 84.9591 519.49 90.8673C494.514 96.7753 472.896 106.309 454.634 119.468Z" fill="black" fill-opacity="0.896"/>
</g>
<defs>
<clipPath id="clip0_15_7">
<rect width="1024" height="1024" fill="white" transform="translate(0.5 0.5)"/>
</clipPath>
</defs>
</svg>
