<svg width="1025" height="1024" viewBox="0 0 1025 1024" fill="none" xmlns="http://www.w3.org/2000/svg">
<g clip-path="url(#clip0_15_20)">
<path d="M26.0203 906.103C8.29571 888.112 0.104512 869.381 1.44756 849.908C2.7906 830.435 13.8008 811.169 34.4798 792.101L596.028 275.67L636.311 315.551L79.597 828.356C71.5404 835.873 66.8407 843.326 65.4979 850.713C64.1551 858.101 68.3177 866.625 77.9857 876.293L120.686 918.591C130.354 928.259 138.948 932.553 146.467 931.481C153.987 930.41 161.372 925.842 168.623 917.785L665.718 359.459L706.001 399.743L205.281 962.499C186.482 983.713 167.146 994.927 147.273 996.136C127.4 997.344 108.601 988.949 90.8764 970.959L26.0203 906.103ZM396.223 102.049C419.05 79.4908 446.779 61.9676 479.408 49.4798C512.038 36.992 546.547 30.2111 582.936 29.1368C619.326 28.0626 654.842 33.5008 689.485 45.4515C724.129 57.4023 754.744 76.671 781.331 103.258L874.385 195.507C885.396 206.518 892.781 216.924 896.541 226.726C900.301 236.529 900.838 247.069 898.153 258.348L889.693 297.02L909.835 317.162L929.171 315.148C938.573 314.61 947.363 316.155 955.556 319.78C963.75 323.406 972.411 329.784 981.539 338.915L1009.74 367.113C1019.41 376.513 1024.44 386.987 1024.84 398.534C1025.25 410.082 1020.75 420.69 1011.35 430.358L904.195 537.914C894.795 547.314 884.053 551.745 871.968 551.208C859.883 550.67 849.142 545.702 839.742 536.303L811.946 508.91C802.547 499.78 796.236 490.917 793.013 482.323C789.791 473.729 788.448 464.733 788.985 455.333L790.596 436.803L769.246 415.856L732.588 421.898C722.115 424.047 712.179 424.382 702.779 422.905C693.379 421.429 683.846 415.721 674.178 405.785L589.583 320.787C579.378 310.314 572.798 298.9 569.844 286.547C566.89 274.193 568.77 259.691 575.484 243.041L597.64 184.227C580.452 175.097 562.929 169.322 545.07 166.905C527.211 164.488 509.554 164.354 492.097 166.503C474.641 168.651 457.857 172.008 441.743 176.573C428.853 179.796 417.708 179.326 408.308 175.164C398.909 171.001 391.927 165.294 387.361 158.043C382.527 150.255 380.647 140.99 381.721 130.248C382.795 119.506 387.629 110.106 396.223 102.049ZM454.634 118.968C452.485 120.58 451.814 122.326 452.62 124.205C453.426 126.085 455.171 126.488 457.857 125.414C481.221 117.357 506.062 113.194 532.381 112.926C558.699 112.658 583.809 116.618 607.71 124.809C631.612 133.001 652.022 145.824 668.941 163.28L631.075 257.946C628.389 264.659 627.248 269.896 627.651 273.656C628.053 277.416 630.537 281.444 635.103 285.741L708.821 359.057C713.387 363.622 717.415 366.308 720.906 367.113C724.397 367.919 729.097 367.651 735.005 366.308L791.402 356.64L846.59 412.23L844.173 448.082C843.636 455.333 846.187 461.913 851.827 467.821L872.371 488.366L961.8 398.937L940.853 378.393C937.364 374.902 934.472 372.753 932.192 371.947C929.912 371.142 926.351 370.873 921.517 371.142L885.262 373.156L829.671 317.968L841.756 263.182C843.099 257.005 843.233 251.97 842.159 248.076C841.085 244.182 838.399 240.086 834.102 235.79L732.588 135.082C716.743 119.506 696.871 107.421 672.969 98.8268C649.068 90.2331 623.757 85.1977 597.035 83.7206C570.314 82.2436 544.466 84.4591 519.49 90.3673C494.514 96.2753 472.896 105.809 454.634 118.968Z" fill="white"/>
</g>
<defs>
<clipPath id="clip0_15_20">
<rect width="1024" height="1024" fill="white" transform="translate(0.5)"/>
</clipPath>
</defs>
</svg>
