<svg width="1024" height="384" viewBox="0 0 1024 384" fill="none" xmlns="http://www.w3.org/2000/svg">
<g clip-path="url(#clip0_12_92)">
<path d="M125.5 384C108.833 384 92.9167 380.583 77.75 373.75C62.5833 366.917 49.25 357.75 37.75 346.25C26.25 334.75 17.0833 321.417 10.25 306.25C3.41667 291.083 0 275.167 0 258.5V125.5C0 108.833 3.41667 92.917 10.25 77.75C17.0833 62.583 26.25 49.25 37.75 37.75C49.25 26.25 62.5833 17.083 77.75 10.25C92.9167 3.417 108.833 0 125.5 0H898.5C915.167 0 931.083 3.417 946.25 10.25C961.417 17.083 974.75 26.25 986.25 37.75C997.75 49.25 1006.92 62.583 1013.75 77.75C1020.58 92.917 1024 108.833 1024 125.5V258.5C1024 275.167 1020.58 291.083 1013.75 306.25C1006.92 321.417 997.75 334.75 986.25 346.25C974.75 357.75 961.417 366.917 946.25 373.75C931.083 380.583 915.167 384 898.5 384H125.5ZM896 320C905 320 913.333 318.333 921 315C928.667 311.667 935.417 307.083 941.25 301.25C947.083 295.417 951.667 288.667 955 281C958.333 273.333 960 265 960 256V128C960 119.333 958.333 111.083 955 103.25C951.667 95.417 947.083 88.583 941.25 82.75C935.417 76.917 928.583 72.333 920.75 69C912.917 65.667 904.667 64 896 64H128C119 64 110.667 65.667 103 69C95.3333 72.333 88.5833 76.917 82.75 82.75C76.9167 88.583 72.3333 95.333 69 103C65.6667 110.667 64 119 64 128V256C64 265 65.6667 273.417 69 281.25C72.3333 289.083 76.8333 295.833 82.5 301.5C88.1667 307.167 94.9167 311.667 102.75 315C110.583 318.333 119 320 128 320H896ZM736 176C736 162.667 740.667 151.333 750 142C759.333 132.667 770.667 128 784 128C797.333 128 808.667 132.667 818 142C827.333 151.333 832 162.667 832 176C832 189.333 827.333 200.667 818 210C808.667 219.333 797.333 224 784 224C770.667 224 759.333 219.333 750 210C740.667 200.667 736 189.333 736 176Z" fill="black" fill-opacity="0.8956"/>
</g>
<defs>
<clipPath id="clip0_12_92">
<rect width="1024" height="384" fill="white"/>
</clipPath>
</defs>
</svg>
