<svg xmlns="http://www.w3.org/2000/svg" width="1024" height="1024" fill="none" viewBox="0 0 1024 1024">
  <path fill="#fff" d="M125.5 704c-16.667 0-32.583-3.417-47.75-10.25-15.167-6.833-28.5-16-40-27.5s-20.667-24.833-27.5-40C3.417 611.083 0 595.167 0 578.5v-133c0-16.667 3.417-32.583 10.25-47.75 6.833-15.167 16-28.5 27.5-40s24.833-20.667 40-27.5C92.917 323.417 108.833 320 125.5 320h773c16.667 0 32.583 3.417 47.75 10.25 15.167 6.833 28.5 16 40 27.5s20.67 24.833 27.5 40c6.83 15.167 10.25 31.083 10.25 47.75v133c0 16.667-3.42 32.583-10.25 47.75-6.83 15.167-16 28.5-27.5 40s-24.833 20.667-40 27.5C931.083 700.583 915.167 704 898.5 704h-773ZM896 640c9 0 17.333-1.667 25-5 7.667-3.333 14.417-7.917 20.25-13.75S951.667 608.667 955 601s5-16 5-25V448c0-8.667-1.667-16.917-5-24.75-3.333-7.833-7.917-14.667-13.75-20.5s-12.667-10.417-20.5-13.75-16.083-5-24.75-5H128c-9 0-17.333 1.667-25 5-7.667 3.333-14.417 7.917-20.25 13.75S72.333 415.333 69 423s-5 16-5 25v128c0 9 1.667 17.417 5 25.25 3.333 7.833 7.833 14.583 13.5 20.25s12.417 10.167 20.25 13.5 16.25 5 25.25 5h768ZM736 496c0-13.333 4.667-24.667 14-34 9.333-9.333 20.667-14 34-14 13.333 0 24.667 4.667 34 14 9.333 9.333 14 20.667 14 34 0 13.333-4.667 24.667-14 34-9.333 9.333-20.667 14-34 14-13.333 0-24.667-4.667-34-14-9.333-9.333-14-20.667-14-34Z"/>
</svg>
