<svg width="1024" height="1024" viewBox="0 0 1024 1024" fill="none" xmlns="http://www.w3.org/2000/svg">
<path d="M0 672.515C0 709.22 8.81516 742.385 26.4454 772.01C44.0756 801.635 68.3534 825.046 99.2786 842.242C130.204 859.436 165.754 868.037 205.927 868.037H817.639C857.813 868.037 893.362 859.436 924.288 842.242C955.216 825.046 979.494 801.635 997.121 772.01C1014.75 742.385 1023.57 709.22 1023.57 672.515C1023.57 656.329 1021.47 640.867 1017.28 626.127C1013.09 611.387 1008.25 597.225 1002.76 583.641L856.657 232.914C842.206 198.232 820.746 172.075 792.278 154.445C763.809 136.815 730.211 128 691.482 128H332.085C293.356 128 259.757 136.815 231.289 154.445C202.82 172.075 181.361 198.232 166.909 232.914L20.376 583.641C14.8846 597.225 10.1157 611.387 6.06943 626.127C2.02312 640.867 0 656.329 0 672.515ZM69.7985 672.515C69.7985 648.815 75.4344 627.428 86.7062 608.352C97.978 589.277 113.874 574.248 134.395 563.265C154.915 552.282 178.76 546.791 205.927 546.791H817.639C845.097 546.791 869.013 552.282 889.389 563.265C909.765 574.248 925.588 589.277 936.86 608.352C948.132 627.428 953.768 648.815 953.768 672.515C953.768 699.394 948.132 722.154 936.86 740.796C925.588 759.438 909.765 773.672 889.389 783.499C869.013 793.325 845.097 798.239 817.639 798.239H205.927C178.76 798.239 154.915 792.748 134.395 781.765C113.874 770.782 97.978 755.825 86.7062 736.894C75.4344 717.964 69.7985 696.504 69.7985 672.515ZM140.03 488.264L234.54 250.689C242.633 230.168 255.35 214.706 272.691 204.301C290.032 193.897 310.986 188.694 335.553 188.694H688.014C712.58 188.694 733.534 193.897 750.875 204.301C768.217 214.706 780.934 230.168 789.026 250.689L883.536 488.264C873.42 484.507 862.871 481.689 851.888 479.81C840.905 477.931 829.489 476.992 817.639 476.992H205.927C194.077 476.992 182.661 477.931 171.678 479.81C160.695 481.689 150.146 484.507 140.03 488.264ZM762.581 672.515C762.581 687.833 768 700.622 778.838 710.882C789.677 721.142 802.466 726.273 817.206 726.273C831.657 726.273 844.229 721.07 854.923 710.666C865.616 700.261 870.964 687.544 870.964 672.515C870.964 658.064 865.616 645.491 854.923 634.798C844.229 624.104 831.657 618.757 817.206 618.757C802.466 618.757 789.677 624.104 778.838 634.798C768 645.491 762.581 658.064 762.581 672.515Z" fill="black" fill-opacity="0.896"/>
</svg>
