<svg width="896" height="959" viewBox="0 0 896 959" fill="none" xmlns="http://www.w3.org/2000/svg">
<g clip-path="url(#clip0_12_94)">
<path d="M128 959C110.333 959 93.75 955.667 78.25 949C62.75 942.333 49.167 933.167 37.5 921.5C25.8333 909.833 16.6667 896.25 10 880.75C3.3333 865.25 0 848.667 0 831V441.5C0 428.833 2.5 416.5 7.5 404.5C12.5 392.5 19.3333 382.167 28 373.5L369 33C379.667 22.3334 391.75 14.1667 405.25 8.5C418.75 2.83337 433 6e-05 448 0C463 6e-05 477.25 2.83337 490.75 8.5C504.25 14.1667 516.333 22.3334 527 33L868 373.5C876.667 382.167 883.5 392.5 888.5 404.5C893.5 416.5 896 428.833 896 441.5V831C896 848.667 892.667 865.25 886 880.75C879.333 896.25 870.167 909.833 858.5 921.5C846.833 933.167 833.25 942.333 817.75 949C802.25 955.667 785.667 959 768 959H576C567 959 558.583 957.333 550.75 954C542.917 950.667 536.167 946.167 530.5 940.5C524.833 934.833 520.333 928.083 517 920.25C513.667 912.417 512 904 512 895V639H384V895C384 904 382.333 912.333 379 920C375.667 927.667 371.083 934.417 365.25 940.25C359.417 946.083 352.667 950.667 345 954C337.333 957.333 329 959 320 959H128ZM320 895V639C320 630 321.667 621.667 325 614C328.333 606.333 332.917 599.583 338.75 593.75C344.583 587.917 351.333 583.333 359 580C366.667 576.667 375 575 384 575H512C520.667 575 528.917 576.667 536.75 580C544.583 583.333 551.417 587.917 557.25 593.75C563.083 599.583 567.667 606.417 571 614.25C574.333 622.083 576 630.333 576 639V895H768C777 895 785.333 893.333 793 890C800.667 886.667 807.417 882.083 813.25 876.25C819.083 870.417 823.667 863.667 827 856C830.333 848.333 832 840 832 831V441.5C832 432.833 828.833 425.333 822.5 419L482 78C472.667 68.6667 461.333 64 448 64C434.667 64 423.333 68.6667 414 78L73.5 419C67.167 425.333 64 432.833 64 441.5V831C64 840 65.667 848.417 69 856.25C72.333 864.083 76.833 870.833 82.5 876.5C88.167 882.167 94.917 886.667 102.75 890C110.583 893.333 119 895 128 895H320Z" fill="black" fill-opacity="0.8956"/>
</g>
<defs>
<clipPath id="clip0_12_94">
<rect width="896" height="959" fill="white"/>
</clipPath>
</defs>
</svg>
