<svg xmlns="http://www.w3.org/2000/svg" width="1025" height="1025" fill="none" viewBox="0 0 1025 1025">
  <g clip-path="url(#a)">
    <path fill="#000" fill-opacity=".896" d="M171.344 1024.5c-18.865 0-36.572-3.56-53.122-10.68-16.551-7.12-31.054-16.904-43.512-29.362-12.458-12.457-22.246-26.961-29.364-43.512-7.119-16.55-10.678-34.257-10.678-53.122v-415.9c0-13.525 2.67-26.694 8.008-39.507 5.34-12.814 12.636-23.847 21.89-33.102L428.678 35.737c11.39-11.39 24.292-20.11 38.707-26.16C481.8 3.524 497.016.5 513.033.5c16.017 0 31.232 3.025 45.647 9.076 14.416 6.05 27.317 14.771 38.707 26.16L961.5 399.316c9.255 9.255 16.551 20.288 21.89 33.102 5.338 12.813 8.008 25.982 8.008 39.507v415.9c0 18.865-3.559 36.572-10.678 53.122-7.119 16.551-16.906 31.055-29.364 43.512-12.458 12.458-26.961 22.242-43.512 29.362-16.55 7.12-34.257 10.68-53.122 10.68H649.709c-9.61 0-18.598-1.78-26.962-5.34-8.364-3.56-15.571-8.36-21.622-14.41-6.051-6.055-10.856-13.263-14.415-21.626-3.559-8.364-5.339-17.352-5.339-26.962V682.811H444.695v273.351c0 9.61-1.78 18.508-5.339 26.695-3.559 8.186-8.453 15.394-14.682 21.623-6.228 6.23-13.436 11.12-21.622 14.68-8.187 3.56-17.085 5.34-26.695 5.34H171.344Zm205.013-68.338V682.811c0-9.61 1.78-18.508 5.339-26.695 3.559-8.186 8.454-15.394 14.682-21.622 6.228-6.229 13.436-11.123 21.623-14.682 8.186-3.559 17.084-5.339 26.694-5.339h136.676c9.254 0 18.063 1.78 26.427 5.339s15.661 8.453 21.89 14.682c6.228 6.228 11.123 13.525 14.682 21.889 3.559 8.364 5.339 17.173 5.339 26.428v273.351h205.013c9.61 0 18.508-1.78 26.695-5.339 8.186-3.559 15.394-8.453 21.622-14.682 6.229-6.228 11.123-13.436 14.682-21.622 3.559-8.187 5.339-17.085 5.339-26.695v-415.9c0-9.254-3.382-17.262-10.144-24.025L549.337 83.787c-9.965-9.966-22.067-14.95-36.304-14.95-14.237 0-26.339 4.984-36.305 14.95L113.15 447.899c-6.763 6.763-10.144 14.771-10.144 24.025v415.9c0 9.61 1.78 18.598 5.339 26.962s8.364 15.571 14.415 21.622c6.051 6.051 13.258 10.856 21.622 14.415 8.364 3.559 17.352 5.339 26.962 5.339h205.013Z"/>
  </g>
  <defs>
    <clipPath id="a">
      <path fill="#fff" d="M.5.5h1024v1024H.5z"/>
    </clipPath>
  </defs>
</svg>
