<svg xmlns="http://www.w3.org/2000/svg" width="1024" height="1024" fill="none" viewBox="0 0 1024 1024">
  <path fill="#fff" d="M244 663c-34.667-8-66.917-21.75-96.75-41.25s-55.667-42.917-77.5-70.25-38.917-57.667-51.25-91C6.167 427.167 0 392.667 0 357c0-45 8.167-87.167 24.5-126.5S63.333 156.75 92 127.25 154.5 74.5 193.5 57.5 274.667 32 320 32c44.333 0 85.917 8.333 124.75 25s72.75 39.5 101.75 68.5 51.833 62.917 68.5 101.75 25 80.417 25 124.75h-64v-5c0-34.667-6.917-67.25-20.75-97.75s-32.5-57.083-56-79.75-50.667-40.583-81.5-53.75C386.917 102.583 354.333 96 320 96s-66.917 6.583-97.75 19.75-58 31.083-81.5 53.75-42.167 49.25-56 79.75C70.917 279.75 64 312.333 64 347v9c0 29.333 5.25 57.667 15.75 85s25 52.083 43.5 74.25 40.167 41 65 56.5S240 597.667 269 603l-25 60Zm44-247c-8.667 0-16.167-3.167-22.5-9.5-6.333-6.333-9.5-13.833-9.5-22.5V192c0-8.667 3.167-16.167 9.5-22.5 6.333-6.333 13.833-9.5 22.5-9.5s16.167 3.167 22.5 9.5c6.333 6.333 9.5 13.833 9.5 22.5v160h96c8.667 0 16.167 3.167 22.5 9.5 6.333 6.333 9.5 13.833 9.5 22.5s-3.167 16.167-9.5 22.5c-6.333 6.333-13.833 9.5-22.5 9.5H288Zm224 128v-96c0-8.667 3.167-16.167 9.5-22.5 6.333-6.333 13.833-9.5 22.5-9.5h192c0-2.667-.083-5.417-.25-8.25a148.76 148.76 0 0 1-.25-8.75c0-5.667.333-11.25 1-16.75s2.083-10.5 4.25-15 5.417-8.167 9.75-11S760.667 352 768 352s13.083 1.417 17.25 4.25 7.333 6.5 9.5 11 3.583 9.5 4.25 15c.667 5.5 1 11.083 1 16.75v17h192c8.67 0 16.17 3.167 22.5 9.5 6.33 6.333 9.5 13.833 9.5 22.5v96c0 8.667-3.17 16.167-9.5 22.5-6.33 6.333-13.83 9.5-22.5 9.5-8.667 0-16.167-3.167-22.5-9.5-6.333-6.333-9.5-13.833-9.5-22.5v-64H576v64c0 8.667-3.167 16.167-9.5 22.5-6.333 6.333-13.833 9.5-22.5 9.5s-16.167-3.167-22.5-9.5c-6.333-6.333-9.5-13.833-9.5-22.5Zm224 384c-8.667 0-16.167-3.167-22.5-9.5-6.333-6.333-9.5-13.833-9.5-22.5 0-7.333 1.417-13.083 4.25-17.25s6.5-7.333 11-9.5 9.5-3.583 15-4.25c5.5-.667 11.083-1 16.75-1h17V736H608c-8.667 0-16.167-3.167-22.5-9.5-6.333-6.333-9.5-13.833-9.5-22.5s3.167-16.167 9.5-22.5c6.333-6.333 13.833-9.5 22.5-9.5h160c0-6.333 1.833-12.333 5.5-18l30.5-46H672c-8.667 0-16.167-3.167-22.5-9.5-6.333-6.333-9.5-13.833-9.5-22.5s3.167-16.167 9.5-22.5c6.333-6.333 13.833-9.5 22.5-9.5h192c8.667 0 16.167 3.167 22.5 9.5 6.333 6.333 9.5 13.833 9.5 22.5 0 6.333-1.833 12.167-5.5 17.5l-52 78.5H992c8.67 0 16.17 3.167 22.5 9.5 6.33 6.333 9.5 13.833 9.5 22.5s-3.17 16.167-9.5 22.5c-6.33 6.333-13.83 9.5-22.5 9.5H832v128c0 9-1.667 17.333-5 25-3.333 7.667-7.917 14.417-13.75 20.25S800.667 919.667 793 923s-16 5-25 5h-32Zm-528 32c0-4 .667-7.833 2-11.5 4-11 8-21.833 12-32.5l24.5-63.5c4-11 8-21.833 12-32.5L354 564.5c2.333-6.333 6.25-11 11.75-14S377.333 546 384 546s12.75 1.5 18.25 4.5 9.417 7.667 11.75 14L509.5 820c4 10.667 8 21.5 12 32.5L546 916c4 10.667 8 21.5 12 32.5 1.333 3.667 2 7.5 2 11.5 0 9-3.083 16.583-9.25 22.75C544.583 988.917 537 992 528 992c-7 0-13.083-1.833-18.25-5.5s-9.083-8.833-11.75-15.5l-40-107H310l-40 107c-2.333 6.333-6.25 11.417-11.75 15.25S246.667 992 240 992c-9 0-16.583-3.083-22.75-9.25C211.083 976.583 208 969 208 960Zm176-293-50 133h100l-50-133Z"/>
</svg>
