<svg width="1024" height="960" viewBox="0 0 1024 960" fill="none" xmlns="http://www.w3.org/2000/svg">
<g clip-path="url(#clip0_12_56)">
<path d="M244 631C209.333 623 177.083 609.25 147.25 589.75C117.417 570.25 91.5833 546.833 69.75 519.5C47.9167 492.167 30.8333 461.833 18.5 428.5C6.16667 395.167 0 360.667 0 325C0 280 8.16667 237.833 24.5 198.5C40.8333 159.167 63.3333 124.75 92 95.25C120.667 65.75 154.5 42.5 193.5 25.5C232.5 8.5 274.667 0 320 0C364.333 0 405.917 8.33337 444.75 25C483.583 41.6667 517.5 64.5 546.5 93.5C575.5 122.5 598.333 156.417 615 195.25C631.667 234.083 640 275.667 640 320H576V315C576 280.333 569.083 247.75 555.25 217.25C541.417 186.75 522.75 160.167 499.25 137.5C475.75 114.833 448.583 96.9167 417.75 83.75C386.917 70.5834 354.333 64.0001 320 64C285.667 64.0001 253.083 70.5834 222.25 83.75C191.417 96.9167 164.25 114.833 140.75 137.5C117.25 160.167 98.5833 186.75 84.75 217.25C70.9167 247.75 64 280.333 64 315V324C64 353.333 69.25 381.667 79.75 409C90.25 436.333 104.75 461.083 123.25 483.25C141.75 505.417 163.417 524.25 188.25 539.75C213.083 555.25 240 565.667 269 571L244 631ZM288 384C279.333 384 271.833 380.833 265.5 374.5C259.167 368.167 256 360.667 256 352V160C256 151.333 259.167 143.833 265.5 137.5C271.833 131.167 279.333 128 288 128C296.667 128 304.167 131.167 310.5 137.5C316.833 143.833 320 151.333 320 160V320H416C424.667 320 432.167 323.167 438.5 329.5C444.833 335.833 448 343.333 448 352C448 360.667 444.833 368.167 438.5 374.5C432.167 380.833 424.667 384 416 384H288ZM512 512V416C512 407.333 515.167 399.833 521.5 393.5C527.833 387.167 535.333 384 544 384H736C736 381.333 735.917 378.583 735.75 375.75C735.583 372.917 735.5 370 735.5 367C735.5 361.333 735.833 355.75 736.5 350.25C737.167 344.75 738.583 339.75 740.75 335.25C742.917 330.75 746.167 327.083 750.5 324.25C754.833 321.417 760.667 320 768 320C775.333 320 781.083 321.417 785.25 324.25C789.417 327.083 792.583 330.75 794.75 335.25C796.917 339.75 798.333 344.75 799 350.25C799.667 355.75 800 361.333 800 367V384H992C1000.67 384 1008.17 387.167 1014.5 393.5C1020.83 399.833 1024 407.333 1024 416V512C1024 520.667 1020.83 528.167 1014.5 534.5C1008.17 540.833 1000.67 544 992 544C983.333 544 975.833 540.833 969.5 534.5C963.167 528.167 960 520.667 960 512V448H576V512C576 520.667 572.833 528.167 566.5 534.5C560.167 540.833 552.667 544 544 544C535.333 544 527.833 540.833 521.5 534.5C515.167 528.167 512 520.667 512 512ZM736 896C727.333 896 719.833 892.833 713.5 886.5C707.167 880.167 704 872.667 704 864C704 856.667 705.417 850.917 708.25 846.75C711.083 842.583 714.75 839.417 719.25 837.25C723.75 835.083 728.75 833.667 734.25 833C739.75 832.333 745.333 832 751 832H768V704H608C599.333 704 591.833 700.833 585.5 694.5C579.167 688.167 576 680.667 576 672C576 663.333 579.167 655.833 585.5 649.5C591.833 643.167 599.333 640 608 640H768C768 633.667 769.833 627.667 773.5 622L804 576H672C663.333 576 655.833 572.833 649.5 566.5C643.167 560.167 640 552.667 640 544C640 535.333 643.167 527.833 649.5 521.5C655.833 515.167 663.333 512 672 512H864C872.667 512 880.167 515.167 886.5 521.5C892.833 527.833 896 535.333 896 544C896 550.333 894.167 556.167 890.5 561.5L838.5 640H992C1000.67 640 1008.17 643.167 1014.5 649.5C1020.83 655.833 1024 663.333 1024 672C1024 680.667 1020.83 688.167 1014.5 694.5C1008.17 700.833 1000.67 704 992 704H832V832C832 841 830.333 849.333 827 857C823.667 864.667 819.083 871.417 813.25 877.25C807.417 883.083 800.667 887.667 793 891C785.333 894.333 777 896 768 896H736ZM208 928C208 924 208.667 920.167 210 916.5C214 905.5 218 894.667 222 884L246.5 820.5C250.5 809.5 254.5 798.667 258.5 788L354 532.5C356.333 526.167 360.25 521.5 365.75 518.5C371.25 515.5 377.333 514 384 514C390.667 514 396.75 515.5 402.25 518.5C407.75 521.5 411.667 526.167 414 532.5L509.5 788C513.5 798.667 517.5 809.5 521.5 820.5L546 884C550 894.667 554 905.5 558 916.5C559.333 920.167 560 924 560 928C560 937 556.917 944.583 550.75 950.75C544.583 956.917 537 960 528 960C521 960 514.917 958.167 509.75 954.5C504.583 950.833 500.667 945.667 498 939L458 832H310L270 939C267.667 945.333 263.75 950.417 258.25 954.25C252.75 958.083 246.667 960 240 960C231 960 223.417 956.917 217.25 950.75C211.083 944.583 208 937 208 928ZM384 635L334 768H434L384 635Z" fill="black" fill-opacity="0.8956"/>
</g>
<defs>
<clipPath id="clip0_12_56">
<rect width="1024" height="960" fill="white"/>
</clipPath>
</defs>
</svg>
