<svg xmlns="http://www.w3.org/2000/svg" width="1025" height="1025" fill="none" viewBox="0 0 1025 1025">
  <g clip-path="url(#a)">
    <path fill="#000" fill-opacity=".896" d="M244.5 663.5c-34.667-8-66.917-21.75-96.75-41.25S92.083 579.333 70.25 552 31.333 494.333 19 461C6.667 427.667.5 393.167.5 357.5c0-45 8.167-87.167 24.5-126.5s38.833-73.75 67.5-103.25S155 75 194 58s81.167-25.5 126.5-25.5c44.333 0 85.917 8.333 124.75 25S518 97 547 126s51.833 62.917 68.5 101.75 25 80.417 25 124.75h-64v-5c0-34.667-6.917-67.25-20.75-97.75s-32.5-57.083-56-79.75-50.667-40.583-81.5-53.75c-30.833-13.167-63.417-19.75-97.75-19.75s-66.917 6.583-97.75 19.75-58 31.083-81.5 53.75-42.167 49.25-56 79.75c-13.833 30.5-20.75 63.083-20.75 97.75v9c0 29.333 5.25 57.667 15.75 85s25 52.083 43.5 74.25 40.167 41 65 56.5 51.75 25.917 80.75 31.25l-25 60Zm44-247c-8.667 0-16.167-3.167-22.5-9.5-6.333-6.333-9.5-13.833-9.5-22.5v-192c0-8.667 3.167-16.167 9.5-22.5 6.333-6.333 13.833-9.5 22.5-9.5s16.167 3.167 22.5 9.5c6.333 6.333 9.5 13.833 9.5 22.5v160h96c8.667 0 16.167 3.167 22.5 9.5 6.333 6.333 9.5 13.833 9.5 22.5s-3.167 16.167-9.5 22.5c-6.333 6.333-13.833 9.5-22.5 9.5h-128Zm224 128v-96c0-8.667 3.167-16.167 9.5-22.5 6.333-6.333 13.833-9.5 22.5-9.5h192c0-2.667-.083-5.417-.25-8.25a148.76 148.76 0 0 1-.25-8.75c0-5.667.333-11.25 1-16.75s2.083-10.5 4.25-15 5.417-8.167 9.75-11 10.167-4.25 17.5-4.25 13.083 1.417 17.25 4.25 7.333 6.5 9.5 11 3.583 9.5 4.25 15c.667 5.5 1 11.083 1 16.75v17h192c8.67 0 16.17 3.167 22.5 9.5 6.33 6.333 9.5 13.833 9.5 22.5v96c0 8.667-3.17 16.167-9.5 22.5-6.33 6.333-13.83 9.5-22.5 9.5-8.667 0-16.167-3.167-22.5-9.5-6.333-6.333-9.5-13.833-9.5-22.5v-64h-384v64c0 8.667-3.167 16.167-9.5 22.5-6.333 6.333-13.833 9.5-22.5 9.5s-16.167-3.167-22.5-9.5c-6.333-6.333-9.5-13.833-9.5-22.5Zm224 384c-8.667 0-16.167-3.167-22.5-9.5-6.333-6.333-9.5-13.833-9.5-22.5 0-7.333 1.417-13.083 4.25-17.25s6.5-7.333 11-9.5 9.5-3.583 15-4.25c5.5-.667 11.083-1 16.75-1h17v-128h-160c-8.667 0-16.167-3.167-22.5-9.5-6.333-6.333-9.5-13.833-9.5-22.5s3.167-16.167 9.5-22.5c6.333-6.333 13.833-9.5 22.5-9.5h160c0-6.333 1.833-12.333 5.5-18l30.5-46h-132c-8.667 0-16.167-3.167-22.5-9.5-6.333-6.333-9.5-13.833-9.5-22.5s3.167-16.167 9.5-22.5c6.333-6.333 13.833-9.5 22.5-9.5h192c8.667 0 16.167 3.167 22.5 9.5 6.333 6.333 9.5 13.833 9.5 22.5 0 6.333-1.833 12.167-5.5 17.5l-52 78.5h153.5c8.67 0 16.17 3.167 22.5 9.5 6.33 6.333 9.5 13.833 9.5 22.5s-3.17 16.167-9.5 22.5c-6.33 6.333-13.83 9.5-22.5 9.5h-160v128c0 9-1.667 17.333-5 25-3.333 7.667-7.917 14.417-13.75 20.25s-12.583 10.417-20.25 13.75-16 5-25 5h-32Zm-528 32c0-4 .667-7.833 2-11.5 4-11 8-21.833 12-32.5L247 853c4-11 8-21.833 12-32.5L354.5 565c2.333-6.333 6.25-11 11.75-14s11.583-4.5 18.25-4.5 12.75 1.5 18.25 4.5 9.417 7.667 11.75 14L510 820.5c4 10.667 8 21.5 12 32.5l24.5 63.5c4 10.667 8 21.5 12 32.5 1.333 3.667 2 7.5 2 11.5 0 9-3.083 16.583-9.25 22.75-6.167 6.167-13.75 9.25-22.75 9.25-7 0-13.083-1.833-18.25-5.5s-9.083-8.833-11.75-15.5l-40-107h-148l-40 107c-2.333 6.333-6.25 11.417-11.75 15.25s-11.583 5.75-18.25 5.75c-9 0-16.583-3.083-22.75-9.25-6.167-6.167-9.25-13.75-9.25-22.75Zm176-293-50 133h100l-50-133Z"/>
  </g>
  <defs>
    <clipPath id="a">
      <path fill="#fff" d="M.5.5h1024v1024H.5z"/>
    </clipPath>
  </defs>
</svg>
