<!-- Exported by Character Map UWP -->
<svg height="100%" viewBox="0 192 1024 704" width="100%" xmlns="http://www.w3.org/2000/svg" xmlns:xlink="http://www.w3.org/1999/xlink">
  <path d="M189.5,768C172.833,768 156.917,764.583 141.75,757.75C126.583,750.917 113.25,741.75 101.75,730.25C90.25,718.75 81.0833,705.417 74.25,690.25C67.4167,675.083 64,659.167 64,642.5L64,317.5C64,300.833 67.4167,284.917 74.25,269.75C81.0833,254.583 90.25,241.25 101.75,229.75C113.25,218.25 126.583,209.083 141.75,202.25C156.917,195.417 172.833,192 189.5,192L834.5,192C851.167,192 867.083,195.417 882.25,202.25C897.417,209.083 910.75,218.25 922.25,229.75C933.75,241.25 942.917,254.583 949.75,269.75C956.583,284.917 960,300.833 960,317.5L960,642.5C960,659.167 956.583,675.083 949.75,690.25C942.917,705.417 933.75,718.75 922.25,730.25C910.75,741.75 897.417,750.917 882.25,757.75C867.083,764.583 851.167,768 834.5,768ZM832,704C841,704 849.333,702.333 857,699C864.667,695.667 871.417,691.083 877.25,685.25C883.083,679.417 887.667,672.667 891,665C894.333,657.333 896,649 896,640L896,320C896,311.333 894.333,303.083 891,295.25C887.667,287.417 883.083,280.583 877.25,274.75C871.417,268.917 864.583,264.333 856.75,261C848.917,257.667 840.667,256 832,256L192,256C183,256 174.667,257.667 167,261C159.333,264.333 152.583,268.917 146.75,274.75C140.917,280.583 136.333,287.333 133,295C129.667,302.667 128,311 128,320L128,640C128,649 129.667,657.417 133,665.25C136.333,673.083 140.833,679.833 146.5,685.5C152.167,691.167 158.917,695.667 166.75,699C174.583,702.333 183,704 192,704ZM32,896C23.3333,896 15.8333,892.833 9.5,886.5C3.16667,880.167 0,872.667 0,864C0,855.333 3.16667,847.833 9.5,841.5C15.8333,835.167 23.3333,832 32,832L992,832C1000.67,832 1008.17,835.167 1014.5,841.5C1020.83,847.833 1024,855.333 1024,864C1024,872.667 1020.83,880.167 1014.5,886.5C1008.17,892.833 1000.67,896 992,896Z" fill="#000000" fill-opacity="1">
  </path>
</svg>