<svg width="1024" height="704" viewBox="0 0 1024 704" fill="none" xmlns="http://www.w3.org/2000/svg">
<g clip-path="url(#clip0_12_76)">
<path d="M189.5 576C172.833 576 156.917 572.583 141.75 565.75C126.583 558.917 113.25 549.75 101.75 538.25C90.25 526.75 81.0833 513.417 74.25 498.25C67.4167 483.083 64 467.167 64 450.5V125.5C64 108.833 67.4167 92.917 74.25 77.75C81.0833 62.583 90.25 49.25 101.75 37.75C113.25 26.25 126.583 17.083 141.75 10.25C156.917 3.417 172.833 0 189.5 0H834.5C851.167 0 867.083 3.417 882.25 10.25C897.417 17.083 910.75 26.25 922.25 37.75C933.75 49.25 942.917 62.583 949.75 77.75C956.583 92.917 960 108.833 960 125.5V450.5C960 467.167 956.583 483.083 949.75 498.25C942.917 513.417 933.75 526.75 922.25 538.25C910.75 549.75 897.417 558.917 882.25 565.75C867.083 572.583 851.167 576 834.5 576H189.5ZM832 512C841 512 849.333 510.333 857 507C864.667 503.667 871.417 499.083 877.25 493.25C883.083 487.417 887.667 480.667 891 473C894.333 465.333 896 457 896 448V128C896 119.333 894.333 111.083 891 103.25C887.667 95.417 883.083 88.583 877.25 82.75C871.417 76.917 864.583 72.333 856.75 69C848.917 65.667 840.667 64 832 64H192C183 64 174.667 65.667 167 69C159.333 72.333 152.583 76.917 146.75 82.75C140.917 88.583 136.333 95.333 133 103C129.667 110.667 128 119 128 128V448C128 457 129.667 465.417 133 473.25C136.333 481.083 140.833 487.833 146.5 493.5C152.167 499.167 158.917 503.667 166.75 507C174.583 510.333 183 512 192 512H832ZM32 704C23.3333 704 15.8333 700.833 9.5 694.5C3.16667 688.167 0 680.667 0 672C0 663.333 3.16667 655.833 9.5 649.5C15.8333 643.167 23.3333 640 32 640H992C1000.67 640 1008.17 643.167 1014.5 649.5C1020.83 655.833 1024 663.333 1024 672C1024 680.667 1020.83 688.167 1014.5 694.5C1008.17 700.833 1000.67 704 992 704H32Z" fill="black" fill-opacity="0.8956"/>
</g>
<defs>
<clipPath id="clip0_12_76">
<rect width="1024" height="704" fill="white"/>
</clipPath>
</defs>
</svg>
