<svg xmlns="http://www.w3.org/2000/svg" width="1025" height="1025" fill="none" viewBox="0 0 1025 1025">
  <g clip-path="url(#a)">
    <path fill="#000" fill-opacity=".896" d="M89.763 921.998c-12.37 0-23.987-2.336-34.852-7.008-10.865-4.673-20.393-11.097-28.584-19.274-8.19-8.177-14.626-17.689-19.306-28.535C2.34 856.335 0 844.737 0 832.389V191.607c0-12.348 2.34-23.946 7.02-34.792 4.681-10.846 11.116-20.358 19.307-28.535 8.19-8.177 17.719-14.601 28.584-19.273 10.865-4.673 22.482-7.009 34.852-7.009h77.226c12.369 0 23.987 2.336 34.852 7.009 10.865 4.672 20.393 11.096 28.584 19.273 8.191 8.177 14.626 17.689 19.307 28.535 4.68 10.846 7.02 22.444 7.02 34.792v640.782c0 12.348-2.34 23.946-7.02 34.792-4.681 10.846-11.116 20.358-19.307 28.535-8.191 8.177-17.719 14.601-28.584 19.274-10.865 4.672-22.483 7.008-34.852 7.008H89.763Zm308.403 0c-12.369 0-23.987-2.336-34.852-7.008-10.864-4.673-20.392-11.097-28.583-19.274-8.191-8.177-14.71-17.689-19.558-28.535-4.847-10.846-7.271-22.444-7.271-34.792V191.607c0-12.348 2.424-23.946 7.271-34.792 4.848-10.846 11.367-20.358 19.558-28.535 8.191-8.177 17.719-14.601 28.583-19.273 10.865-4.673 22.483-7.009 34.852-7.009h76.725c12.37 0 23.988 2.336 34.852 7.009 10.865 4.672 20.393 11.096 28.584 19.273 8.191 8.177 14.626 17.689 19.307 28.535 4.68 10.846 7.02 22.444 7.02 34.792v640.782c0 12.348-2.34 23.946-7.02 34.792-4.681 10.846-11.116 20.358-19.307 28.535-8.191 8.177-17.719 14.601-28.584 19.274-10.864 4.672-22.482 7.008-34.852 7.008h-76.725Zm221.148-656.801c0-10.012 1.588-19.524 4.764-28.535a94.812 94.812 0 0 1 13.289-25.03 87.8 87.8 0 0 1 20.31-19.774c7.856-5.507 16.631-9.762 26.327-12.766l76.223-22.527c8.024-2.336 16.381-3.505 25.074-3.505 10.029 0 19.724 1.669 29.085 5.006 9.36 3.337 17.97 7.927 25.826 13.767 7.856 5.84 14.542 12.849 20.058 21.026s9.611 17.271 12.286 27.283l148.434 567.192c2.01 7.676 3.01 15.352 3.01 23.028 0 10.012-1.58 19.524-4.76 28.535-3.18 9.011-7.61 17.271-13.29 24.78-5.69 7.509-12.54 14.017-20.563 19.524-8.024 5.506-16.716 9.762-26.077 12.765l-75.721 22.528c-8.024 2.336-16.549 3.504-25.575 3.504-21.062 0-39.449-6.174-55.162-18.523-15.713-12.348-26.244-28.534-31.592-48.559L622.323 287.725a85.096 85.096 0 0 1-3.009-22.528ZM166.989 845.405c3.678 0 6.687-1.252 9.027-3.755 2.34-2.503 3.51-5.59 3.51-9.261V191.607c0-3.671-1.17-6.758-3.51-9.261-2.34-2.503-5.349-3.755-9.027-3.755H89.763c-3.678 0-6.686 1.252-9.026 3.755s-3.51 5.59-3.51 9.261v640.782c0 3.671 1.17 6.758 3.51 9.261 2.34 2.503 5.349 3.755 9.026 3.755h77.226Zm307.902 0c3.678 0 6.77-1.252 9.277-3.755 2.508-2.503 3.761-5.59 3.761-9.261V191.607c0-3.671-1.253-6.758-3.761-9.261-2.507-2.503-5.599-3.755-9.277-3.755h-76.725c-3.677 0-6.769 1.252-9.277 3.755-2.507 2.503-3.761 5.59-3.761 9.261v640.782c0 3.337 1.337 6.341 4.012 9.011 2.675 2.67 5.684 4.005 9.026 4.005h76.725Zm471.883-35.043c0-1.669-.168-2.837-.502-3.504L797.837 239.666a41.725 41.725 0 0 0-2.256-4.756c-.836-1.502-2.089-2.586-3.761-3.254-.669-.333-1.755-.668-3.26-1.001-1.504-.333-2.59-.501-3.259-.501-2.34 0-7.188 1.002-14.543 3.004-7.354 2.002-15.378 4.338-24.07 7.009a2896.627 2896.627 0 0 1-24.823 7.509c-7.856 2.336-13.289 4.005-16.298 5.006-2.675.668-4.847 2.169-6.519 4.505-1.672 2.336-2.507 4.839-2.507 7.509 0 1.002 2.006 9.429 6.017 25.281 4.012 15.853 9.277 36.378 15.797 61.575 6.519 25.198 13.957 53.899 22.315 86.105 8.357 32.207 17.05 65.33 26.076 99.372a32469.262 32469.262 0 0 1 26.578 100.873c8.693 33.207 16.716 63.494 24.071 90.86 7.354 27.367 13.539 50.645 18.554 69.836 5.015 19.19 8.191 31.455 9.528 36.794 1.672 6.341 5.85 9.512 12.537 9.512 1.672 0 6.268-1.001 13.79-3.004 7.522-2.002 15.713-4.338 24.572-7.008s17.301-5.257 25.324-7.76c8.024-2.503 13.372-4.088 16.047-4.755 2.675-.668 4.847-2.17 6.519-4.506 1.672-2.336 2.508-4.839 2.508-7.509Z"/>
  </g>
  <defs>
    <clipPath id="a">
      <path fill="#fff" d="M.5.5h1024v1024H.5z"/>
    </clipPath>
  </defs>
</svg>
