<svg width="1021" height="819" viewBox="0 0 1021 819" fill="none" xmlns="http://www.w3.org/2000/svg">
<g clip-path="url(#clip0_12_84)">
<path d="M89.5 818.5C77.1667 818.5 65.5833 816.167 54.75 811.5C43.9167 806.833 34.4167 800.417 26.25 792.25C18.0833 784.083 11.6667 774.583 7 763.75C2.33333 752.917 0 741.333 0 729V89C0 76.667 2.33333 65.083 7 54.25C11.6667 43.417 18.0833 33.917 26.25 25.75C34.4167 17.583 43.9167 11.167 54.75 6.5C65.5833 1.833 77.1667 -0.5 89.5 -0.5H166.5C178.833 -0.5 190.417 1.833 201.25 6.5C212.083 11.167 221.583 17.583 229.75 25.75C237.917 33.917 244.333 43.417 249 54.25C253.667 65.083 256 76.667 256 89V729C256 741.333 253.667 752.917 249 763.75C244.333 774.583 237.917 784.083 229.75 792.25C221.583 800.417 212.083 806.833 201.25 811.5C190.417 816.167 178.833 818.5 166.5 818.5H89.5ZM397 818.5C384.667 818.5 373.083 816.167 362.25 811.5C351.417 806.833 341.917 800.417 333.75 792.25C325.583 784.083 319.083 774.583 314.25 763.75C309.417 752.917 307 741.333 307 729V89C307 76.667 309.417 65.083 314.25 54.25C319.083 43.417 325.583 33.917 333.75 25.75C341.917 17.583 351.417 11.167 362.25 6.5C373.083 1.833 384.667 -0.5 397 -0.5H473.5C485.833 -0.5 497.417 1.833 508.25 6.5C519.083 11.167 528.583 17.583 536.75 25.75C544.917 33.917 551.333 43.417 556 54.25C560.667 65.083 563 76.667 563 89V729C563 741.333 560.667 752.917 556 763.75C551.333 774.583 544.917 784.083 536.75 792.25C528.583 800.417 519.083 806.833 508.25 811.5C497.417 816.167 485.833 818.5 473.5 818.5H397ZM617.5 162.5C617.5 152.5 619.083 143 622.25 134C625.417 125 629.833 116.667 635.5 109C641.167 101.333 647.917 94.75 655.75 89.25C663.583 83.75 672.333 79.5 682 76.5L758 54C766 51.667 774.333 50.5 783 50.5C793 50.5 802.667 52.167 812 55.5C821.333 58.833 829.917 63.417 837.75 69.25C845.583 75.083 852.25 82.083 857.75 90.25C863.25 98.417 867.333 107.5 870 117.5L1018 684C1020 691.667 1021 699.333 1021 707C1021 717 1019.42 726.5 1016.25 735.5C1013.08 744.5 1008.67 752.75 1003 760.25C997.333 767.75 990.5 774.25 982.5 779.75C974.5 785.25 965.833 789.5 956.5 792.5L881 815C873 817.333 864.5 818.5 855.5 818.5C834.5 818.5 816.167 812.333 800.5 800C784.833 787.667 774.333 771.5 769 751.5L620.5 185C618.5 177.667 617.5 170.167 617.5 162.5ZM166.5 742C170.167 742 173.167 740.75 175.5 738.25C177.833 735.75 179 732.667 179 729V89C179 85.333 177.833 82.25 175.5 79.75C173.167 77.25 170.167 76 166.5 76H89.5C85.8333 76 82.8333 77.25 80.5 79.75C78.1667 82.25 77 85.333 77 89V729C77 732.667 78.1667 735.75 80.5 738.25C82.8333 740.75 85.8333 742 89.5 742H166.5ZM473.5 742C477.167 742 480.25 740.75 482.75 738.25C485.25 735.75 486.5 732.667 486.5 729V89C486.5 85.333 485.25 82.25 482.75 79.75C480.25 77.25 477.167 76 473.5 76H397C393.333 76 390.25 77.25 387.75 79.75C385.25 82.25 384 85.333 384 89V729C384 732.333 385.333 735.333 388 738C390.667 740.667 393.667 742 397 742H473.5ZM944 707C944 705.333 943.833 704.167 943.5 703.5L795.5 137C794.833 135.333 794.083 133.75 793.25 132.25C792.417 130.75 791.167 129.667 789.5 129C788.833 128.667 787.75 128.333 786.25 128C784.75 127.667 783.667 127.5 783 127.5C780.667 127.5 775.833 128.5 768.5 130.5C761.167 132.5 753.167 134.833 744.5 137.5C735.833 140.167 727.583 142.667 719.75 145C711.917 147.333 706.5 149 703.5 150C700.833 150.667 698.667 152.167 697 154.5C695.333 156.833 694.5 159.333 694.5 162C694.5 163 696.5 171.417 700.5 187.25C704.5 203.083 709.75 223.583 716.25 248.75C722.75 273.917 730.167 302.583 738.5 334.75C746.833 366.917 755.5 400 764.5 434C773.5 468 782.333 501.583 791 534.75C799.667 567.917 807.667 598.167 815 625.5C822.333 652.833 828.5 676.083 833.5 695.25C838.5 714.417 841.667 726.667 843 732C844.667 738.333 848.833 741.5 855.5 741.5C857.167 741.5 861.75 740.5 869.25 738.5C876.75 736.5 884.917 734.167 893.75 731.5C902.583 728.833 911 726.25 919 723.75C927 721.25 932.333 719.667 935 719C937.667 718.333 939.833 716.833 941.5 714.5C943.167 712.167 944 709.667 944 707Z" fill="black" fill-opacity="0.8956"/>
</g>
<defs>
<clipPath id="clip0_12_84">
<rect width="1021" height="819" fill="white"/>
</clipPath>
</defs>
</svg>
