<svg xmlns="http://www.w3.org/2000/svg" width="1025" height="1025" fill="none" viewBox="0 0 1025 1025">
  <g clip-path="url(#a)">
    <path fill="#000" fill-opacity=".896" d="M96.5 1024.5c-13 0-25.333-2.5-37-7.5-11.667-5-21.917-11.92-30.75-20.75C19.917 987.417 13 977.167 8 965.5c-5-11.667-7.5-24-7.5-37v-832c0-13 2.5-25.333 7.5-37 5-11.667 11.917-21.917 20.75-30.75C37.583 19.917 47.833 13 59.5 8c11.667-5 24-7.5 37-7.5h64c13 0 25.333 2.5 37 7.5 11.667 5 21.917 11.917 30.75 20.75C237.083 37.583 244 47.833 249 59.5c5 11.667 7.5 24 7.5 37v832c0 13-2.5 25.333-7.5 37-5 11.667-11.917 21.917-20.75 30.75-8.833 8.83-19.083 15.75-30.75 20.75-11.667 5-24 7.5-37 7.5h-64Zm320 0c-13 0-25.333-2.5-37-7.5-11.667-5-21.917-11.92-30.75-20.75-8.833-8.833-15.75-19.083-20.75-30.75-5-11.667-7.5-24-7.5-37v-832c0-13 2.5-25.333 7.5-37 5-11.667 11.917-21.917 20.75-30.75C357.583 19.917 367.833 13 379.5 8c11.667-5 24-7.5 37-7.5h64c13 0 25.333 2.5 37 7.5 11.667 5 21.917 11.917 30.75 20.75C557.083 37.583 564 47.833 569 59.5c5 11.667 7.5 24 7.5 37v832c0 13-2.5 25.333-7.5 37-5 11.667-11.917 21.917-20.75 30.75-8.833 8.83-19.083 15.75-30.75 20.75-11.667 5-24 7.5-37 7.5h-64Zm-256-64c8.667 0 16.167-3.167 22.5-9.5 6.333-6.333 9.5-13.833 9.5-22.5v-832c0-8.667-3.167-16.167-9.5-22.5-6.333-6.333-13.833-9.5-22.5-9.5h-64c-8.667 0-16.167 3.167-22.5 9.5-6.333 6.333-9.5 13.833-9.5 22.5v832c0 8.667 3.167 16.167 9.5 22.5 6.333 6.333 13.833 9.5 22.5 9.5h64Zm320 0c8.667 0 16.167-3.167 22.5-9.5 6.333-6.333 9.5-13.833 9.5-22.5v-832c0-8.667-3.167-16.167-9.5-22.5-6.333-6.333-13.833-9.5-22.5-9.5h-64c-8.667 0-16.167 3.167-22.5 9.5-6.333 6.333-9.5 13.833-9.5 22.5v832c0 8.667 3.167 16.167 9.5 22.5 6.333 6.333 13.833 9.5 22.5 9.5h64ZM641 302c0-22 6.417-41.333 19.25-58S690 215.833 711 209.5c12-3.667 24.333-7.5 37-11.5 12.667-4 25.333-6 38-6 11 0 21.583 1.917 31.75 5.75 10.167 3.833 19.333 9.083 27.5 15.75 8.167 6.667 15.167 14.583 21 23.75S876.333 256.333 879 267l143 622.5c1.67 7.667 2.5 14.833 2.5 21.5 0 22.333-6.58 41.917-19.75 58.75C991.583 986.583 974.333 998 953 1004c-14 4-28.417 8.33-43.25 13-14.833 4.67-29.75 7-44.75 7-11.333 0-22.167-1.92-32.5-5.75-10.333-3.83-19.667-9.08-28-15.75-8.333-6.667-15.417-14.75-21.25-24.25S773.333 958.5 771 947.5L643 321c-1.333-5.667-2-12-2-19Zm319.5 609.5c0-1.667-.333-4.167-1-7.5l-143-623c-1.667-7-5.417-12.833-11.25-17.5s-12.417-7-19.75-7c-8.667 0-18.25 1.75-28.75 5.25S736.667 268.333 728 271c-6.667 2-12.167 5.917-16.5 11.75S705 295 705 302v3.25c0 1.167.167 2.25.5 3.25l128 626c1.667 7.667 5.417 13.833 11.25 18.5s12.583 7 20.25 7c4 0 9.167-.667 15.5-2s12.917-3 19.75-5 13.5-4 20-6l16.25-5c6.667-2 12.333-5.75 17-11.25s7-11.917 7-19.25Z"/>
  </g>
  <defs>
    <clipPath id="a">
      <path fill="#fff" d="M.5.5h1024v1024H.5z"/>
    </clipPath>
  </defs>
</svg>
