<!-- Exported by Character Map UWP -->
<svg height="100%" viewBox="0 103 1021 819" width="100%" xmlns="http://www.w3.org/2000/svg" xmlns:xlink="http://www.w3.org/1999/xlink">
  <path d="M89.5,921.5C77.1667,921.5 65.5833,919.167 54.75,914.5C43.9167,909.833 34.4167,903.417 26.25,895.25C18.0833,887.083 11.6667,877.583 7,866.75C2.33333,855.917 0,844.333 0,832L0,192C0,179.667 2.33333,168.083 7,157.25C11.6667,146.417 18.0833,136.917 26.25,128.75C34.4167,120.583 43.9167,114.167 54.75,109.5C65.5833,104.833 77.1667,102.5 89.5,102.5L166.5,102.5C178.833,102.5 190.417,104.833 201.25,109.5C212.083,114.167 221.583,120.583 229.75,128.75C237.917,136.917 244.333,146.417 249,157.25C253.667,168.083 256,179.667 256,192L256,832C256,844.333 253.667,855.917 249,866.75C244.333,877.583 237.917,887.083 229.75,895.25C221.583,903.417 212.083,909.833 201.25,914.5C190.417,919.167 178.833,921.5 166.5,921.5ZM397,921.5C384.667,921.5 373.083,919.167 362.25,914.5C351.417,909.833 341.917,903.417 333.75,895.25C325.583,887.083 319.083,877.583 314.25,866.75C309.417,855.917 307,844.333 307,832L307,192C307,179.667 309.417,168.083 314.25,157.25C319.083,146.417 325.583,136.917 333.75,128.75C341.917,120.583 351.417,114.167 362.25,109.5C373.083,104.833 384.667,102.5 397,102.5L473.5,102.5C485.833,102.5 497.417,104.833 508.25,109.5C519.083,114.167 528.583,120.583 536.75,128.75C544.917,136.917 551.333,146.417 556,157.25C560.667,168.083 563,179.667 563,192L563,832C563,844.333 560.667,855.917 556,866.75C551.333,877.583 544.917,887.083 536.75,895.25C528.583,903.417 519.083,909.833 508.25,914.5C497.417,919.167 485.833,921.5 473.5,921.5ZM617.5,265.5C617.5,255.5 619.083,246 622.25,237C625.417,228 629.833,219.667 635.5,212C641.167,204.333 647.917,197.75 655.75,192.25C663.583,186.75 672.333,182.5 682,179.5L758,157C766,154.667 774.333,153.5 783,153.5C793,153.5 802.667,155.167 812,158.5C821.333,161.833 829.917,166.417 837.75,172.25C845.583,178.083 852.25,185.083 857.75,193.25C863.25,201.417 867.333,210.5 870,220.5L1018,787C1020,794.667 1021,802.333 1021,810C1021,820 1019.42,829.5 1016.25,838.5C1013.08,847.5 1008.67,855.75 1003,863.25C997.333,870.75 990.5,877.25 982.5,882.75C974.5,888.25 965.833,892.5 956.5,895.5L881,918C873,920.333 864.5,921.5 855.5,921.5C834.5,921.5 816.167,915.333 800.5,903C784.833,890.667 774.333,874.5 769,854.5L620.5,288C618.5,280.667 617.5,273.167 617.5,265.5ZM166.5,845C170.167,845 173.167,843.75 175.5,841.25C177.833,838.75 179,835.667 179,832L179,192C179,188.333 177.833,185.25 175.5,182.75C173.167,180.25 170.167,179 166.5,179L89.5,179C85.8333,179 82.8333,180.25 80.5,182.75C78.1667,185.25 77,188.333 77,192L77,832C77,835.667 78.1667,838.75 80.5,841.25C82.8333,843.75 85.8333,845 89.5,845ZM473.5,845C477.167,845 480.25,843.75 482.75,841.25C485.25,838.75 486.5,835.667 486.5,832L486.5,192C486.5,188.333 485.25,185.25 482.75,182.75C480.25,180.25 477.167,179 473.5,179L397,179C393.333,179 390.25,180.25 387.75,182.75C385.25,185.25 384,188.333 384,192L384,832C384,835.333 385.333,838.333 388,841C390.667,843.667 393.667,845 397,845ZM944,810C944,808.333 943.833,807.167 943.5,806.5L795.5,240C794.833,238.333 794.083,236.75 793.25,235.25C792.417,233.75 791.167,232.667 789.5,232C788.833,231.667 787.75,231.333 786.25,231C784.75,230.667 783.667,230.5 783,230.5C780.667,230.5 775.833,231.5 768.5,233.5C761.167,235.5 753.167,237.833 744.5,240.5C735.833,243.167 727.583,245.667 719.75,248C711.917,250.333 706.5,252 703.5,253C700.833,253.667 698.667,255.167 697,257.5C695.333,259.833 694.5,262.333 694.5,265C694.5,266 696.5,274.417 700.5,290.25C704.5,306.083 709.75,326.583 716.25,351.75C722.75,376.917 730.167,405.583 738.5,437.75C746.833,469.917 755.5,503 764.5,537C773.5,571 782.333,604.583 791,637.75C799.667,670.917 807.667,701.167 815,728.5C822.333,755.833 828.5,779.083 833.5,798.25C838.5,817.417 841.667,829.667 843,835C844.667,841.333 848.833,844.5 855.5,844.5C857.167,844.5 861.75,843.5 869.25,841.5C876.75,839.5 884.917,837.167 893.75,834.5C902.583,831.833 911,829.25 919,826.75C927,824.25 932.333,822.667 935,822C937.667,821.333 939.833,819.833 941.5,817.5C943.167,815.167 944,812.667 944,810Z" fill="#000000" fill-opacity="1">
  </path>
</svg>