<!-- Exported by Character Map UWP -->
<svg height="100%" viewBox="128 0 768 1024" width="100%" xmlns="http://www.w3.org/2000/svg" xmlns:xlink="http://www.w3.org/1999/xlink">
  <path d="M253.5,1024C236.833,1024 220.917,1020.58 205.75,1013.75C190.583,1006.92 177.25,997.75 165.75,986.25C154.25,974.75 145.083,961.417 138.25,946.25C131.417,931.083 128,915.167 128,898.5L128,125.5C128,108.833 131.417,92.9167 138.25,77.75C145.083,62.5834 154.25,49.2501 165.75,37.75C177.25,26.2501 190.583,17.0834 205.75,10.25C220.917,3.41669 236.833,0 253.5,0L770.5,0C787.167,0 803.083,3.41669 818.25,10.25C833.417,17.0834 846.75,26.2501 858.25,37.75C869.75,49.2501 878.917,62.5834 885.75,77.75C892.583,92.9167 896,108.833 896,125.5L896,898.5C896,915.167 892.583,931.083 885.75,946.25C878.917,961.417 869.75,974.75 858.25,986.25C846.75,997.75 833.417,1006.92 818.25,1013.75C803.083,1020.58 787.167,1024 770.5,1024ZM768,960C777,960 785.333,958.333 793,955C800.667,951.667 807.417,947.083 813.25,941.25C819.083,935.417 823.667,928.667 827,921C830.333,913.333 832,905 832,896L832,128C832,119.333 830.333,111.083 827,103.25C823.667,95.4167 819.083,88.5834 813.25,82.75C807.417,76.9167 800.583,72.3334 792.75,69C784.917,65.6667 776.667,64.0001 768,64L256,64C247,64.0001 238.667,65.6667 231,69C223.333,72.3334 216.583,76.9167 210.75,82.75C204.917,88.5834 200.333,95.3334 197,103C193.667,110.667 192,119 192,128L192,896C192,905 193.667,913.417 197,921.25C200.333,929.083 204.833,935.833 210.5,941.5C216.167,947.167 222.917,951.667 230.75,955C238.583,958.333 247,960 256,960ZM352,320C343.333,320 335.833,316.833 329.5,310.5C323.167,304.167 320,296.667 320,288C320,279.333 323.167,271.833 329.5,265.5C335.833,259.167 343.333,256 352,256L672,256C680.667,256 688.167,259.167 694.5,265.5C700.833,271.833 704,279.333 704,288C704,296.667 700.833,304.167 694.5,310.5C688.167,316.833 680.667,320 672,320ZM352,512C343.333,512 335.833,508.833 329.5,502.5C323.167,496.167 320,488.667 320,480C320,471.333 323.167,463.833 329.5,457.5C335.833,451.167 343.333,448 352,448L672,448C680.667,448 688.167,451.167 694.5,457.5C700.833,463.833 704,471.333 704,480C704,488.667 700.833,496.167 694.5,502.5C688.167,508.833 680.667,512 672,512ZM352,704C343.333,704 335.833,700.833 329.5,694.5C323.167,688.167 320,680.667 320,672C320,663.333 323.167,655.833 329.5,649.5C335.833,643.167 343.333,640 352,640L672,640C680.667,640 688.167,643.167 694.5,649.5C700.833,655.833 704,663.333 704,672C704,680.667 700.833,688.167 694.5,694.5C688.167,700.833 680.667,704 672,704Z" fill="#000000" fill-opacity="1">
  </path>
</svg>