<svg xmlns="http://www.w3.org/2000/svg" width="1025" height="1025" fill="none" viewBox="0 0 1025 1025">
  <g clip-path="url(#a)">
    <path fill="#000" fill-opacity=".896" d="M254 1024.5c-16.667 0-32.583-3.42-47.75-10.25-15.167-6.83-28.5-16-40-27.5s-20.667-24.833-27.5-40c-6.833-15.167-10.25-31.083-10.25-47.75V126c0-16.667 3.417-32.583 10.25-47.75 6.833-15.167 16-28.5 27.5-40s24.833-20.667 40-27.5C221.417 3.917 237.333.5 254 .5h517c16.667 0 32.583 3.417 47.75 10.25 15.167 6.833 28.5 16 40 27.5s20.667 24.833 27.5 40c6.833 15.167 10.25 31.083 10.25 47.75v773c0 16.667-3.417 32.583-10.25 47.75-6.833 15.167-16 28.5-27.5 40s-24.833 20.67-40 27.5c-15.167 6.83-31.083 10.25-47.75 10.25H254Zm514.5-64c9 0 17.333-1.667 25-5 7.667-3.333 14.417-7.917 20.25-13.75s10.417-12.583 13.75-20.25 5-16 5-25v-768c0-8.667-1.667-16.917-5-24.75-3.333-7.833-7.917-14.667-13.75-20.5s-12.667-10.417-20.5-13.75-16.083-5-24.75-5h-512c-9 0-17.333 1.667-25 5-7.667 3.333-14.417 7.917-20.25 13.75s-10.417 12.583-13.75 20.25-5 16-5 25v768c0 9 1.667 17.417 5 25.25 3.333 7.833 7.833 14.583 13.5 20.25s12.417 10.167 20.25 13.5 16.25 5 25.25 5h512Zm-416-640c-8.667 0-16.167-3.167-22.5-9.5-6.333-6.333-9.5-13.833-9.5-22.5s3.167-16.167 9.5-22.5c6.333-6.333 13.833-9.5 22.5-9.5h320c8.667 0 16.167 3.167 22.5 9.5 6.333 6.333 9.5 13.833 9.5 22.5s-3.167 16.167-9.5 22.5c-6.333 6.333-13.833 9.5-22.5 9.5h-320Zm0 192c-8.667 0-16.167-3.167-22.5-9.5-6.333-6.333-9.5-13.833-9.5-22.5s3.167-16.167 9.5-22.5c6.333-6.333 13.833-9.5 22.5-9.5h320c8.667 0 16.167 3.167 22.5 9.5 6.333 6.333 9.5 13.833 9.5 22.5s-3.167 16.167-9.5 22.5c-6.333 6.333-13.833 9.5-22.5 9.5h-320Zm0 192c-8.667 0-16.167-3.167-22.5-9.5-6.333-6.333-9.5-13.833-9.5-22.5s3.167-16.167 9.5-22.5c6.333-6.333 13.833-9.5 22.5-9.5h320c8.667 0 16.167 3.167 22.5 9.5 6.333 6.333 9.5 13.833 9.5 22.5s-3.167 16.167-9.5 22.5c-6.333 6.333-13.833 9.5-22.5 9.5h-320Z"/>
  </g>
  <defs>
    <clipPath id="a">
      <path fill="#fff" d="M.5.5h1024v1024H.5z"/>
    </clipPath>
  </defs>
</svg>
