<svg xmlns="http://www.w3.org/2000/svg" width="1024" height="1024" fill="none" viewBox="0 0 1024 1024">
  <path fill="#fff" d="M253.5 1024c-16.667 0-32.583-3.42-47.75-10.25-15.167-6.83-28.5-16-40-27.5s-20.667-24.833-27.5-40C131.417 931.083 128 915.167 128 898.5v-773c0-16.667 3.417-32.583 10.25-47.75 6.833-15.167 16-28.5 27.5-40s24.833-20.667 40-27.5C220.917 3.417 236.833 0 253.5 0h517c16.667 0 32.583 3.417 47.75 10.25 15.167 6.833 28.5 16 40 27.5s20.667 24.833 27.5 40C892.583 92.917 896 108.833 896 125.5v773c0 16.667-3.417 32.583-10.25 47.75-6.833 15.167-16 28.5-27.5 40s-24.833 20.67-40 27.5c-15.167 6.83-31.083 10.25-47.75 10.25h-517ZM768 960c9 0 17.333-1.667 25-5 7.667-3.333 14.417-7.917 20.25-13.75S823.667 928.667 827 921s5-16 5-25V128c0-8.667-1.667-16.917-5-24.75-3.333-7.833-7.917-14.667-13.75-20.5S800.583 72.333 792.75 69s-16.083-5-24.75-5H256c-9 0-17.333 1.667-25 5-7.667 3.333-14.417 7.917-20.25 13.75S200.333 95.333 197 103s-5 16-5 25v768c0 9 1.667 17.417 5 25.25 3.333 7.833 7.833 14.583 13.5 20.25s12.417 10.167 20.25 13.5 16.25 5 25.25 5h512ZM352 320c-8.667 0-16.167-3.167-22.5-9.5-6.333-6.333-9.5-13.833-9.5-22.5s3.167-16.167 9.5-22.5c6.333-6.333 13.833-9.5 22.5-9.5h320c8.667 0 16.167 3.167 22.5 9.5 6.333 6.333 9.5 13.833 9.5 22.5s-3.167 16.167-9.5 22.5c-6.333 6.333-13.833 9.5-22.5 9.5H352Zm0 192c-8.667 0-16.167-3.167-22.5-9.5-6.333-6.333-9.5-13.833-9.5-22.5s3.167-16.167 9.5-22.5c6.333-6.333 13.833-9.5 22.5-9.5h320c8.667 0 16.167 3.167 22.5 9.5 6.333 6.333 9.5 13.833 9.5 22.5s-3.167 16.167-9.5 22.5c-6.333 6.333-13.833 9.5-22.5 9.5H352Zm0 192c-8.667 0-16.167-3.167-22.5-9.5-6.333-6.333-9.5-13.833-9.5-22.5s3.167-16.167 9.5-22.5c6.333-6.333 13.833-9.5 22.5-9.5h320c8.667 0 16.167 3.167 22.5 9.5 6.333 6.333 9.5 13.833 9.5 22.5s-3.167 16.167-9.5 22.5c-6.333 6.333-13.833 9.5-22.5 9.5H352Z"/>
</svg>
