<svg width="768" height="1024" viewBox="0 0 768 1024" fill="none" xmlns="http://www.w3.org/2000/svg">
<g clip-path="url(#clip0_12_40)">
<path d="M125.5 1024C108.833 1024 92.917 1020.58 77.75 1013.75C62.583 1006.92 49.25 997.75 37.75 986.25C26.25 974.75 17.083 961.417 10.25 946.25C3.417 931.083 0 915.167 0 898.5V125.5C0 108.833 3.417 92.9167 10.25 77.75C17.083 62.5834 26.25 49.2501 37.75 37.75C49.25 26.2501 62.583 17.0834 77.75 10.25C92.917 3.41669 108.833 0 125.5 0H642.5C659.167 0 675.083 3.41669 690.25 10.25C705.417 17.0834 718.75 26.2501 730.25 37.75C741.75 49.2501 750.917 62.5834 757.75 77.75C764.583 92.9167 768 108.833 768 125.5V898.5C768 915.167 764.583 931.083 757.75 946.25C750.917 961.417 741.75 974.75 730.25 986.25C718.75 997.75 705.417 1006.92 690.25 1013.75C675.083 1020.58 659.167 1024 642.5 1024H125.5ZM640 960C649 960 657.333 958.333 665 955C672.667 951.667 679.417 947.083 685.25 941.25C691.083 935.417 695.667 928.667 699 921C702.333 913.333 704 905 704 896V128C704 119.333 702.333 111.083 699 103.25C695.667 95.4167 691.083 88.5834 685.25 82.75C679.417 76.9167 672.583 72.3334 664.75 69C656.917 65.6667 648.667 64.0001 640 64H128C119 64.0001 110.667 65.6667 103 69C95.333 72.3334 88.583 76.9167 82.75 82.75C76.917 88.5834 72.333 95.3334 69 103C65.667 110.667 64 119 64 128V896C64 905 65.667 913.417 69 921.25C72.333 929.083 76.833 935.833 82.5 941.5C88.167 947.167 94.917 951.667 102.75 955C110.583 958.333 119 960 128 960H640ZM224 320C215.333 320 207.833 316.833 201.5 310.5C195.167 304.167 192 296.667 192 288C192 279.333 195.167 271.833 201.5 265.5C207.833 259.167 215.333 256 224 256H544C552.667 256 560.167 259.167 566.5 265.5C572.833 271.833 576 279.333 576 288C576 296.667 572.833 304.167 566.5 310.5C560.167 316.833 552.667 320 544 320H224ZM224 512C215.333 512 207.833 508.833 201.5 502.5C195.167 496.167 192 488.667 192 480C192 471.333 195.167 463.833 201.5 457.5C207.833 451.167 215.333 448 224 448H544C552.667 448 560.167 451.167 566.5 457.5C572.833 463.833 576 471.333 576 480C576 488.667 572.833 496.167 566.5 502.5C560.167 508.833 552.667 512 544 512H224ZM224 704C215.333 704 207.833 700.833 201.5 694.5C195.167 688.167 192 680.667 192 672C192 663.333 195.167 655.833 201.5 649.5C207.833 643.167 215.333 640 224 640H544C552.667 640 560.167 643.167 566.5 649.5C572.833 655.833 576 663.333 576 672C576 680.667 572.833 688.167 566.5 694.5C560.167 700.833 552.667 704 544 704H224Z" fill="black" fill-opacity="0.8956"/>
</g>
<defs>
<clipPath id="clip0_12_40">
<rect width="768" height="1024" fill="white"/>
</clipPath>
</defs>
</svg>
