<svg xmlns="http://www.w3.org/2000/svg" width="1024" height="1024" fill="none" viewBox="0 0 1024 1024">
  <g clip-path="url(#a)">
    <path fill="#fff" d="M898.5 0c16.667 0 32.583 3.417 47.75 10.25 15.167 6.833 28.5 16 40 27.5s20.67 24.833 27.5 40c6.83 15.167 10.25 31.083 10.25 47.75v581c0 17.333-3.5 33.583-10.5 48.75-7 15.167-16.333 28.417-28 39.75-11.667 11.333-25.25 20.333-40.75 27-15.5 6.667-31.75 10-48.75 10H704v128h96c8.667 0 16.167 3.167 22.5 9.5 6.333 6.333 9.5 13.833 9.5 22.5 0 8.67-3.167 16.17-9.5 22.5-6.333 6.33-13.833 9.5-22.5 9.5H224c-8.667 0-16.167-3.17-22.5-9.5-6.333-6.33-9.5-13.83-9.5-22.5 0-8.667 3.167-16.167 9.5-22.5 6.333-6.333 13.833-9.5 22.5-9.5h96V832H125.5c-16.667 0-32.583-3.417-47.75-10.25-15.167-6.833-28.5-16-40-27.5s-20.667-24.833-27.5-40C3.417 739.083 0 723.167 0 706.5v-581c0-16.667 3.417-32.583 10.25-47.75 6.833-15.167 16-28.5 27.5-40s24.833-20.667 40-27.5C92.917 3.417 108.833 0 125.5 0h773ZM960 128c0-8.667-1.667-16.917-5-24.75-3.333-7.833-7.917-14.667-13.75-20.5S928.583 72.333 920.75 69s-16.083-5-24.75-5H128c-9 0-17.333 1.667-25 5-7.667 3.333-14.417 7.917-20.25 13.75S72.333 95.333 69 103s-5 16-5 25v576c0 9 1.667 17.417 5 25.25 3.333 7.833 7.833 14.583 13.5 20.25s12.417 10.167 20.25 13.5 16.25 5 25.25 5h768c9 0 17.333-1.667 25-5 7.667-3.333 14.417-7.917 20.25-13.75S951.667 736.667 955 729s5-16 5-25V128ZM384 960h256V832H384v128Z"/>
  </g>
  <defs>
    <clipPath id="a">
      <path fill="#fff" d="M0 0h1024v1024H0z"/>
    </clipPath>
  </defs>
</svg>
