<svg xmlns="http://www.w3.org/2000/svg" width="1025" height="1025" fill="none" viewBox="0 0 1025 1025">
  <g clip-path="url(#a)">
    <path fill="#000" fill-opacity=".896" d="M33.629 318.241c0-15.728 2.51-30.87 7.53-45.427 5.019-14.557 12.046-27.859 21.082-39.906 9.035-12.047 19.827-22.421 32.376-31.122 12.549-8.701 26.353-15.226 41.412-19.576L753.441 5.52c13.72-3.681 26.938-5.522 39.655-5.522 15.728 0 30.787 2.51 45.176 7.53 14.389 5.02 27.608 12.047 39.655 21.082s22.42 19.827 31.121 32.376c8.701 12.55 15.227 26.353 19.577 41.412 1.338 5.02 3.681 12.8 7.027 23.341a1611.136 1611.136 0 0 1 10.04 32.879c3.346 11.377 6.274 22.086 8.784 32.125 2.51 10.039 3.765 17.067 3.765 21.083 0 8.7-2.594 16.481-7.781 23.341-5.187 6.859-11.964 11.461-20.329 13.804L378.978 406.586h573.741c10.709 0 19.827 3.765 27.357 11.294 7.529 7.53 11.294 16.648 11.294 27.357v436.706c0 17.736-3.43 35.054-10.29 51.953-6.86 16.899-16.314 32.042-28.361 45.428-12.047 13.385-26.185 24.096-42.416 32.126-16.23 8.03-33.548 12.05-51.953 12.05H207.307c-19.408 0-37.73-3.77-54.964-11.3-17.235-7.53-32.209-17.65-44.926-30.367-12.716-12.716-22.84-27.691-30.368-44.925-7.53-17.234-11.295-35.556-11.295-54.965V450.759l-1.757-6.526a1549.27 1549.27 0 0 0-10.792-37.898 840.555 840.555 0 0 1-6.274-22.086c-1.84-6.86-3.514-12.8-5.02-17.82-1.506-5.019-2.426-8.031-2.76-9.035-3.682-13.051-5.522-26.102-5.522-39.153Zm706.259-95.372 132.015-37.647-17.568-61.742c-2.678-9.035-7.195-17.234-13.553-24.596-6.358-7.362-13.887-12.883-22.588-16.564l-78.306 140.549Zm-156.612-88.345-87.843 158.619 139.545-40.157 88.345-158.62-140.047 40.158Zm-244.455 69.772-87.843 159.122 139.545-40.157 88.345-159.122-140.047 40.157ZM131.009 397.551l15.059-4.016 88.345-159.121-77.302 22.086c-13.72 4.016-24.847 11.796-33.38 23.341-8.533 11.545-12.8 24.345-12.8 38.4 0 5.354.753 11.545 2.259 18.573 1.506 7.027 3.346 14.222 5.521 21.584a537.815 537.815 0 0 0 6.777 21.333c2.342 6.86 4.183 12.8 5.521 17.82Zm783.059 484.392V483.888H143.056v398.055c0 7.697 1.506 15.31 4.518 22.839a75.504 75.504 0 0 0 12.298 20.581c5.187 6.191 11.294 11.211 18.322 15.059 7.027 3.848 14.556 5.772 22.588 5.772h649.035c8.701 0 16.983-1.673 24.847-5.019 7.864-3.346 14.725-7.948 20.581-13.804 5.855-5.856 10.457-12.717 13.803-20.581 3.347-7.863 5.02-16.146 5.02-24.847Z"/>
  </g>
  <defs>
    <clipPath id="a">
      <path fill="#fff" d="M.5.5h1024v1024H.5z"/>
    </clipPath>
  </defs>
</svg>
