<svg xmlns="http://www.w3.org/2000/svg" width="1024" height="1024" fill="none" viewBox="0 0 1024 1024">
  <g clip-path="url(#a)">
    <path fill="#fff" d="M232.274 1023c-21.646 0-41.959-4.32-60.94-12.99-18.982-8.66-35.549-20.311-49.702-34.963-14.153-14.653-25.308-31.635-33.467-50.949-8.159-19.315-12.238-39.63-12.238-60.942V420.09l-2.498-8.492c-1.665-5.661-3.496-11.905-5.494-18.732a1452.26 1452.26 0 0 1-5.495-19.231c-1.665-5.994-2.664-9.491-2.997-10.49a207.18 207.18 0 0 1-4.745-21.978c-1.166-7.326-1.749-14.819-1.749-22.478 0-17.65 2.914-34.633 8.742-50.95 5.827-16.318 13.82-31.22 23.976-44.707 10.157-13.487 22.312-25.225 36.465-35.215 14.153-9.991 29.721-17.483 46.704-22.478L721.796 5.494C735.782 1.498 750.435-.5 765.753-.5c17.65 0 34.633 2.83 50.95 8.492 16.317 5.66 31.303 13.57 44.956 23.726 13.654 10.157 25.476 22.312 35.466 36.465 9.99 14.153 17.483 29.721 22.478 46.705.999 3.996 2.58 9.241 4.745 15.734a986.49 986.49 0 0 1 6.494 20.231c2.165 6.993 3.996 13.653 5.495 19.98 1.498 6.327 2.247 11.156 2.247 14.486 0 6.993-2.165 13.404-6.493 19.231-4.329 5.828-9.824 9.741-16.484 11.739L334.175 383.625h604.909c8.658 0 16.151 3.164 22.478 9.491 6.327 6.327 9.491 13.82 9.491 22.478v451.06c0 20.979-4.246 40.959-12.738 59.94-8.492 18.982-19.814 35.549-33.967 49.703-14.153 14.153-30.72 25.473-49.701 33.963-18.982 8.5-38.962 12.74-59.942 12.74H232.274Zm473.038-812.705 161.842-46.955a1114.595 1114.595 0 0 0-10.989-33.217c-3.664-10.49-8.325-19.981-13.987-28.472-5.661-8.492-12.737-15.819-21.229-21.98-8.491-6.16-19.398-10.739-32.718-13.736-11.655 22.978-25.142 47.038-40.46 72.18-15.318 25.143-29.472 49.202-42.459 72.18Zm-224.281 64.437 135.867-38.962 91.911-159.845-135.868 38.963c-.332 1.332-2.664 5.827-6.993 13.487a4153.983 4153.983 0 0 1-15.984 27.972 17176.951 17176.951 0 0 1-20.48 35.466 5968.291 5968.291 0 0 1-20.98 35.965 4207.466 4207.466 0 0 0-17.483 29.969c-4.995 8.659-8.324 14.32-9.99 16.985ZM257.25 339.169l135.368-38.962 92.409-159.844-135.867 39.461a1643.745 1643.745 0 0 0-46.704 79.173 5470.324 5470.324 0 0 1-45.206 80.172Zm-127.376 36.964 38.463-11.489L260.746 205.3l-74.427 21.479c-10.323 2.997-19.731 7.492-28.222 13.486-8.492 5.995-15.735 12.988-21.729 20.98-5.994 7.992-10.657 16.9-13.987 26.724-3.329 9.823-4.995 20.063-4.995 30.72 0 9.99 1.416 19.648 4.246 28.971 2.83 9.324 5.578 18.815 8.242 28.473Zm681.335 582.929c12.987 0 25.308-2.497 36.964-7.492 11.655-4.995 21.895-11.905 30.72-20.729 8.824-8.824 15.734-19.065 20.729-30.721 4.996-11.656 7.493-23.977 7.493-36.964V447.562H139.864v415.594c0 12.987 2.498 25.308 7.493 36.964 4.995 11.656 11.905 21.897 20.73 30.721 8.824 8.824 19.064 15.734 30.72 20.729 11.655 4.995 23.976 7.492 36.964 7.492h575.438Z"/>
  </g>
  <defs>
    <clipPath id="a">
      <path fill="#fff" d="M0 0h1024v1024H0z"/>
    </clipPath>
  </defs>
</svg>
