<!-- Exported by Character Map UWP -->
<svg height="100%" viewBox="41 0 919 1025" width="100%" xmlns="http://www.w3.org/2000/svg" xmlns:xlink="http://www.w3.org/1999/xlink">
  <path d="M220.5,1024C198.833,1024 178.5,1019.67 159.5,1011C140.5,1002.33 123.917,990.667 109.75,976C95.5833,961.333 84.4167,944.333 76.25,925C68.0833,905.667 64,885.333 64,864L64,420.5C64,420.5 63.1667,417.667 61.5,412C59.8333,406.333 58,400.083 56,393.25C54,386.417 52.1667,380 50.5,374C48.8333,368 47.8333,364.5 47.5,363.5C45.5,356.167 43.9167,348.833 42.75,341.5C41.5833,334.167 41,326.667 41,319C41,301.333 43.9167,284.333 49.75,268C55.5833,251.667 63.5833,236.75 73.75,223.25C83.9167,209.75 96.0833,198 110.25,188C124.417,178 140,170.5 157,165.5L710.5,5.5C724.5,1.50006 739.167,-0.5 754.5,-0.5C772.167,-0.5 789.167,2.33337 805.5,8C821.833,13.6667 836.833,21.5834 850.5,31.75C864.167,41.9167 876,54.0834 886,68.25C896,82.4167 903.5,98.0001 908.5,115C909.5,119 911.083,124.25 913.25,130.75C915.417,137.25 917.583,144 919.75,151C921.917,158 923.75,164.667 925.25,171C926.75,177.333 927.5,182.167 927.5,185.5C927.5,192.5 925.333,198.917 921,204.75C916.667,210.583 911.167,214.5 904.5,216.5L322.5,384L928,384C936.667,384 944.167,387.167 950.5,393.5C956.833,399.833 960,407.333 960,416L960,867.5C960,888.5 955.75,908.5 947.25,927.5C938.75,946.5 927.417,963.083 913.25,977.25C899.083,991.417 882.5,1002.75 863.5,1011.25C844.5,1019.75 824.5,1024 803.5,1024ZM694,210.5L856,163.5C852.333,151.833 848.667,140.75 845,130.25C841.333,119.75 836.667,110.25 831,101.75C825.333,93.25 818.25,85.9167 809.75,79.75C801.25,73.5834 790.333,69 777,66C765.333,89 751.833,113.083 736.5,138.25C721.167,163.417 707,187.5 694,210.5ZM469.5,275L605.5,236L697.5,76L561.5,115C561.167,116.333 558.833,120.833 554.5,128.5C550.167,136.167 544.833,145.5 538.5,156.5C532.167,167.5 525.333,179.333 518,192C510.667,204.667 503.667,216.667 497,228C490.333,239.333 484.5,249.333 479.5,258C474.5,266.667 471.167,272.333 469.5,275ZM245.5,339.5L381,300.5L473.5,140.5L337.5,180C321.167,206 305.583,232.417 290.75,259.25C275.917,286.083 260.833,312.833 245.5,339.5ZM118,376.5L156.5,365L249,205.5L174.5,227C164.167,230 154.75,234.5 146.25,240.5C137.75,246.5 130.5,253.5 124.5,261.5C118.5,269.5 113.833,278.417 110.5,288.25C107.167,298.083 105.5,308.333 105.5,319C105.5,329 106.917,338.667 109.75,348C112.583,357.333 115.333,366.833 118,376.5ZM800,960C813,960 825.333,957.5 837,952.5C848.667,947.5 858.917,940.583 867.75,931.75C876.583,922.917 883.5,912.667 888.5,901C893.5,889.333 896,877 896,864L896,448L128,448L128,864C128,877 130.5,889.333 135.5,901C140.5,912.667 147.417,922.917 156.25,931.75C165.083,940.583 175.333,947.5 187,952.5C198.667,957.5 211,960 224,960Z" fill="#FFFFFF" fill-opacity="1">
  </path>
</svg>