<!-- Exported by Character Map UWP -->
<svg height="100%" viewBox="19 5 954 1020" width="100%" xmlns="http://www.w3.org/2000/svg" xmlns:xlink="http://www.w3.org/1999/xlink">
  <path d="M19,321.5C19,305.833 21.5,290.75 26.5,276.25C31.5,261.75 38.5,248.5 47.5,236.5C56.5,224.5 67.25,214.167 79.75,205.5C92.25,196.833 106,190.333 121,186L736,10C749.667,6.33337 762.833,4.5 775.5,4.5C791.167,4.5 806.167,7 820.5,12C834.833,17 848,24 860,33C872,42 882.333,52.75 891,65.25C899.667,77.75 906.167,91.5 910.5,106.5C911.833,111.5 914.167,119.25 917.5,129.75C920.833,140.25 924.167,151.167 927.5,162.5C930.833,173.833 933.75,184.5 936.25,194.5C938.75,204.5 940,211.5 940,215.5C940,224.167 937.417,231.917 932.25,238.75C927.083,245.583 920.333,250.167 912,252.5L363,409.5L934.5,409.5C945.167,409.5 954.25,413.25 961.75,420.75C969.25,428.25 973,437.333 973,448L973,883C973,900.667 969.583,917.917 962.75,934.75C955.917,951.583 946.5,966.667 934.5,980C922.5,993.333 908.417,1004 892.25,1012C876.083,1020 858.833,1024 840.5,1024L192,1024C172.667,1024 154.417,1020.25 137.25,1012.75C120.083,1005.25 105.167,995.167 92.5,982.5C79.8333,969.833 69.75,954.917 62.25,937.75C54.75,920.583 51,902.333 51,883L51,453.5C51,453.5 50.4167,451.333 49.25,447C48.0833,442.667 46.5833,437.25 44.75,430.75C42.9167,424.25 40.8333,417.083 38.5,409.25C36.1667,401.417 34.0833,394.083 32.25,387.25C30.4167,380.417 28.75,374.5 27.25,369.5C25.75,364.5 24.8333,361.5 24.5,360.5C20.8333,347.5 19,334.5 19,321.5ZM722.5,226.5L854,189L836.5,127.5C833.833,118.5 829.333,110.333 823,103C816.667,95.6667 809.167,90.1667 800.5,86.5ZM566.5,138.5L479,296.5L618,256.5L706,98.5ZM323,208L235.5,366.5L374.5,326.5L462.5,168ZM116,400.5L131,396.5L219,238L142,260C128.333,264 117.25,271.75 108.75,283.25C100.25,294.75 96,307.5 96,321.5C96,326.833 96.75,333 98.25,340C99.75,347 101.583,354.167 103.75,361.5C105.917,368.833 108.167,375.917 110.5,382.75C112.833,389.583 114.667,395.5 116,400.5ZM896,883L896,486.5L128,486.5L128,883C128,890.667 129.5,898.25 132.5,905.75C135.5,913.25 139.583,920.083 144.75,926.25C149.917,932.417 156,937.417 163,941.25C170,945.083 177.5,947 185.5,947L832,947C840.667,947 848.917,945.333 856.75,942C864.583,938.667 871.417,934.083 877.25,928.25C883.083,922.417 887.667,915.583 891,907.75C894.333,899.917 896,891.667 896,883Z" fill="#FFFFFF" fill-opacity="1">
  </path>
</svg>