<svg width="919" height="1025" viewBox="0 0 919 1025" fill="none" xmlns="http://www.w3.org/2000/svg">
<g clip-path="url(#clip0_12_86)">
<path d="M179.5 1024C157.833 1024 137.5 1019.67 118.5 1011C99.5 1002.33 82.917 990.667 68.75 976C54.5833 961.333 43.4167 944.333 35.25 925C27.0833 905.667 23 885.333 23 864V420.5C23 420.5 22.1667 417.667 20.5 412C18.8333 406.333 17 400.083 15 393.25C13 386.417 11.1667 380 9.5 374C7.8333 368 6.8333 364.5 6.5 363.5C4.5 356.167 2.9167 348.833 1.75 341.5C0.5833 334.167 0 326.667 0 319C0 301.333 2.9167 284.333 8.75 268C14.5833 251.667 22.5833 236.75 32.75 223.25C42.9167 209.75 55.0833 198 69.25 188C83.417 178 99 170.5 116 165.5L669.5 5.5C683.5 1.50006 698.167 -0.5 713.5 -0.5C731.167 -0.5 748.167 2.33337 764.5 8C780.833 13.6667 795.833 21.5834 809.5 31.75C823.167 41.9167 835 54.0834 845 68.25C855 82.4167 862.5 98.0001 867.5 115C868.5 119 870.083 124.25 872.25 130.75C874.417 137.25 876.583 144 878.75 151C880.917 158 882.75 164.667 884.25 171C885.75 177.333 886.5 182.167 886.5 185.5C886.5 192.5 884.333 198.917 880 204.75C875.667 210.583 870.167 214.5 863.5 216.5L281.5 384H887C895.667 384 903.167 387.167 909.5 393.5C915.833 399.833 919 407.333 919 416V867.5C919 888.5 914.75 908.5 906.25 927.5C897.75 946.5 886.417 963.083 872.25 977.25C858.083 991.417 841.5 1002.75 822.5 1011.25C803.5 1019.75 783.5 1024 762.5 1024H179.5ZM653 210.5L815 163.5C811.333 151.833 807.667 140.75 804 130.25C800.333 119.75 795.667 110.25 790 101.75C784.333 93.25 777.25 85.9167 768.75 79.75C760.25 73.5834 749.333 69 736 66C724.333 89 710.833 113.083 695.5 138.25C680.167 163.417 666 187.5 653 210.5ZM428.5 275L564.5 236L656.5 76L520.5 115C520.167 116.333 517.833 120.833 513.5 128.5C509.167 136.167 503.833 145.5 497.5 156.5C491.167 167.5 484.333 179.333 477 192C469.667 204.667 462.667 216.667 456 228C449.333 239.333 443.5 249.333 438.5 258C433.5 266.667 430.167 272.333 428.5 275ZM204.5 339.5L340 300.5L432.5 140.5L296.5 180C280.167 206 264.583 232.417 249.75 259.25C234.917 286.083 219.833 312.833 204.5 339.5ZM77 376.5L115.5 365L208 205.5L133.5 227C123.167 230 113.75 234.5 105.25 240.5C96.75 246.5 89.5 253.5 83.5 261.5C77.5 269.5 72.833 278.417 69.5 288.25C66.167 298.083 64.5 308.333 64.5 319C64.5 329 65.917 338.667 68.75 348C71.583 357.333 74.333 366.833 77 376.5ZM759 960C772 960 784.333 957.5 796 952.5C807.667 947.5 817.917 940.583 826.75 931.75C835.583 922.917 842.5 912.667 847.5 901C852.5 889.333 855 877 855 864V448H87V864C87 877 89.5 889.333 94.5 901C99.5 912.667 106.417 922.917 115.25 931.75C124.083 940.583 134.333 947.5 146 952.5C157.667 957.5 170 960 183 960H759Z" fill="black" fill-opacity="0.8956"/>
</g>
<defs>
<clipPath id="clip0_12_86">
<rect width="919" height="1025" fill="white"/>
</clipPath>
</defs>
</svg>
