<svg width="954" height="1020" viewBox="0 0 954 1020" fill="none" xmlns="http://www.w3.org/2000/svg">
<g clip-path="url(#clip0_12_90)">
<path d="M0 316.5C0 300.833 2.5 285.75 7.5 271.25C12.5 256.75 19.5 243.5 28.5 231.5C37.5 219.5 48.25 209.167 60.75 200.5C73.25 191.833 87 185.333 102 181L717 5C730.667 1.33337 743.833 -0.5 756.5 -0.5C772.167 -0.5 787.167 2 801.5 7C815.833 12 829 19 841 28C853 37 863.333 47.75 872 60.25C880.667 72.75 887.167 86.5 891.5 101.5C892.833 106.5 895.167 114.25 898.5 124.75C901.833 135.25 905.167 146.167 908.5 157.5C911.833 168.833 914.75 179.5 917.25 189.5C919.75 199.5 921 206.5 921 210.5C921 219.167 918.417 226.917 913.25 233.75C908.083 240.583 901.333 245.167 893 247.5L344 404.5H915.5C926.167 404.5 935.25 408.25 942.75 415.75C950.25 423.25 954 432.333 954 443V878C954 895.667 950.583 912.917 943.75 929.75C936.917 946.583 927.5 961.667 915.5 975C903.5 988.333 889.417 999 873.25 1007C857.083 1015 839.833 1019 821.5 1019H173C153.667 1019 135.417 1015.25 118.25 1007.75C101.083 1000.25 86.167 990.167 73.5 977.5C60.8333 964.833 50.75 949.917 43.25 932.75C35.75 915.583 32 897.333 32 878V448.5C32 448.5 31.4167 446.333 30.25 442C29.0833 437.667 27.5833 432.25 25.75 425.75C23.9167 419.25 21.8333 412.083 19.5 404.25C17.1667 396.417 15.0833 389.083 13.25 382.25C11.4167 375.417 9.75 369.5 8.25 364.5C6.75 359.5 5.8333 356.5 5.5 355.5C1.8333 342.5 0 329.5 0 316.5ZM703.5 221.5L835 184L817.5 122.5C814.833 113.5 810.333 105.333 804 98C797.667 90.6667 790.167 85.1667 781.5 81.5L703.5 221.5ZM547.5 133.5L460 291.5L599 251.5L687 93.5L547.5 133.5ZM304 203L216.5 361.5L355.5 321.5L443.5 163L304 203ZM97 395.5L112 391.5L200 233L123 255C109.333 259 98.25 266.75 89.75 278.25C81.25 289.75 77 302.5 77 316.5C77 321.833 77.75 328 79.25 335C80.75 342 82.583 349.167 84.75 356.5C86.917 363.833 89.167 370.917 91.5 377.75C93.833 384.583 95.667 390.5 97 395.5ZM877 878V481.5H109V878C109 885.667 110.5 893.25 113.5 900.75C116.5 908.25 120.583 915.083 125.75 921.25C130.917 927.417 137 932.417 144 936.25C151 940.083 158.5 942 166.5 942H813C821.667 942 829.917 940.333 837.75 937C845.583 933.667 852.417 929.083 858.25 923.25C864.083 917.417 868.667 910.583 872 902.75C875.333 894.917 877 886.667 877 878Z" fill="black" fill-opacity="0.8956"/>
</g>
<defs>
<clipPath id="clip0_12_90">
<rect width="954" height="1020" fill="white"/>
</clipPath>
</defs>
</svg>
