<svg xmlns="http://www.w3.org/2000/svg" width="1025" height="1025" fill="none" viewBox="0 0 1025 1025">
  <g clip-path="url(#a)">
    <path fill="#000" fill-opacity=".896" d="M864.5 200v136.5c0 8.667-3.083 16.167-9.25 22.5-6.167 6.333-13.583 9.5-22.25 9.5-2.333 0-10.333-1.917-24-5.75a10969.68 10969.68 0 0 1-50.25-14.25c-19.833-5.667-41.167-12-64-19s-44.5-13.667-65-20-38.583-11.833-54.25-16.5c-15.667-4.667-26-7.833-31-9.5v553c0 26-5.167 50.417-15.5 73.25s-24.333 42.75-42 59.75-38.083 30.417-61.25 40.25c-23.167 9.83-47.583 14.75-73.25 14.75-26.667 0-51.667-5-75-15s-43.667-23.667-61-41-31-37.667-41-61-15-48.333-15-75c0-25.667 4.917-50.083 14.75-73.25S198.5 715.667 215.5 698s36.917-31.667 59.75-42c22.833-10.333 47.25-15.5 73.25-15.5 25 0 48.583 3.917 70.75 11.75s42.583 20.25 61.25 37.25v-657c0-8.667 3.167-16.167 9.5-22.5 6.333-6.333 13.833-9.5 22.5-9.5 2 0 9.25 1.667 21.75 5s27.583 7.667 45.25 13A18746.52 18746.52 0 0 0 637 35.75a4788.346 4788.346 0 0 1 59 18c18.667 5.833 35 10.917 49 15.25s23.333 7.167 28 8.5c13.667 4 26.083 10 37.25 18 11.167 8 20.75 17.333 28.75 28 8 10.667 14.25 22.5 18.75 35.5s6.75 26.667 6.75 41Zm-64 93.5V200c0-14-4.167-26.75-12.5-38.25s-19.333-19.25-33-23.25l-210.5-63v141l256 77Zm-320 539V830c0-17.333-3.5-33.583-10.5-48.75-7-15.167-16.333-28.417-28-39.75-11.667-11.333-25.25-20.333-40.75-27-15.5-6.667-31.75-10-48.75-10-17.667 0-34.25 3.417-49.75 10.25s-29 16-40.5 27.5-20.667 25.083-27.5 40.75c-6.833 15.667-10.25 32.167-10.25 49.5 0 17.667 3.417 34.25 10.25 49.75s16 29 27.5 40.5 25 20.667 40.5 27.5c15.5 6.833 32.083 10.25 49.75 10.25 17.333 0 33.833-3.417 49.5-10.25 15.667-6.833 29.25-16 40.75-27.5s20.667-25 27.5-40.5c6.833-15.5 10.25-32.083 10.25-49.75Z"/>
  </g>
  <defs>
    <clipPath id="a">
      <path fill="#fff" d="M.5.5h1024v1024H.5z"/>
    </clipPath>
  </defs>
</svg>
