<!-- Exported by Character Map UWP -->
<svg height="100%" viewBox="192 0 704 1024" width="100%" xmlns="http://www.w3.org/2000/svg" xmlns:xlink="http://www.w3.org/1999/xlink">
  <path d="M896,199.5L896,336C896,344.667 892.917,352.167 886.75,358.5C880.583,364.833 873.167,368 864.5,368C862.167,368 854.167,366.083 840.5,362.25C826.833,358.417 810.083,353.667 790.25,348C770.417,342.333 749.083,336 726.25,329C703.417,322 681.75,315.333 661.25,309C640.75,302.667 622.667,297.167 607,292.5C591.333,287.833 581,284.667 576,283L576,836C576,862 570.833,886.417 560.5,909.25C550.167,932.083 536.167,952 518.5,969C500.833,986 480.417,999.417 457.25,1009.25C434.083,1019.08 409.667,1024 384,1024C357.333,1024 332.333,1019 309,1009C285.667,999 265.333,985.333 248,968C230.667,950.667 217,930.333 207,907C197,883.667 192,858.667 192,832C192,806.333 196.917,781.917 206.75,758.75C216.583,735.583 230,715.167 247,697.5C264,679.833 283.917,665.833 306.75,655.5C329.583,645.167 354,640 380,640C405,640 428.583,643.917 450.75,651.75C472.917,659.583 493.333,672 512,689L512,32C512,23.3334 515.167,15.8334 521.5,9.5C527.833,3.16669 535.333,0 544,0C546,0 553.25,1.66669 565.75,5C578.25,8.33337 593.333,12.6667 611,18C628.667,23.3334 647.833,29.0834 668.5,35.25C689.167,41.4167 708.833,47.4167 727.5,53.25C746.167,59.0834 762.5,64.1667 776.5,68.5C790.5,72.8334 799.833,75.6667 804.5,77C818.167,81 830.583,87 841.75,95C852.917,103 862.5,112.333 870.5,123C878.5,133.667 884.75,145.5 889.25,158.5C893.75,171.5 896,185.167 896,199.5ZM832,293L832,199.5C832,185.5 827.833,172.75 819.5,161.25C811.167,149.75 800.167,142 786.5,138L576,75L576,216ZM512,832L512,829.5C512,812.167 508.5,795.917 501.5,780.75C494.5,765.583 485.167,752.333 473.5,741C461.833,729.667 448.25,720.667 432.75,714C417.25,707.333 401,704 384,704C366.333,704 349.75,707.417 334.25,714.25C318.75,721.083 305.25,730.25 293.75,741.75C282.25,753.25 273.083,766.833 266.25,782.5C259.417,798.167 256,814.667 256,832C256,849.667 259.417,866.25 266.25,881.75C273.083,897.25 282.25,910.75 293.75,922.25C305.25,933.75 318.75,942.917 334.25,949.75C349.75,956.583 366.333,960 384,960C401.333,960 417.833,956.583 433.5,949.75C449.167,942.917 462.75,933.75 474.25,922.25C485.75,910.75 494.917,897.25 501.75,881.75C508.583,866.25 512,849.667 512,832Z" fill="#FFFFFF" fill-opacity="1">
  </path>
</svg>