<svg xmlns="http://www.w3.org/2000/svg" width="1026" height="1026" fill="none" viewBox="0 0 1026 1026">
  <g clip-path="url(#a)">
    <path fill="#000" fill-opacity=".896" d="M960.833 49.83v753.652c0 21.816-4.444 42.289-13.333 61.42s-20.854 35.828-35.897 50.093c-15.044 14.264-32.479 25.507-52.308 33.73-19.829 8.223-40.684 12.335-62.564 12.335-22.906 0-44.274-4.196-64.103-12.587-19.829-8.39-37.179-19.885-52.051-34.485-14.872-14.6-26.582-31.634-35.128-51.1-8.547-19.466-12.821-40.443-12.821-62.93 0-21.48 4.188-41.954 12.564-61.42 8.377-19.466 19.829-36.583 34.359-51.351 14.531-14.768 31.539-26.514 51.026-35.241 19.487-8.726 40.341-13.089 62.564-13.089 18.462 0 36.41 2.601 53.846 7.803 17.436 5.203 33.505 13.341 48.205 24.417V298.53L435.705 467.687v400.236c0 21.816-4.444 42.289-13.333 61.42-8.889 19.13-20.855 35.828-35.898 50.092-15.043 14.265-32.479 25.505-52.307 33.735-19.829 8.22-40.684 12.33-62.564 12.33-22.906 0-44.274-4.2-64.103-12.59-19.829-8.38-37.179-19.882-52.051-34.482-14.872-14.6-26.582-31.633-35.128-51.099-8.547-19.466-12.821-40.444-12.821-62.93 0-21.48 4.188-41.954 12.564-61.42 8.376-19.466 19.829-36.583 34.359-51.351 14.53-14.768 31.539-26.514 51.026-35.241 19.487-8.727 40.341-13.09 62.564-13.09 18.461 0 36.325 2.601 53.59 7.804 17.264 5.202 33.248 13.173 47.948 23.913L367.5 231.573c0-9.734 2.992-18.879 8.974-27.438 5.983-8.558 13.761-14.683 23.334-18.375L894.679 4.52c5.129-2.013 10.77-3.02 16.924-3.02 13.674 0 25.299 4.699 34.871 14.096 9.573 9.398 14.359 20.81 14.359 34.234ZM433.654 242.145v157.074l461.538-169.157V72.989L433.654 242.145Zm461.538 557.813c0-13.089-2.564-25.507-7.692-37.254-5.128-11.748-12.223-22.068-21.282-30.962-9.06-8.894-19.572-15.858-31.539-20.893-11.966-5.034-24.615-7.552-37.948-7.552-13.334 0-25.983 2.518-37.949 7.552-11.966 5.035-22.479 11.999-31.538 20.893-9.06 8.894-16.154 19.214-21.282 30.962-5.129 11.747-7.693 24.165-7.693 37.254 0 13.09 2.564 25.508 7.693 37.255 5.128 11.747 12.222 22.068 21.282 30.962 9.059 8.893 19.572 15.858 31.538 20.892 11.966 5.035 24.615 7.552 37.949 7.552 13.333 0 25.982-2.517 37.948-7.552 11.967-5.034 22.479-11.999 31.539-20.892 9.059-8.894 16.154-19.215 21.282-30.962s7.692-24.165 7.692-37.255Zm-525.128 63.937c0-13.089-2.564-25.507-7.692-37.254-5.128-11.748-12.223-21.984-21.282-30.71-9.06-8.727-19.573-15.607-31.539-20.641-11.966-5.035-24.615-7.552-37.948-7.552-13.334 0-25.983 2.517-37.949 7.552-11.966 5.034-22.479 11.999-31.539 20.892-9.059 8.894-16.153 19.215-21.282 30.962-5.128 11.747-7.692 24.165-7.692 37.255 0 13.089 2.564 25.507 7.692 37.254 5.129 11.748 12.223 22.068 21.282 30.962 9.06 8.894 19.573 15.858 31.539 20.893 11.966 5.034 24.615 7.552 37.949 7.552 13.674 0 26.495-2.601 38.461-7.804 11.966-5.202 22.393-12.166 31.282-20.893 8.889-8.726 15.898-19.047 21.026-30.961 5.128-11.915 7.692-24.417 7.692-37.507Z"/>
  </g>
  <defs>
    <clipPath id="a">
      <path fill="#fff" d="M.5.5h1025v1025H.5z"/>
    </clipPath>
  </defs>
</svg>
