<svg xmlns="http://www.w3.org/2000/svg" width="1024" height="1024" fill="none" viewBox="0 0 1024 1024">
  <path fill="#fff" d="M864 199.5V336c0 8.667-3.083 16.167-9.25 22.5-6.167 6.333-13.583 9.5-22.25 9.5-2.333 0-10.333-1.917-24-5.75A10969.68 10969.68 0 0 1 758.25 348c-19.833-5.667-41.167-12-64-19s-44.5-13.667-65-20-38.583-11.833-54.25-16.5c-15.667-4.667-26-7.833-31-9.5v553c0 26-5.167 50.417-15.5 73.25S504.167 952 486.5 969s-38.083 30.417-61.25 40.25c-23.167 9.83-47.583 14.75-73.25 14.75-26.667 0-51.667-5-75-15s-43.667-23.667-61-41-31-37.667-41-61-15-48.333-15-75c0-25.667 4.917-50.083 14.75-73.25S198 715.167 215 697.5s36.917-31.667 59.75-42C297.583 645.167 322 640 348 640c25 0 48.583 3.917 70.75 11.75S461.333 672 480 689V32c0-8.667 3.167-16.167 9.5-22.5C495.833 3.167 503.333 0 512 0c2 0 9.25 1.667 21.75 5s27.583 7.667 45.25 13a18746.52 18746.52 0 0 0 57.5 17.25 4788.346 4788.346 0 0 1 59 18c18.667 5.833 35 10.917 49 15.25s23.333 7.167 28 8.5c13.667 4 26.083 10 37.25 18 11.167 8 20.75 17.333 28.75 28 8 10.667 14.25 22.5 18.75 35.5s6.75 26.667 6.75 41ZM800 293v-93.5c0-14-4.167-26.75-12.5-38.25S768.167 142 754.5 138L544 75v141l256 77ZM480 832v-2.5c0-17.333-3.5-33.583-10.5-48.75-7-15.167-16.333-28.417-28-39.75-11.667-11.333-25.25-20.333-40.75-27-15.5-6.667-31.75-10-48.75-10-17.667 0-34.25 3.417-49.75 10.25s-29 16-40.5 27.5-20.667 25.083-27.5 40.75C227.417 798.167 224 814.667 224 832c0 17.667 3.417 34.25 10.25 49.75s16 29 27.5 40.5 25 20.667 40.5 27.5C317.75 956.583 334.333 960 352 960c17.333 0 33.833-3.417 49.5-10.25 15.667-6.833 29.25-16 40.75-27.5s20.667-25 27.5-40.5C476.583 866.25 480 849.667 480 832Z"/>
</svg>
