<svg width="704" height="1024" viewBox="0 0 704 1024" fill="none" xmlns="http://www.w3.org/2000/svg">
<g clip-path="url(#clip0_12_104)">
<path d="M704 199.5V336C704 344.667 700.917 352.167 694.75 358.5C688.583 364.833 681.167 368 672.5 368C670.167 368 662.167 366.083 648.5 362.25C634.833 358.417 618.083 353.667 598.25 348C578.417 342.333 557.083 336 534.25 329C511.417 322 489.75 315.333 469.25 309C448.75 302.667 430.667 297.167 415 292.5C399.333 287.833 389 284.667 384 283V836C384 862 378.833 886.417 368.5 909.25C358.167 932.083 344.167 952 326.5 969C308.833 986 288.417 999.417 265.25 1009.25C242.083 1019.08 217.667 1024 192 1024C165.333 1024 140.333 1019 117 1009C93.667 999 73.333 985.333 56 968C38.667 950.667 25 930.333 15 907C5 883.667 0 858.667 0 832C0 806.333 4.917 781.917 14.75 758.75C24.583 735.583 38 715.167 55 697.5C72 679.833 91.917 665.833 114.75 655.5C137.583 645.167 162 640 188 640C213 640 236.583 643.917 258.75 651.75C280.917 659.583 301.333 672 320 689V32C320 23.3334 323.167 15.8334 329.5 9.5C335.833 3.16669 343.333 0 352 0C354 0 361.25 1.66669 373.75 5C386.25 8.33337 401.333 12.6667 419 18C436.667 23.3334 455.833 29.0834 476.5 35.25C497.167 41.4167 516.833 47.4167 535.5 53.25C554.167 59.0834 570.5 64.1667 584.5 68.5C598.5 72.8334 607.833 75.6667 612.5 77C626.167 81 638.583 87 649.75 95C660.917 103 670.5 112.333 678.5 123C686.5 133.667 692.75 145.5 697.25 158.5C701.75 171.5 704 185.167 704 199.5ZM640 293V199.5C640 185.5 635.833 172.75 627.5 161.25C619.167 149.75 608.167 142 594.5 138L384 75V216L640 293ZM320 832V829.5C320 812.167 316.5 795.917 309.5 780.75C302.5 765.583 293.167 752.333 281.5 741C269.833 729.667 256.25 720.667 240.75 714C225.25 707.333 209 704 192 704C174.333 704 157.75 707.417 142.25 714.25C126.75 721.083 113.25 730.25 101.75 741.75C90.25 753.25 81.083 766.833 74.25 782.5C67.417 798.167 64 814.667 64 832C64 849.667 67.417 866.25 74.25 881.75C81.083 897.25 90.25 910.75 101.75 922.25C113.25 933.75 126.75 942.917 142.25 949.75C157.75 956.583 174.333 960 192 960C209.333 960 225.833 956.583 241.5 949.75C257.167 942.917 270.75 933.75 282.25 922.25C293.75 910.75 302.917 897.25 309.75 881.75C316.583 866.25 320 849.667 320 832Z" fill="black" fill-opacity="0.8956"/>
</g>
<defs>
<clipPath id="clip0_12_104">
<rect width="704" height="1024" fill="white"/>
</clipPath>
</defs>
</svg>
