<svg xmlns="http://www.w3.org/2000/svg" width="1025" height="1025" fill="none" viewBox="0 0 1025 1025">
  <g clip-path="url(#a)">
    <path fill="#000" fill-opacity=".896" d="M816.5 840.5h-560c-35.333 0-68.5-6.75-99.5-20.25s-58.083-31.833-81.25-55-41.5-50.25-55-81.25S.5 619.833.5 584.5c0-27.333 4.417-54 13.25-80S34.833 454.667 50.5 433c15.667-21.667 34.5-40.583 56.5-56.75S153.333 348 180 340c3.667-1 8.5-2.167 14.5-3.5 6-1.333 12.25-2.583 18.75-3.75a415.804 415.804 0 0 1 19.25-3c6.333-.833 11.833-1.25 16.5-1.25h4.5c14.667-22.333 31.833-42.417 51.5-60.25s41-32.917 64-45.25c23-12.333 47.333-21.833 73-28.5 25.667-6.667 51.833-10 78.5-10 36.333 0 71.25 5.917 104.75 17.75s64 28.333 91.5 49.5 51.083 46.5 70.75 76 34 61.917 43 97.25c27.333 1.667 52.75 8.25 76.25 19.75s44 26.667 61.5 45.5 31.25 40.417 41.25 64.75 15 50.167 15 77.5c0 28.667-5.5 55.583-16.5 80.75s-25.917 47.167-44.75 66S922.333 813 897 824s-52.167 16.5-80.5 16.5ZM103.5 700l423-178.5-163.5-98c-16.667-9.667-34.167-17.25-52.5-22.75s-37.167-8.25-56.5-8.25c-26 0-50.5 5.167-73.5 15.5s-43.083 24.25-60.25 41.75S89.5 487.667 79.5 511s-15 47.833-15 73.5c0 20.667 3.333 41.083 10 61.25S90.833 684 103.5 700Zm153 76.5h560c16 0 31.333-2.5 46-7.5 14.667-5 28.333-12.333 41-22L595 562.5l-439.5 185c15 9.333 31.083 16.5 48.25 21.5s34.75 7.5 52.75 7.5ZM600 491l116.5-49c15.333-6.333 31.333-11.333 48-15-8.333-26.333-20.5-50.5-36.5-72.5s-34.75-40.833-56.25-56.5c-21.5-15.667-45.167-27.833-71-36.5-25.833-8.667-52.583-13-80.25-13-18.667 0-37.083 2-55.25 6s-35.583 9.75-52.25 17.25-32.333 16.917-47 28.25c-14.667 11.333-28 24.167-40 38.5 12.667 3.333 24.75 7.583 36.25 12.75A310.93 310.93 0 0 1 396 369l204 122Zm68 40.5 277 166c5.333-10 9.25-20.5 11.75-31.5s3.75-22.167 3.75-33.5c0-22-4.167-41.917-12.5-59.75s-19.583-33.083-33.75-45.75c-14.167-12.667-30.75-22.417-49.75-29.25-19-6.833-39-10.25-60-10.25-12 0-23.833 1.417-35.5 4.25a284.507 284.507 0 0 0-34.5 10.75 492.228 492.228 0 0 0-33.5 14.25c-11 5.167-22 10.083-33 14.75Z"/>
  </g>
  <defs>
    <clipPath id="a">
      <path fill="#fff" d="M.5.5h1024v1024H.5z"/>
    </clipPath>
  </defs>
</svg>
