<!-- Exported by Character Map UWP -->
<svg height="100%" viewBox="0 176 1024 656" width="100%" xmlns="http://www.w3.org/2000/svg" xmlns:xlink="http://www.w3.org/1999/xlink">
  <path d="M816,832L256,832C220.667,832 187.5,825.25 156.5,811.75C125.5,798.25 98.4167,779.917 75.25,756.75C52.0833,733.583 33.75,706.5 20.25,675.5C6.75,644.5 0,611.333 0,576C0,548.667 4.41667,522 13.25,496C22.0833,470 34.3333,446.167 50,424.5C65.6667,402.833 84.5,383.917 106.5,367.75C128.5,351.583 152.833,339.5 179.5,331.5C183.167,330.5 188,329.333 194,328C200,326.667 206.25,325.417 212.75,324.25C219.25,323.083 225.667,322.083 232,321.25C238.333,320.417 243.833,320 248.5,320L253,320C267.667,297.667 284.833,277.583 304.5,259.75C324.167,241.917 345.5,226.833 368.5,214.5C391.5,202.167 415.833,192.667 441.5,186C467.167,179.333 493.333,176 520,176C556.333,176 591.25,181.917 624.75,193.75C658.25,205.583 688.75,222.083 716.25,243.25C743.75,264.417 767.333,289.75 787,319.25C806.667,348.75 821,381.167 830,416.5C857.333,418.167 882.75,424.75 906.25,436.25C929.75,447.75 950.25,462.917 967.75,481.75C985.25,500.583 999,522.167 1009,546.5C1019,570.833 1024,596.667 1024,624C1024,652.667 1018.5,679.583 1007.5,704.75C996.5,729.917 981.583,751.917 962.75,770.75C943.917,789.583 921.833,804.5 896.5,815.5C871.167,826.5 844.333,832 816,832ZM103,691.5L526,513L362.5,415C345.833,405.333 328.333,397.75 310,392.25C291.667,386.75 272.833,384 253.5,384C227.5,384 203,389.167 180,399.5C157,409.833 136.917,423.75 119.75,441.25C102.583,458.75 89,479.167 79,502.5C69,525.833 64,550.333 64,576C64,596.667 67.3333,617.083 74,637.25C80.6667,657.417 90.3333,675.5 103,691.5ZM256,768L816,768C832,768 847.333,765.5 862,760.5C876.667,755.5 890.333,748.167 903,738.5L594.5,554L155,739C170,748.333 186.083,755.5 203.25,760.5C220.417,765.5 238,768 256,768ZM599.5,482.5L716,433.5C731.333,427.167 747.333,422.167 764,418.5C755.667,392.167 743.5,368 727.5,346C711.5,324 692.75,305.167 671.25,289.5C649.75,273.833 626.083,261.667 600.25,253C574.417,244.333 547.667,240 520,240C501.333,240 482.917,242 464.75,246C446.583,250 429.167,255.75 412.5,263.25C395.833,270.75 380.167,280.167 365.5,291.5C350.833,302.833 337.5,315.667 325.5,330C338.167,333.333 350.25,337.583 361.75,342.75C373.25,347.917 384.5,353.833 395.5,360.5ZM667.5,523L944.5,689C949.833,679 953.75,668.5 956.25,657.5C958.75,646.5 960,635.333 960,624C960,602 955.833,582.083 947.5,564.25C939.167,546.417 927.917,531.167 913.75,518.5C899.583,505.833 883,496.083 864,489.25C845,482.417 825,479 804,479C792,479 780.167,480.417 768.5,483.25C756.833,486.083 745.333,489.667 734,494C722.667,498.333 711.5,503.083 700.5,508.25C689.5,513.417 678.5,518.333 667.5,523Z" fill="#000000" fill-opacity="1">
  </path>
</svg>