<svg width="1024" height="1024" viewBox="0 0 1024 1024" fill="none" xmlns="http://www.w3.org/2000/svg">
<g clip-path="url(#clip0_13_33)">
<path d="M317.5 1024C300.833 1024 284.917 1020.58 269.75 1013.75C254.583 1006.92 241.25 997.75 229.75 986.25C218.25 974.75 209.083 961.417 202.25 946.25C195.417 931.083 192 915.167 192 898.5V125.5C192 108.833 195.417 92.9167 202.25 77.75C209.083 62.5834 218.25 49.2501 229.75 37.75C241.25 26.2501 254.583 17.0834 269.75 10.25C284.917 3.41669 300.833 0 317.5 0H706.5C723.167 0 739.083 3.41669 754.25 10.25C769.417 17.0834 782.75 26.2501 794.25 37.75C805.75 49.2501 814.917 62.5834 821.75 77.75C828.583 92.9167 832 108.833 832 125.5V898.5C832 915.167 828.583 931.083 821.75 946.25C814.917 961.417 805.75 974.75 794.25 986.25C782.75 997.75 769.417 1006.92 754.25 1013.75C739.083 1020.58 723.167 1024 706.5 1024H317.5ZM704 960C713 960 721.333 958.333 729 955C736.667 951.667 743.417 947.083 749.25 941.25C755.083 935.417 759.667 928.667 763 921C766.333 913.333 768 905 768 896V128C768 119.333 766.333 111.083 763 103.25C759.667 95.4167 755.083 88.5834 749.25 82.75C743.417 76.9167 736.583 72.3334 728.75 69C720.917 65.6667 712.667 64.0001 704 64H320C311 64.0001 302.667 65.6667 295 69C287.333 72.3334 280.583 76.9167 274.75 82.75C268.917 88.5834 264.333 95.3334 261 103C257.667 110.667 256 119 256 128V896C256 905 257.667 913.417 261 921.25C264.333 929.083 268.833 935.833 274.5 941.5C280.167 947.167 286.917 951.667 294.75 955C302.583 958.333 311 960 320 960H704ZM448 832C439.333 832 431.833 828.833 425.5 822.5C419.167 816.167 416 808.667 416 800C416 791.333 419.167 783.833 425.5 777.5C431.833 771.167 439.333 768 448 768H576C584.667 768 592.167 771.167 598.5 777.5C604.833 783.833 608 791.333 608 800C608 808.667 604.833 816.167 598.5 822.5C592.167 828.833 584.667 832 576 832H448Z" fill="white"/>
</g>
<defs>
<clipPath id="clip0_13_33">
<rect width="640" height="1024" fill="white" transform="translate(192)"/>
</clipPath>
</defs>
</svg>
