<svg xmlns="http://www.w3.org/2000/svg" width="1024" height="1024" fill="none" viewBox="0 0 1024 1024">
  <path fill="#fff" d="M252 832c-25 0-48.917-5.083-71.75-15.25s-42.833-23.833-60-41-30.833-37.167-41-60C69.083 692.917 64 669 64 644V252c0-25 5.083-48.917 15.25-71.75s23.833-42.833 41-60 37.167-30.833 60-41C203.083 69.083 227 64 252 64h392c25 0 48.917 5.083 71.75 15.25s42.833 23.833 60 41 30.833 37.167 41 60C826.917 203.083 832 227 832 252v392c0 25-5.083 48.917-15.25 71.75s-23.833 42.833-41 60-37.167 30.833-60 41C692.917 826.917 669 832 644 832H252Zm196-376c17 0 33.333 3.25 49 9.75 15.667 6.5 29.5 15.75 41.5 27.75l212 211.5c5.667-9.667 10-20.083 13-31.25 3-11.167 4.5-22.417 4.5-33.75V253.5c0-16.667-3.417-32.583-10.25-47.75-6.833-15.167-16-28.5-27.5-40s-24.833-20.667-40-27.5C675.083 131.417 659.167 128 642.5 128h-389c-16.667 0-32.583 3.417-47.75 10.25-15.167 6.833-28.5 16-40 27.5s-20.667 24.833-27.5 40C131.417 220.917 128 236.833 128 253.5V640c0 11.333 1.5 22.583 4.5 33.75 3 11.167 7.333 21.583 13 31.25l212-211.5c12-12 25.833-21.25 41.5-27.75 15.667-6.5 32-9.75 49-9.75Zm96-168c0-9 1.667-17.333 5-25 3.333-7.667 7.917-14.417 13.75-20.25S575.333 232.333 583 229s16-5 25-5c8.667 0 16.917 1.667 24.75 5 7.833 3.333 14.667 7.917 20.5 13.75s10.417 12.667 13.75 20.5 5 16.083 5 24.75c0 9-1.667 17.333-5 25-3.333 7.667-7.917 14.417-13.75 20.25S640.667 343.667 633 347s-16 5-25 5-17.417-1.667-25.25-5c-7.833-3.333-14.583-7.833-20.25-13.5s-10.167-12.417-13.5-20.25-5-16.25-5-25.25ZM384 960c-27.333 0-53.5-5.5-78.5-16.5S259 916.667 241 896h434.5c30.333 0 58.917-6 85.75-18s50.25-28.25 70.25-48.75S867.25 785 878.75 758 896 702.333 896 672V241c20.667 18 36.5 39.5 47.5 64.5S960 356.667 960 384v288c0 39.667-7.583 77-22.75 112s-35.75 65.5-61.75 91.5-56.5 46.583-91.5 61.75C749 952.417 711.667 960 672 960H384Zm256-192c11.333 0 22.583-1.5 33.75-4.5 11.167-3 21.583-7.333 31.25-13l-211.5-212c-12.667-12.667-27.833-19-45.5-19s-32.833 6.333-45.5 19L191 750.5c9.667 5.667 20.083 10 31.25 13 11.167 3 22.417 4.5 33.75 4.5h384Z"/>
</svg>
