<svg width="896" height="896" viewBox="0 0 896 896" fill="none" xmlns="http://www.w3.org/2000/svg">
<g clip-path="url(#clip0_12_48)">
<path d="M188 768C163 768 139.083 762.917 116.25 752.75C93.417 742.583 73.417 728.917 56.25 711.75C39.083 694.583 25.4167 674.583 15.25 651.75C5.0833 628.917 0 605 0 580V188C0 163 5.0833 139.083 15.25 116.25C25.4167 93.417 39.083 73.417 56.25 56.25C73.417 39.083 93.417 25.4167 116.25 15.25C139.083 5.0834 163 0.0001 188 0H580C605 0.0001 628.917 5.0834 651.75 15.25C674.583 25.4167 694.583 39.083 711.75 56.25C728.917 73.417 742.583 93.417 752.75 116.25C762.917 139.083 768 163 768 188V580C768 605 762.917 628.917 752.75 651.75C742.583 674.583 728.917 694.583 711.75 711.75C694.583 728.917 674.583 742.583 651.75 752.75C628.917 762.917 605 768 580 768H188ZM384 392C401 392 417.333 395.25 433 401.75C448.667 408.25 462.5 417.5 474.5 429.5L686.5 641C692.167 631.333 696.5 620.917 699.5 609.75C702.5 598.583 704 587.333 704 576V189.5C704 172.833 700.583 156.917 693.75 141.75C686.917 126.583 677.75 113.25 666.25 101.75C654.75 90.25 641.417 81.083 626.25 74.25C611.083 67.417 595.167 64 578.5 64H189.5C172.833 64 156.917 67.417 141.75 74.25C126.583 81.083 113.25 90.25 101.75 101.75C90.25 113.25 81.083 126.583 74.25 141.75C67.417 156.917 64 172.833 64 189.5V576C64 587.333 65.5 598.583 68.5 609.75C71.5 620.917 75.833 631.333 81.5 641L293.5 429.5C305.5 417.5 319.333 408.25 335 401.75C350.667 395.25 367 392 384 392ZM480 224C480 215 481.667 206.667 485 199C488.333 191.333 492.917 184.583 498.75 178.75C504.583 172.917 511.333 168.333 519 165C526.667 161.667 535 160 544 160C552.667 160 560.917 161.667 568.75 165C576.583 168.333 583.417 172.917 589.25 178.75C595.083 184.583 599.667 191.417 603 199.25C606.333 207.083 608 215.333 608 224C608 233 606.333 241.333 603 249C599.667 256.667 595.083 263.417 589.25 269.25C583.417 275.083 576.667 279.667 569 283C561.333 286.333 553 288 544 288C535 288 526.583 286.333 518.75 283C510.917 279.667 504.167 275.167 498.5 269.5C492.833 263.833 488.333 257.083 485 249.25C481.667 241.417 480 233 480 224ZM320 896C292.667 896 266.5 890.5 241.5 879.5C216.5 868.5 195 852.667 177 832H611.5C641.833 832 670.417 826 697.25 814C724.083 802 747.5 785.75 767.5 765.25C787.5 744.75 803.25 721 814.75 694C826.25 667 832 638.333 832 608V177C852.667 195 868.5 216.5 879.5 241.5C890.5 266.5 896 292.667 896 320V608C896 647.667 888.417 685 873.25 720C858.083 755 837.5 785.5 811.5 811.5C785.5 837.5 755 858.083 720 873.25C685 888.417 647.667 896 608 896H320ZM576 704C587.333 704 598.583 702.5 609.75 699.5C620.917 696.5 631.333 692.167 641 686.5L429.5 474.5C416.833 461.833 401.667 455.5 384 455.5C366.333 455.5 351.167 461.833 338.5 474.5L127 686.5C136.667 692.167 147.083 696.5 158.25 699.5C169.417 702.5 180.667 704 192 704H576Z" fill="black" fill-opacity="0.8956"/>
</g>
<defs>
<clipPath id="clip0_12_48">
<rect width="896" height="896" fill="white"/>
</clipPath>
</defs>
</svg>
