<svg xmlns="http://www.w3.org/2000/svg" width="1025" height="1025" fill="none" viewBox="0 0 1025 1025">
  <path fill="#000" fill-opacity=".896" d="M252.5 832.5c-25 0-48.917-5.083-71.75-15.25s-42.833-23.833-60-41-30.833-37.167-41-60C69.583 693.417 64.5 669.5 64.5 644.5v-392c0-25 5.083-48.917 15.25-71.75s23.833-42.833 41-60 37.167-30.833 60-41C203.583 69.583 227.5 64.5 252.5 64.5h392c25 0 48.917 5.083 71.75 15.25s42.833 23.833 60 41 30.833 37.167 41 60c10.167 22.833 15.25 46.75 15.25 71.75v392c0 25-5.083 48.917-15.25 71.75s-23.833 42.833-41 60-37.167 30.833-60 41c-22.833 10.167-46.75 15.25-71.75 15.25h-392Zm196-376c17 0 33.333 3.25 49 9.75C513.167 472.75 527 482 539 494l212 211.5c5.667-9.667 10-20.083 13-31.25 3-11.167 4.5-22.417 4.5-33.75V254c0-16.667-3.417-32.583-10.25-47.75-6.833-15.167-16-28.5-27.5-40s-24.833-20.667-40-27.5c-15.167-6.833-31.083-10.25-47.75-10.25H254c-16.667 0-32.583 3.417-47.75 10.25-15.167 6.833-28.5 16-40 27.5s-20.667 24.833-27.5 40c-6.833 15.167-10.25 31.083-10.25 47.75v386.5c0 11.333 1.5 22.583 4.5 33.75 3 11.167 7.333 21.583 13 31.25L358 494c12-12 25.833-21.25 41.5-27.75 15.667-6.5 32-9.75 49-9.75Zm96-168c0-9 1.667-17.333 5-25 3.333-7.667 7.917-14.417 13.75-20.25s12.583-10.417 20.25-13.75 16-5 25-5c8.667 0 16.917 1.667 24.75 5 7.833 3.333 14.667 7.917 20.5 13.75s10.417 12.667 13.75 20.5 5 16.083 5 24.75c0 9-1.667 17.333-5 25-3.333 7.667-7.917 14.417-13.75 20.25s-12.583 10.417-20.25 13.75-16 5-25 5-17.417-1.667-25.25-5c-7.833-3.333-14.583-7.833-20.25-13.5s-10.167-12.417-13.5-20.25-5-16.25-5-25.25Zm-160 672c-27.333 0-53.5-5.5-78.5-16.5s-46.5-26.833-64.5-47.5H676c30.333 0 58.917-6 85.75-18S812 850.25 832 829.75s35.75-44.25 47.25-71.25 17.25-55.667 17.25-86v-431c20.667 18 36.5 39.5 47.5 64.5s16.5 51.167 16.5 78.5v288c0 39.667-7.583 77-22.75 112S902 850 876 876s-56.5 46.583-91.5 61.75c-35 15.167-72.333 22.75-112 22.75h-288Zm256-192c11.333 0 22.583-1.5 33.75-4.5 11.167-3 21.583-7.333 31.25-13L494 539c-12.667-12.667-27.833-19-45.5-19s-32.833 6.333-45.5 19L191.5 751c9.667 5.667 20.083 10 31.25 13 11.167 3 22.417 4.5 33.75 4.5h384Z"/>
</svg>
