<svg xmlns="http://www.w3.org/2000/svg" width="1025" height="1025" fill="none" viewBox="0 0 1025 1025">
  <path fill="#000" fill-opacity=".896" d="M772.5 64.5c25 0 48.917 5.083 71.75 15.25s42.833 23.833 60 41 30.833 37.167 41 60c10.167 22.833 15.25 46.75 15.25 71.75v520c0 25-5.083 48.917-15.25 71.75s-23.833 42.833-41 60-37.167 30.833-60 41c-22.833 10.167-46.75 15.25-71.75 15.25h-520c-25 0-48.917-5.083-71.75-15.25s-42.833-23.833-60-41-30.833-37.167-41-60C69.583 821.417 64.5 797.5 64.5 772.5v-520c0-25 5.083-48.917 15.25-71.75s23.833-42.833 41-60 37.167-30.833 60-41C203.583 69.583 227.5 64.5 252.5 64.5h520Zm-626 769 287-287c10.667-10.667 22.75-18.75 36.25-24.25S497.5 514 512.5 514s29.25 2.75 42.75 8.25 25.583 13.583 36.25 24.25l287 287c6-9.667 10.5-20 13.5-31s4.5-22.333 4.5-34V254c0-16.667-3.417-32.583-10.25-47.75-6.833-15.167-16-28.5-27.5-40s-24.833-20.667-40-27.5c-15.167-6.833-31.083-10.25-47.75-10.25H254c-16.667 0-32.583 3.417-47.75 10.25-15.167 6.833-28.5 16-40 27.5s-20.667 24.833-27.5 40c-6.833 15.167-10.25 31.083-10.25 47.75v514.5c0 11.667 1.5 23 4.5 34s7.5 21.333 13.5 31Zm430-481c0-13 2.5-25.333 7.5-37 5-11.667 11.917-21.917 20.75-30.75 8.833-8.833 19.083-15.75 30.75-20.75 11.667-5 24-7.5 37-7.5s25.333 2.5 37 7.5c11.667 5 21.917 11.917 30.75 20.75 8.833 8.833 15.75 19.083 20.75 30.75 5 11.667 7.5 24 7.5 37s-2.5 25.333-7.5 37c-5 11.667-11.917 21.917-20.75 30.75-8.833 8.833-19.083 15.75-30.75 20.75-11.667 5-24 7.5-37 7.5s-25.333-2.5-37-7.5c-11.667-5-21.917-11.917-30.75-20.75-8.833-8.833-15.75-19.083-20.75-30.75-5-11.667-7.5-24-7.5-37Zm64 0c0 8.667 3.167 16.167 9.5 22.5 6.333 6.333 13.833 9.5 22.5 9.5s16.167-3.167 22.5-9.5c6.333-6.333 9.5-13.833 9.5-22.5s-3.167-16.167-9.5-22.5c-6.333-6.333-13.833-9.5-22.5-9.5s-16.167 3.167-22.5 9.5c-6.333 6.333-9.5 13.833-9.5 22.5Zm128 544c23.667 0 45.333-6 65-18l-287-287c-9.333-9.333-20.667-14-34-14-13.333 0-24.667 4.667-34 14l-287 287c9.667 6 20 10.5 31 13.5s22.333 4.5 34 4.5h512Z"/>
</svg>
