<svg width="1024" height="1024" viewBox="0 0 1024 1024" fill="none" xmlns="http://www.w3.org/2000/svg">
<g clip-path="url(#clip0_13_16)">
<path d="M0 855.165C0 832.52 4.25 811.041 12.75 790.728C21.25 770.415 33.5 752.265 49.5 736.281L393.5 392.617C390.833 380.961 388.583 369.057 386.75 356.901C384.917 344.746 384 332.508 384 320.187C384 290.549 387.833 262.077 395.5 234.771C403.167 207.464 413.917 181.989 427.75 158.345C441.583 134.701 458.167 113.14 477.5 93.6585C496.833 74.1776 518.333 57.5272 542 43.7073C565.667 29.8875 591.167 19.148 618.5 11.4888C645.833 3.82963 674.333 0 704 0C710 0 718.083 0.499512 728.25 1.49854C738.417 2.49756 749.417 3.9961 761.25 5.99415C773.083 7.9922 785.167 10.6563 797.5 13.9863C809.833 17.3165 820.917 21.3126 830.75 25.9746C840.583 30.6368 848.667 36.1314 855 42.4585C861.333 48.7858 864.5 55.7789 864.5 63.438C864.5 72.0963 861.333 79.589 855 85.9161L685.5 255.75L768 338.17L938 168.835C944.333 162.508 951.833 159.344 960.5 159.344C968.5 159.344 975.583 162.508 981.75 168.835C987.917 175.162 993.333 183.321 998 193.311C1002.67 203.301 1006.67 214.374 1010 226.529C1013.33 238.684 1016 250.672 1018 262.494C1020 274.315 1021.5 285.304 1022.5 295.461C1023.5 305.619 1024 313.694 1024 319.688C1024 363.978 1015.67 405.521 999 444.316C982.333 483.111 959.5 516.995 930.5 545.967C901.5 574.939 867.583 597.749 828.75 614.4C789.917 631.051 748.333 639.376 704 639.376C691.667 639.376 679.417 638.46 667.25 636.628C655.083 634.797 643 632.549 631 629.885L287 974.049C280 981.042 272.167 987.536 263.5 993.53C254.833 999.524 245.583 1004.77 235.75 1009.26C225.917 1013.76 215.917 1017.26 205.75 1019.75C195.583 1022.25 185.5 1023.5 175.5 1023.5C151.167 1023.5 128.333 1019.42 107 1011.26C85.6667 1003.1 67.0833 991.615 51.25 976.796C35.4167 961.978 22.9167 944.245 13.75 923.598C4.58333 902.951 0 880.14 0 855.165ZM622 561.951C625.333 561.951 628.5 562.451 631.5 563.45C643.5 567.113 655.5 570.026 667.5 572.191C679.5 574.356 691.833 575.438 704.5 575.438C739.833 575.438 773 568.695 804 555.208C835 541.721 862.083 523.406 885.25 500.261C908.417 477.117 926.667 450.06 940 419.091C953.333 388.121 960 354.986 960 319.688C960 307.367 959.083 295.212 957.25 283.223C955.417 271.235 952.667 259.414 949 247.758L790.5 406.103C784.5 412.098 777 415.095 768 415.095C759 415.095 751.5 412.098 745.5 406.103L617.5 278.228C611.167 271.901 608 264.409 608 255.75C608 247.092 611.167 239.599 617.5 233.272L776 74.9268C764.333 71.2638 752.5 68.5165 740.5 66.6849C728.5 64.8534 716.333 63.9377 704 63.9376C668.667 63.9377 635.5 70.6811 604.5 84.1678C573.5 97.6547 546.417 115.97 523.25 139.114C500.083 162.259 481.75 189.315 468.25 220.285C454.75 251.255 448 284.389 448 319.688C448 332.342 449.083 344.58 451.25 356.402C453.417 368.223 456.333 380.129 460 392.117C461 395.114 461.5 398.278 461.5 401.608C461.5 410.599 458.333 418.259 452 424.585L94.5 781.737C84.8333 791.394 77.3333 802.549 72 815.204C66.6667 827.859 64 841.179 64 855.165C64 869.484 66.75 882.888 72.25 895.376C77.75 907.863 85.25 918.853 94.75 928.343C104.25 937.834 115.25 945.327 127.75 950.821C140.25 956.316 153.667 959.063 168 959.063C182 959.063 195.333 956.399 208 951.071C220.667 945.743 231.833 938.251 241.5 928.593L599 571.442C605.333 565.115 613 561.951 622 561.951Z" fill="black" fill-opacity="0.896"/>
</g>
<defs>
<clipPath id="clip0_13_16">
<rect width="1024" height="1024" fill="white"/>
</clipPath>
</defs>
</svg>
