<svg width="896" height="1024" viewBox="0 0 896 1024" fill="none" xmlns="http://www.w3.org/2000/svg">
<g clip-path="url(#clip0_12_64)">
<path d="M0 480V192C0 182.667 2.5833 175.667 7.75 171C12.9167 166.333 19.5 162.833 27.5 160.5C34.8333 158.5 42.5 157.083 50.5 156.25C58.5 155.417 66.167 154.167 73.5 152.5C86.167 150.167 98.75 147.583 111.25 144.75C123.75 141.917 136.333 138.667 149 135C175 127.667 200 119.5 224 110.5C248 101.5 271.417 91.6667 294.25 81C317.083 70.3334 339.667 58.6667 362 46C384.333 33.3334 407 19.8334 430 5.5C433 3.83337 435.833 2.5 438.5 1.5C441.167 0.5 444.333 0 448 0C451.667 0 454.833 0.5 457.5 1.5C460.167 2.5 463 3.83337 466 5.5C489 19.8334 511.667 33.3334 534 46C556.333 58.6667 578.917 70.3334 601.75 81C624.583 91.6667 648 101.5 672 110.5C696 119.5 721 127.667 747 135C759.667 138.667 772.25 141.917 784.75 144.75C797.25 147.583 809.833 150.167 822.5 152.5C829.833 154.167 837.5 155.417 845.5 156.25C853.5 157.083 861.167 158.5 868.5 160.5C876.5 162.833 883.083 166.333 888.25 171C893.417 175.667 896 182.667 896 192V480C896 550.333 884.833 613.75 862.5 670.25C840.167 726.75 809.417 777.083 770.25 821.25C731.083 865.417 684.917 904 631.75 937C578.583 970 521.167 998.333 459.5 1022C456.5 1023.33 452.667 1024 448 1024C446.333 1024 444.417 1023.83 442.25 1023.5C440.083 1023.17 438.167 1022.67 436.5 1022C374.833 998.667 317.417 970.417 264.25 937.25C211.083 904.083 164.917 865.25 125.75 820.75C86.583 776.25 55.833 725.833 33.5 669.5C11.1667 613.167 0 550 0 480ZM832 480V219.5C763.667 207.833 697.167 189.5 632.5 164.5C567.833 139.5 506.333 108 448 70C389.667 108 328.167 139.5 263.5 164.5C198.833 189.5 132.333 207.833 64 219.5V480C64 542.333 73.833 598.25 93.5 647.75C113.167 697.25 140.25 741.333 174.75 780C209.25 818.667 249.833 852.583 296.5 881.75C343.167 910.917 393.667 936.167 448 957.5C502.333 936.167 552.833 910.917 599.5 881.75C646.167 852.583 686.75 818.667 721.25 780C755.75 741.333 782.833 697.25 802.5 647.75C822.167 598.25 832 542.333 832 480Z" fill="black" fill-opacity="0.8956"/>
</g>
<defs>
<clipPath id="clip0_12_64">
<rect width="896" height="1024" fill="white"/>
</clipPath>
</defs>
</svg>
