<svg xmlns="http://www.w3.org/2000/svg" width="1025" height="1025" fill="none" viewBox="0 0 1025 1025">
  <g clip-path="url(#a)">
    <path fill="#000" fill-opacity=".896" d="M64.5 480.5v-288c0-9.333 2.583-16.333 7.75-21C77.417 166.833 84 163.333 92 161c7.333-2 15-3.417 23-4.25 8-.833 15.667-2.083 23-3.75a945.971 945.971 0 0 0 37.75-7.75 661.834 661.834 0 0 0 37.75-9.75c26-7.333 51-15.5 75-24.5s47.417-18.833 70.25-29.5c22.833-10.667 45.417-22.333 67.75-35 22.333-12.667 45-26.167 68-40.5 3-1.667 5.833-3 8.5-4s5.833-1.5 9.5-1.5 6.833.5 9.5 1.5 5.5 2.333 8.5 4c23 14.333 45.667 27.833 68 40.5 22.333 12.667 44.917 24.333 67.75 35A973.483 973.483 0 0 0 736.5 111c24 9 49 17.167 75 24.5a661.834 661.834 0 0 0 37.75 9.75A945.971 945.971 0 0 0 887 153c7.333 1.667 15 2.917 23 3.75 8 .833 15.667 2.25 23 4.25 8 2.333 14.583 5.833 19.75 10.5s7.75 11.667 7.75 21v288c0 70.333-11.167 133.75-33.5 190.25s-53.083 106.833-92.25 151-85.333 82.75-138.5 115.75-110.583 61.333-172.25 85c-3 1.33-6.833 2-11.5 2-1.667 0-3.583-.17-5.75-.5-2.167-.33-4.083-.83-5.75-1.5-61.667-23.333-119.083-51.583-172.25-84.75s-99.333-72-138.5-116.5S120.333 726.333 98 670 64.5 550.5 64.5 480.5Zm832 0V220c-68.333-11.667-134.833-30-199.5-55s-126.167-56.5-184.5-94.5C454.167 108.5 392.667 140 328 165s-131.167 43.333-199.5 55v260.5c0 62.333 9.833 118.25 29.5 167.75s46.75 93.583 81.25 132.25S314.333 853.083 361 882.25s97.167 54.417 151.5 75.75c54.333-21.333 104.833-46.583 151.5-75.75s87.25-63.083 121.75-101.75 61.583-82.75 81.25-132.25 29.5-105.417 29.5-167.75Z"/>
  </g>
  <defs>
    <clipPath id="a">
      <path fill="#fff" d="M.5.5h1024v1024H.5z"/>
    </clipPath>
  </defs>
</svg>
