<svg xmlns="http://www.w3.org/2000/svg" width="1024" height="1024" fill="none" viewBox="0 0 1024 1024">
  <path fill="#fff" d="M64 480V192c0-9.333 2.583-16.333 7.75-21 5.167-4.667 11.75-8.167 19.75-10.5 7.333-2 15-3.417 23-4.25 8-.833 15.667-2.083 23-3.75a945.971 945.971 0 0 0 37.75-7.75A661.834 661.834 0 0 0 213 135c26-7.333 51-15.5 75-24.5s47.417-18.833 70.25-29.5c22.833-10.667 45.417-22.333 67.75-35 22.333-12.667 45-26.167 68-40.5 3-1.667 5.833-3 8.5-4S508.333 0 512 0s6.833.5 9.5 1.5 5.5 2.333 8.5 4c23 14.333 45.667 27.833 68 40.5 22.333 12.667 44.917 24.333 67.75 35A973.483 973.483 0 0 0 736 110.5c24 9 49 17.167 75 24.5a661.834 661.834 0 0 0 37.75 9.75 945.971 945.971 0 0 0 37.75 7.75c7.333 1.667 15 2.917 23 3.75 8 .833 15.667 2.25 23 4.25 8 2.333 14.583 5.833 19.75 10.5s7.75 11.667 7.75 21v288c0 70.333-11.167 133.75-33.5 190.25s-53.083 106.833-92.25 151S748.917 904 695.75 937s-110.583 61.333-172.25 85c-3 1.33-6.833 2-11.5 2-1.667 0-3.583-.17-5.75-.5-2.167-.33-4.083-.83-5.75-1.5-61.667-23.333-119.083-51.583-172.25-84.75s-99.333-72-138.5-116.5-69.917-94.917-92.25-151.25S64 550 64 480Zm832 0V219.5c-68.333-11.667-134.833-30-199.5-55S570.333 108 512 70c-58.333 38-119.833 69.5-184.5 94.5s-131.167 43.333-199.5 55V480c0 62.333 9.833 118.25 29.5 167.75s46.75 93.583 81.25 132.25 75.083 72.583 121.75 101.75 97.167 54.417 151.5 75.75c54.333-21.333 104.833-46.583 151.5-75.75S750.75 818.667 785.25 780s61.583-82.75 81.25-132.25S896 542.333 896 480Z"/>
</svg>
