<svg xmlns="http://www.w3.org/2000/svg" width="1024" height="1024" fill="none" viewBox="0 0 1024 1024">
  <g clip-path="url(#a)">
    <path fill="#fff" d="M1024 96v256c0 8.667-3.17 16.167-9.5 22.5-6.33 6.333-13.83 9.5-22.5 9.5H736c-8.667 0-16.167-3.167-22.5-9.5-6.333-6.333-9.5-13.833-9.5-22.5s3.167-16.167 9.5-22.5c6.333-6.333 13.833-9.5 22.5-9.5h180.5c-18.333-40-41.75-75.833-70.25-107.5S785.667 154 750 132s-74.083-38.833-115.25-50.5C593.583 69.833 551.167 64 507.5 64c-37 0-73.417 4.833-109.25 14.5s-69.75 23.333-101.75 41-61.667 39-89 64-51.167 52.833-71.5 83.5c-13 19.667-24.167 40.5-33.5 62.5a177.305 177.305 0 0 0-6.25 16.5 118.163 118.163 0 0 1-6.75 16.5c-3.667 6.667-7.5 11.917-11.5 15.75S67.833 384 59.5 384c-8.667 0-16.167-3.167-22.5-9.5-6.333-6.333-9.5-13.833-9.5-22.5 0-4 .5-7.5 1.5-10.5 17.667-50 42.5-95.833 74.5-137.5s69-77.667 111-108 87.917-53.917 137.75-70.75S453.5 0 506.5 0c47 0 92.833 6 137.5 18s86.583 29.25 125.75 51.75 75 50.167 107.5 83S937.333 222.667 960 264V96c0-8.667 3.167-16.167 9.5-22.5 6.333-6.333 13.833-9.5 22.5-9.5 8.67 0 16.17 3.167 22.5 9.5 6.33 6.333 9.5 13.833 9.5 22.5Zm-34 576c0 5.667-2.25 14.083-6.75 25.25S973.5 720 967.5 732s-12.083 23.5-18.25 34.5-11.083 19.167-14.75 24.5c-23.667 35.333-51.083 67.333-82.25 96S787.333 940.167 751 960.5s-74.75 36-115.25 47S553.5 1024 510.5 1024c-46 0-90.75-5.58-134.25-16.75-43.5-11.167-84.5-27.5-123-49S179.333 910.333 147 879s-60-67-83-107v156c0 8.667-3.167 16.167-9.5 22.5-6.333 6.333-13.833 9.5-22.5 9.5s-16.167-3.167-22.5-9.5C3.167 944.167 0 936.667 0 928V672c0-8.667 3.167-16.167 9.5-22.5 6.333-6.333 13.833-9.5 22.5-9.5h256c8.667 0 16.167 3.167 22.5 9.5 6.333 6.333 9.5 13.833 9.5 22.5s-3.167 16.167-9.5 22.5c-6.333 6.333-13.833 9.5-22.5 9.5H100.5c18.333 40 41.833 75.833 70.5 107.5s60.75 58.5 96.25 80.5 73.833 38.833 115 50.5c41.167 11.667 83.583 17.5 127.25 17.5 37 0 73.333-4.75 109-14.25s69.583-23.083 101.75-40.75 61.917-39 89.25-64 51.167-53 71.5-84c13-19.667 24.167-40.5 33.5-62.5a177.22 177.22 0 0 0 6.25-16.5 118.09 118.09 0 0 1 6.75-16.5c3.667-6.667 7.5-11.917 11.5-15.75s10.167-5.75 18.5-5.75c9 0 16.667 3.083 23 9.25 6.333 6.167 9.5 13.75 9.5 22.75Z"/>
  </g>
  <defs>
    <clipPath id="a">
      <path fill="#fff" d="M0 0h1024v1024H0z"/>
    </clipPath>
  </defs>
</svg>
