<svg width="1024" height="768" viewBox="0 0 1024 768" fill="none" xmlns="http://www.w3.org/2000/svg">
<g clip-path="url(#clip0_12_50)">
<path d="M898.5 0C915.167 0 931.083 3.417 946.25 10.25C961.417 17.083 974.75 26.25 986.25 37.75C997.75 49.25 1006.92 62.583 1013.75 77.75C1020.58 92.917 1024 108.833 1024 125.5V642.5C1024 659.167 1020.58 675.083 1013.75 690.25C1006.92 705.417 997.75 718.75 986.25 730.25C974.75 741.75 961.417 750.917 946.25 757.75C931.083 764.583 915.167 768 898.5 768H125.5C108.833 768 92.9167 764.583 77.75 757.75C62.5833 750.917 49.25 741.75 37.75 730.25C26.25 718.75 17.0833 705.417 10.25 690.25C3.41667 675.083 0 659.167 0 642.5V125.5C0 108.833 3.41667 92.917 10.25 77.75C17.0833 62.583 26.25 49.25 37.75 37.75C49.25 26.25 62.5833 17.083 77.75 10.25C92.9167 3.417 108.833 0 125.5 0H898.5ZM128 64C119 64 110.667 65.667 103 69C95.3333 72.333 88.5833 76.917 82.75 82.75C76.9167 88.583 72.3333 95.333 69 103C65.6667 110.667 64 119 64 128V512H960V128C960 119.333 958.333 111.083 955 103.25C951.667 95.417 947.083 88.583 941.25 82.75C935.417 76.917 928.583 72.333 920.75 69C912.917 65.667 904.667 64 896 64H128ZM960 576H64V640C64 649 65.6667 657.417 69 665.25C72.3333 673.083 76.8333 679.833 82.5 685.5C88.1667 691.167 94.9167 695.667 102.75 699C110.583 702.333 119 704 128 704H896C905 704 913.333 702.333 921 699C928.667 695.667 935.417 691.083 941.25 685.25C947.083 679.417 951.667 672.667 955 665C958.333 657.333 960 649 960 640V576Z" fill="black" fill-opacity="0.8956"/>
</g>
<defs>
<clipPath id="clip0_12_50">
<rect width="1024" height="768" fill="white"/>
</clipPath>
</defs>
</svg>
