<svg xmlns="http://www.w3.org/2000/svg" width="1025" height="1025" fill="none" viewBox="0 0 1025 1025">
  <g clip-path="url(#a)">
    <path fill="#000" fill-opacity=".896" d="M899 128.5c16.667 0 32.583 3.417 47.75 10.25 15.167 6.833 28.5 16 40 27.5s20.67 24.833 27.5 40c6.83 15.167 10.25 31.083 10.25 47.75v517c0 16.667-3.42 32.583-10.25 47.75-6.83 15.167-16 28.5-27.5 40s-24.833 20.667-40 27.5c-15.167 6.833-31.083 10.25-47.75 10.25H126c-16.667 0-32.583-3.417-47.75-10.25-15.167-6.833-28.5-16-40-27.5s-20.667-24.833-27.5-40C3.917 803.583.5 787.667.5 771V254c0-16.667 3.417-32.583 10.25-47.75 6.833-15.167 16-28.5 27.5-40s24.833-20.667 40-27.5c15.167-6.833 31.083-10.25 47.75-10.25h773Zm-770.5 64c-9 0-17.333 1.667-25 5-7.667 3.333-14.417 7.917-20.25 13.75S72.833 223.833 69.5 231.5s-5 16-5 25v384h896v-384c0-8.667-1.667-16.917-5-24.75-3.333-7.833-7.917-14.667-13.75-20.5s-12.667-10.417-20.5-13.75-16.083-5-24.75-5h-768Zm832 512h-896v64c0 9 1.667 17.417 5 25.25 3.333 7.833 7.833 14.583 13.5 20.25s12.417 10.167 20.25 13.5 16.25 5 25.25 5h768c9 0 17.333-1.667 25-5 7.667-3.333 14.417-7.917 20.25-13.75s10.417-12.583 13.75-20.25 5-16 5-25v-64Z"/>
  </g>
  <defs>
    <clipPath id="a">
      <path fill="#fff" d="M.5.5h1024v1024H.5z"/>
    </clipPath>
  </defs>
</svg>
