<svg xmlns="http://www.w3.org/2000/svg" width="1025" height="1025" fill="none" viewBox="0 0 1025 1025">
  <g clip-path="url(#a)">
    <path fill="#000" fill-opacity=".896" d="M992.5 160.5c0 7.333-1.417 13.167-4.25 17.5s-6.583 7.583-11.25 9.75-9.833 3.583-15.5 4.25c-5.667.667-11.5 1-17.5 1-3.333 0-6.667-.083-10-.25-3.333-.167-6.333-.25-9-.25L842 911c-2 16-6.667 30.917-14 44.75-7.333 13.833-16.667 25.833-28 36-11.333 10.17-24.333 18.17-39 24-14.667 5.83-30 8.75-46 8.75H310c-16 0-31.333-2.92-46-8.75-14.667-5.83-27.667-13.83-39-24-11.333-10.167-20.667-22.167-28-36-7.333-13.833-12-28.75-14-44.75l-83-718.5h-5l-10 .5h-5c-5.667 0-11.333-.333-17-1s-10.75-2.167-15.25-4.5-8.167-5.667-11-10-4.25-10-4.25-17c0-8.667 3.167-16.167 9.5-22.5 6.333-6.333 13.833-9.5 22.5-9.5h291c3.333-18.333 9.917-35.333 19.75-51 9.833-15.667 21.833-29.25 36-40.75 14.167-11.5 29.917-20.417 47.25-26.75 17.333-6.333 35.333-9.5 54-9.5s36.667 3.167 54 9.5 33.083 15.25 47.25 26.75c14.167 11.5 26.167 25.083 36 40.75 9.833 15.667 16.417 32.667 19.75 51h291c8.667 0 16.167 3.167 22.5 9.5 6.333 6.333 9.5 13.833 9.5 22.5Zm-570.5-32h181c-3.333-9.667-8-18.417-14-26.25-6-7.833-13-14.583-21-20.25s-16.667-10-26-13c-9.333-3-19.167-4.5-29.5-4.5-10.333 0-20.167 1.5-29.5 4.5-9.333 3-18 7.333-26 13s-15 12.417-21 20.25-10.667 16.583-14 26.25Zm438.5 64h-696l82 711.5c2 16.667 8.917 30.25 20.75 40.75S293.333 960.5 310 960.5h405c8 0 15.667-1.417 23-4.25s13.833-6.75 19.5-11.75 10.333-11 14-18 6-14.5 7-22.5l82-711.5Zm-476 544v-320c0-8.667 3.167-16.167 9.5-22.5 6.333-6.333 13.833-9.5 22.5-9.5s16.167 3.167 22.5 9.5c6.333 6.333 9.5 13.833 9.5 22.5v320c0 8.667-3.167 16.167-9.5 22.5-6.333 6.333-13.833 9.5-22.5 9.5s-16.167-3.167-22.5-9.5c-6.333-6.333-9.5-13.833-9.5-22.5Zm192 0v-320c0-8.667 3.167-16.167 9.5-22.5 6.333-6.333 13.833-9.5 22.5-9.5s16.167 3.167 22.5 9.5c6.333 6.333 9.5 13.833 9.5 22.5v320c0 8.667-3.167 16.167-9.5 22.5-6.333 6.333-13.833 9.5-22.5 9.5s-16.167-3.167-22.5-9.5c-6.333-6.333-9.5-13.833-9.5-22.5Z"/>
  </g>
  <defs>
    <clipPath id="a">
      <path fill="#fff" d="M.5.5h1024v1024H.5z"/>
    </clipPath>
  </defs>
</svg>
