<svg width="729" height="528" viewBox="0 0 729 528" fill="none" xmlns="http://www.w3.org/2000/svg">
<g clip-path="url(#clip0_12_70)">
<path d="M364 64C339.333 64 314.833 66.667 290.5 72C266.167 77.333 242.75 85.083 220.25 95.25C197.75 105.417 176.417 117.833 156.25 132.5C136.083 147.167 117.833 163.667 101.5 182C93.5 191 86.25 200.5 79.75 210.5C73.25 220.5 66.333 230.333 59 240C55 245 51.083 248.917 47.25 251.75C43.417 254.583 38.167 256 31.5 256C22.833 256 15.333 252.833 9 246.5C2.667 240.167 -0.5 232.667 -0.5 224C-0.5 218.667 0.833 213.333 3.5 208C20.5 176.333 42.167 147.667 68.5 122C94.833 96.333 124 74.5 156 56.5C188 38.5 221.75 24.583 257.25 14.75C292.75 4.917 328.333 0 364 0C399.333 0 434.833 4.917 470.5 14.75C506.167 24.583 540 38.5 572 56.5C604 74.5 633.167 96.333 659.5 122C685.833 147.667 707.5 176.333 724.5 208C727.167 213.333 728.5 218.667 728.5 224C728.5 232.667 725.333 240.167 719 246.5C712.667 252.833 705.167 256 696.5 256C689.833 256 684.583 254.583 680.75 251.75C676.917 248.917 673 245 669 240C661.667 230.333 654.75 220.5 648.25 210.5C641.75 200.5 634.5 191 626.5 182C610.167 163.667 591.917 147.167 571.75 132.5C551.583 117.833 530.25 105.417 507.75 95.25C485.25 85.083 461.833 77.333 437.5 72C413.167 66.667 388.667 64 364 64ZM364 256C345.333 256 327.5 258.583 310.5 263.75C293.5 268.917 277 276.333 261 286C252 291.667 244.25 297.333 237.75 303C231.25 308.667 225.417 314.667 220.25 321C215.083 327.333 210.167 334.083 205.5 341.25C200.833 348.417 195.833 356.5 190.5 365.5C187.167 371.167 183.167 375.667 178.5 379C173.833 382.333 168.167 384 161.5 384C152.5 384 144.917 380.833 138.75 374.5C132.583 368.167 129.5 360.5 129.5 351.5C129.5 347.167 130.5 342.667 132.5 338C142.167 316.667 155.333 297 172 279C188.667 261 207.333 245.583 228 232.75C248.667 219.917 270.667 209.917 294 202.75C317.333 195.583 340.667 192 364 192C388 192 411.667 195.5 435 202.5C458.333 209.5 480.25 219.333 500.75 232C521.25 244.667 539.667 260 556 278C572.333 296 585.5 316 595.5 338C597.5 342.667 598.5 347.167 598.5 351.5C598.5 360.167 595.333 367.75 589 374.25C582.667 380.75 575.167 384 566.5 384C559.833 384 554.167 382.333 549.5 379C544.833 375.667 540.833 371.167 537.5 365.5C532.167 356.5 527.167 348.417 522.5 341.25C517.833 334.083 512.833 327.333 507.5 321C502.167 314.667 496.25 308.667 489.75 303C483.25 297.333 475.5 291.667 466.5 286C450.833 276.333 434.417 268.917 417.25 263.75C400.083 258.583 382.333 256 364 256ZM284 448C284 437 286.167 426.667 290.5 417C294.833 407.333 300.583 398.917 307.75 391.75C314.917 384.583 323.333 378.833 333 374.5C342.667 370.167 353 368 364 368C375 368 385.333 370.167 395 374.5C404.667 378.833 413.083 384.583 420.25 391.75C427.417 398.917 433.167 407.333 437.5 417C441.833 426.667 444 437 444 448C444 459 441.833 469.333 437.5 479C433.167 488.667 427.417 497.083 420.25 504.25C413.083 511.417 404.667 517.167 395 521.5C385.333 525.833 375 528 364 528C353 528 342.667 525.833 333 521.5C323.333 517.167 314.917 511.417 307.75 504.25C300.583 497.083 294.833 488.667 290.5 479C286.167 469.333 284 459 284 448Z" fill="black" fill-opacity="0.8956"/>
</g>
<defs>
<clipPath id="clip0_12_70">
<rect width="729" height="528" fill="white"/>
</clipPath>
</defs>
</svg>
