<svg xmlns="http://www.w3.org/2000/svg" width="1025" height="1025" fill="none" viewBox="0 0 1025 1025">
  <g clip-path="url(#a)">
    <path fill="#000" fill-opacity=".896" d="M511.098 231.953c-34.649 0-69.063 3.741-103.243 11.222-34.18 7.481-67.073 18.352-98.678 32.614-31.605 14.261-61.57 31.678-89.898 52.252-28.328 20.574-53.963 43.719-76.906 69.435a334.622 334.622 0 0 0-30.551 39.978 696.563 696.563 0 0 1-29.147 41.381c-5.618 7.014-11.12 12.509-16.505 16.482-5.384 3.974-12.758 5.962-22.123 5.962-12.174 0-22.71-4.442-31.605-13.326C3.546 479.07-.902 468.549-.902 456.391c0-7.48 1.872-14.963 5.618-22.443 23.88-44.421 54.315-84.632 91.303-120.636 36.989-36.004 77.959-66.63 122.909-91.879 44.949-25.25 92.356-44.772 142.222-58.565 49.865-13.793 99.848-20.69 149.948-20.69 49.631 0 99.496 6.897 149.596 20.69 50.101 13.793 97.625 33.315 142.574 58.565 44.949 25.249 85.919 55.875 122.908 91.879 36.989 36.004 67.424 76.215 91.304 120.636 3.75 7.48 5.62 14.963 5.62 22.443 0 12.158-4.45 22.679-13.35 31.562-8.89 8.884-19.427 13.326-31.602 13.326-9.364 0-16.739-1.988-22.123-5.962-5.384-3.973-10.886-9.468-16.505-16.482a697.217 697.217 0 0 1-29.147-41.381 334.622 334.622 0 0 0-30.551-39.978c-22.942-25.716-48.578-48.861-76.905-69.435-28.328-20.574-58.294-37.991-89.899-52.252-31.605-14.262-64.498-25.133-98.678-32.614-34.179-7.481-68.594-11.222-103.242-11.222Zm0 269.326c-26.221 0-51.271 3.623-75.15 10.871-23.879 7.248-47.056 17.651-69.531 31.211-12.642 7.95-23.528 15.898-32.658 23.847-9.13 7.949-17.324 16.366-24.582 25.249-7.258 8.884-14.163 18.352-20.719 28.406-6.555 10.053-13.578 21.391-21.07 34.016-4.681 7.949-10.3 14.262-16.856 18.937-6.555 4.675-14.514 7.014-23.879 7.014-12.642 0-23.293-4.443-31.956-13.326-8.662-8.884-12.993-19.639-12.993-32.263 0-6.078 1.405-12.391 4.214-18.937 13.579-29.925 32.073-57.513 55.484-82.762 23.412-25.249 49.631-46.875 78.661-64.877 29.031-18.001 59.933-32.028 92.708-42.082 32.775-10.053 65.552-15.079 98.327-15.079 33.712 0 66.956 4.909 99.731 14.729 32.775 9.819 63.561 23.612 92.356 41.38 28.796 17.769 54.666 39.277 77.608 64.526 22.943 25.25 41.438 53.304 55.484 84.165 2.81 6.546 4.214 12.859 4.214 18.937 0 12.157-4.448 22.794-13.344 31.912-8.896 9.118-19.431 13.677-31.605 13.677-9.365 0-17.324-2.339-23.879-7.014-6.556-4.675-12.174-10.988-16.856-18.937-7.491-12.625-14.515-23.963-21.07-34.016-6.556-10.054-13.579-19.522-21.07-28.406-7.491-8.883-15.803-17.3-24.933-25.249-9.13-7.949-20.016-15.897-32.658-23.847-22.007-13.56-45.066-23.963-69.18-31.211-24.114-7.248-49.047-10.871-74.798-10.871ZM398.725 770.605c0-15.43 3.043-29.925 9.13-43.485 6.086-13.56 14.163-25.366 24.23-35.419 10.068-10.053 21.889-18.119 35.468-24.197 13.579-6.078 28.093-9.118 43.545-9.118 15.451 0 29.965 3.04 43.544 9.118 13.579 6.078 25.401 14.144 35.468 24.197 10.067 10.053 18.144 21.859 24.23 35.419 6.087 13.56 9.131 28.055 9.131 43.485s-3.044 29.925-9.131 43.485c-6.086 13.56-14.163 25.366-24.23 35.419-10.067 10.054-21.889 18.119-35.468 24.197-13.579 6.079-28.093 9.118-43.544 9.118-15.452 0-29.966-3.039-43.545-9.118-13.579-6.078-25.4-14.143-35.468-24.197-10.067-10.053-18.144-21.859-24.23-35.419-6.087-13.56-9.13-28.055-9.13-43.485Z"/>
  </g>
  <defs>
    <clipPath id="a">
      <path fill="#fff" d="M.5.5h1024v1024H.5z"/>
    </clipPath>
  </defs>
</svg>
