<!-- Exported by Character Map UWP -->
<svg height="100%" viewBox="148 320 729 528" width="100%" xmlns="http://www.w3.org/2000/svg" xmlns:xlink="http://www.w3.org/1999/xlink">
  <path d="M512,384C487.333,384 462.833,386.667 438.5,392C414.167,397.333 390.75,405.083 368.25,415.25C345.75,425.417 324.417,437.833 304.25,452.5C284.083,467.167 265.833,483.667 249.5,502C241.5,511 234.25,520.5 227.75,530.5C221.25,540.5 214.333,550.333 207,560C203,565 199.083,568.917 195.25,571.75C191.417,574.583 186.167,576 179.5,576C170.833,576 163.333,572.833 157,566.5C150.667,560.167 147.5,552.667 147.5,544C147.5,538.667 148.833,533.333 151.5,528C168.5,496.333 190.167,467.667 216.5,442C242.833,416.333 272,394.5 304,376.5C336,358.5 369.75,344.583 405.25,334.75C440.75,324.917 476.333,320 512,320C547.333,320 582.833,324.917 618.5,334.75C654.167,344.583 688,358.5 720,376.5C752,394.5 781.167,416.333 807.5,442C833.833,467.667 855.5,496.333 872.5,528C875.167,533.333 876.5,538.667 876.5,544C876.5,552.667 873.333,560.167 867,566.5C860.667,572.833 853.167,576 844.5,576C837.833,576 832.583,574.583 828.75,571.75C824.917,568.917 821,565 817,560C809.667,550.333 802.75,540.5 796.25,530.5C789.75,520.5 782.5,511 774.5,502C758.167,483.667 739.917,467.167 719.75,452.5C699.583,437.833 678.25,425.417 655.75,415.25C633.25,405.083 609.833,397.333 585.5,392C561.167,386.667 536.667,384 512,384ZM512,576C493.333,576 475.5,578.583 458.5,583.75C441.5,588.917 425,596.333 409,606C400,611.667 392.25,617.333 385.75,623C379.25,628.667 373.417,634.667 368.25,641C363.083,647.333 358.167,654.083 353.5,661.25C348.833,668.417 343.833,676.5 338.5,685.5C335.167,691.167 331.167,695.667 326.5,699C321.833,702.333 316.167,704 309.5,704C300.5,704 292.917,700.833 286.75,694.5C280.583,688.167 277.5,680.5 277.5,671.5C277.5,667.167 278.5,662.667 280.5,658C290.167,636.667 303.333,617 320,599C336.667,581 355.333,565.583 376,552.75C396.667,539.917 418.667,529.917 442,522.75C465.333,515.583 488.667,512 512,512C536,512 559.667,515.5 583,522.5C606.333,529.5 628.25,539.333 648.75,552C669.25,564.667 687.667,580 704,598C720.333,616 733.5,636 743.5,658C745.5,662.667 746.5,667.167 746.5,671.5C746.5,680.167 743.333,687.75 737,694.25C730.667,700.75 723.167,704 714.5,704C707.833,704 702.167,702.333 697.5,699C692.833,695.667 688.833,691.167 685.5,685.5C680.167,676.5 675.167,668.417 670.5,661.25C665.833,654.083 660.833,647.333 655.5,641C650.167,634.667 644.25,628.667 637.75,623C631.25,617.333 623.5,611.667 614.5,606C598.833,596.333 582.417,588.917 565.25,583.75C548.083,578.583 530.333,576 512,576ZM432,768C432,757 434.167,746.667 438.5,737C442.833,727.333 448.583,718.917 455.75,711.75C462.917,704.583 471.333,698.833 481,694.5C490.667,690.167 501,688 512,688C523,688 533.333,690.167 543,694.5C552.667,698.833 561.083,704.583 568.25,711.75C575.417,718.917 581.167,727.333 585.5,737C589.833,746.667 592,757 592,768C592,779 589.833,789.333 585.5,799C581.167,808.667 575.417,817.083 568.25,824.25C561.083,831.417 552.667,837.167 543,841.5C533.333,845.833 523,848 512,848C501,848 490.667,845.833 481,841.5C471.333,837.167 462.917,831.417 455.75,824.25C448.583,817.083 442.833,808.667 438.5,799C434.167,789.333 432,779 432,768Z" fill="#000000" fill-opacity="1">
  </path>
</svg>