<svg xmlns="http://www.w3.org/2000/svg" width="1026" height="1026" fill="none" viewBox="0 0 1026 1026">
  <path fill="#005FB8" d="M254.5 1025c-16.667 0-32.583-3.42-47.75-10.25-15.167-6.83-28.5-16-40-27.5s-20.667-24.833-27.5-40C132.417 932.083 129 916.167 129 899.5v-773c0-16.667 3.417-32.583 10.25-47.75 6.833-15.167 16-28.5 27.5-40s24.833-20.667 40-27.5C221.917 4.417 237.833 1 254.5 1H513v258.5c0 17.333 3.5 33.583 10.5 48.75 7 15.167 16.333 28.417 28 39.75 11.667 11.333 25.25 20.333 40.75 27 15.5 6.667 31.75 10 48.75 10h256v514.5c0 16.667-3.417 32.583-10.25 47.75-6.833 15.167-16 28.5-27.5 40s-24.833 20.67-40 27.5c-15.167 6.83-31.083 10.25-47.75 10.25h-517ZM641 321c-9 0-17.417-1.667-25.25-5-7.833-3.333-14.583-7.833-20.25-13.5s-10.167-12.417-13.5-20.25-5-16.25-5-25.25V19.5L878.5 321H641Z"/>
</svg>
