<svg xmlns="http://www.w3.org/2000/svg" width="1025" height="1025" fill="none" viewBox="0 0 1025 1025">
  <g clip-path="url(#a)">
    <path fill="#60CDFF" d="M192.5 576.5c0-8.667 3.167-16.167 9.5-22.5 6.333-6.333 13.833-9.5 22.5-9.5s16.167 3.167 22.5 9.5l233.5 233V32.5c0-8.667 3.167-16.167 9.5-22.5 6.333-6.333 13.833-9.5 22.5-9.5S528.667 3.667 535 10c6.333 6.333 9.5 13.833 9.5 22.5V787L778 554c6.333-6.333 13.833-9.5 22.5-9.5s16.167 3.167 22.5 9.5c6.333 6.333 9.5 13.833 9.5 22.5s-3.167 16.167-9.5 22.5L536.5 885.5c-3.667 3.667-7.25 6.417-10.75 8.25-3.5 1.833-7.917 2.75-13.25 2.75s-9.75-.917-13.25-2.75-7.083-4.583-10.75-8.25L202 599c-6.333-6.333-9.5-13.833-9.5-22.5Zm640 384c8.667 0 16.167 3.167 22.5 9.5 6.333 6.333 9.5 13.833 9.5 22.5 0 8.67-3.167 16.17-9.5 22.5-6.333 6.33-13.833 9.5-22.5 9.5h-640c-8.667 0-16.167-3.17-22.5-9.5-6.333-6.33-9.5-13.83-9.5-22.5 0-8.667 3.167-16.167 9.5-22.5 6.333-6.333 13.833-9.5 22.5-9.5h640Z"/>
  </g>
  <defs>
    <clipPath id="a">
      <path fill="#fff" d="M.5.5h1024v1024H.5z"/>
    </clipPath>
  </defs>
</svg>
