<svg width="1024" height="1024" viewBox="0 0 1024 1024" fill="none" xmlns="http://www.w3.org/2000/svg">
<path d="M611.5 128C633.167 128 653.333 132.167 672 140.5C690.667 148.833 707 160.167 721 174.5C735 188.833 746.083 205.5 754.25 224.5C762.417 243.5 767 263.5 768 284.5C768.333 288.167 768.5 291.833 768.5 295.5V318.5L768 340.5V352L921.5 237C932.833 228.333 945.667 224 960 224C969 224 977.417 225.667 985.25 229C993.083 232.333 999.833 236.833 1005.5 242.5C1011.17 248.167 1015.67 254.917 1019 262.75C1022.33 270.583 1024 279 1024 288V736C1024 744.667 1022.33 752.917 1019 760.75C1015.67 768.583 1011.08 775.417 1005.25 781.25C999.417 787.083 992.583 791.667 984.75 795C976.917 798.333 968.667 800 960 800C945.667 800 932.833 795.667 921.5 787L768 672V739.5C768 760.5 763.75 780.5 755.25 799.5C746.75 818.5 735.417 835.083 721.25 849.25C707.083 863.417 690.5 874.75 671.5 883.25C652.5 891.75 632.5 896 611.5 896H156.5C135.5 896 115.5 891.75 96.5 883.25C77.5 874.75 60.9167 863.417 46.75 849.25C32.5833 835.083 21.25 818.5 12.75 799.5C4.25 780.5 0 760.5 0 739.5V284.5C0 263.5 4.25 243.5 12.75 224.5C21.25 205.5 32.5833 188.917 46.75 174.75C60.9167 160.583 77.5 149.25 96.5 140.75C115.5 132.25 135.5 128 156.5 128H611.5Z" fill="#005FB8"/>
</svg>
