<svg width="1025" height="1025" viewBox="0 0 1025 1025" fill="none" xmlns="http://www.w3.org/2000/svg">
<g clip-path="url(#clip0_13_116)">
<path d="M612.334 128.669C634.001 128.669 654.167 132.836 672.834 141.169C691.501 149.502 707.834 160.836 721.834 175.169C735.834 189.502 746.917 206.169 755.084 225.169C763.251 244.169 767.834 264.169 768.834 285.169C769.167 288.836 769.334 292.502 769.334 296.169V319.169L768.834 341.169V352.669L922.334 237.669C933.667 229.002 946.501 224.669 960.834 224.669C969.834 224.669 978.251 226.336 986.084 229.669C993.917 233.002 1000.67 237.502 1006.33 243.169C1012 248.836 1016.5 255.586 1019.83 263.419C1023.16 271.252 1024.83 279.669 1024.83 288.669V736.669C1024.83 745.336 1023.16 753.586 1019.83 761.419C1016.5 769.252 1011.91 776.086 1006.08 781.919C1000.25 787.752 993.417 792.336 985.584 795.669C977.751 799.002 969.501 800.669 960.834 800.669C946.501 800.669 933.667 796.336 922.334 787.669L768.834 672.669V740.169C768.834 761.169 764.584 781.169 756.084 800.169C747.584 819.169 736.251 835.752 722.084 849.919C707.917 864.086 691.334 875.419 672.334 883.919C653.334 892.419 633.334 896.669 612.334 896.669H157.334C136.334 896.669 116.334 892.419 97.334 883.919C78.334 875.419 61.7507 864.086 47.584 849.919C33.4173 835.752 22.084 819.169 13.584 800.169C5.08405 781.169 0.834045 761.169 0.834045 740.169V285.169C0.834045 264.169 5.08405 244.169 13.584 225.169C22.084 206.169 33.4173 189.586 47.584 175.419C61.7507 161.252 78.334 149.919 97.334 141.419C116.334 132.919 136.334 128.669 157.334 128.669H612.334Z" fill="#60CDFF"/>
</g>
<defs>
<clipPath id="clip0_13_116">
<rect width="1024" height="1024" fill="white" transform="translate(0.834045 0.669312)"/>
</clipPath>
</defs>
</svg>
