<svg xmlns="http://www.w3.org/2000/svg" width="1026" height="1026" fill="none" viewBox="0 0 1026 1026">
  <path fill="#005FB8" d="M891.134 205.799c17.778 0 34.754 3.645 50.932 10.933 16.178 7.289 30.401 17.067 42.667 29.333 12.267 12.267 22.047 26.489 29.337 42.667 7.28 16.179 10.93 33.156 10.93 50.934v483.199c0 17.778-3.65 34.756-10.93 50.934-7.29 16.178-17.07 30.4-29.337 42.667-12.266 12.266-26.488 22.044-42.667 29.333-16.178 7.288-33.154 10.933-50.932 10.933H134.866c-17.778 0-34.754-3.645-50.932-10.933-16.178-7.289-30.4-17.067-42.667-29.333C29 904.199 19.222 889.977 11.934 873.799 4.644 857.621 1 840.643 1 822.865V342.332h368c15.645 0 30.222-1.955 43.733-5.866 13.512-3.912 26.401-9.067 38.667-15.467 12.267-6.4 24.178-13.688 35.733-21.866a2963.095 2963.095 0 0 1 36-25.068s20.8-15.2 34.667-31.466c10.4-12.2 22.6-26.8 28.05-33.337l2.883-3.463h302.401ZM342.333 69.266c21.333 0 41.689 4.8 61.067 14.4 19.378 9.6 35.467 22.933 48.267 40a767.755 767.755 0 0 1 15.467 20.267l30.399 41.599a769.102 769.102 0 0 1 12.71 16.553c-1.051-.992-1.985-2.225-3.11-3.753-.034.024-5.187 3.737-15.466 12.267-10.398 8.628-27.718 20.79-27.733 20.8a2790.891 2790.891 0 0 1-21.868 15.466 202.971 202.971 0 0 1-22.399 13.601c-7.822 4.088-15.822 7.377-24 9.866S378.6 274.065 369 274.065H1v-70.933c0-17.778 3.645-34.755 10.934-50.933 7.288-16.178 17.066-30.4 29.333-42.667 12.266-12.266 26.489-22.044 42.667-29.333 16.178-7.289 33.154-10.933 50.932-10.933h207.467Z"/>
</svg>
