<svg width="1024" height="1024" viewBox="0 0 1024 1024" fill="none" xmlns="http://www.w3.org/2000/svg">
<path d="M890.134 204.8C907.912 204.8 924.888 208.445 941.066 215.733C957.244 223.022 971.467 232.8 983.733 245.066C996 257.333 1005.78 271.555 1013.07 287.733C1020.35 303.912 1024 320.889 1024 338.667V821.866C1024 839.644 1020.35 856.622 1013.07 872.8C1005.78 888.978 996 903.2 983.733 915.467C971.467 927.733 957.245 937.511 941.066 944.8C924.888 952.088 907.912 955.733 890.134 955.733H133.866C116.088 955.733 99.1115 952.088 82.9336 944.8C66.7558 937.511 52.5333 927.733 40.2666 915.467C27.9999 903.2 18.2224 888.978 10.9336 872.8C3.64475 856.622 0 839.644 0 821.866V341.333H368C383.645 341.333 398.222 339.378 411.733 335.467C425.245 331.555 438.134 326.4 450.4 320C462.667 313.6 474.578 306.312 486.133 298.134C497.688 289.956 509.688 281.6 522.133 273.066C522.133 273.066 542.933 257.866 556.8 241.6C567.2 229.4 579.4 214.8 584.85 208.263L587.733 204.8H890.134ZM341.333 68.2666C362.666 68.2666 383.022 73.067 402.4 82.667C421.778 92.267 437.867 105.6 450.667 122.667C456 129.422 461.156 136.179 466.134 142.934L496.533 184.533C500.889 190.05 505.125 195.569 509.243 201.086C508.192 200.094 507.258 198.861 506.133 197.333C506.099 197.357 500.946 201.07 490.667 209.6C480.269 218.228 462.949 230.39 462.934 230.4C455.467 235.734 448.178 240.888 441.066 245.866C433.955 250.844 426.489 255.378 418.667 259.467C410.845 263.555 402.845 266.844 394.667 269.333C386.489 271.822 377.6 273.066 368 273.066H0V202.133C6.3236e-05 184.355 3.64484 167.378 10.9336 151.2C18.2224 135.022 27.9999 120.8 40.2666 108.533C52.5333 96.2665 66.7558 86.4887 82.9336 79.2002C99.1116 71.9114 116.088 68.2667 133.866 68.2666H341.333Z" fill="#005FB8"/>
</svg>
