<svg width="1024" height="1024" viewBox="0 0 1024 1024" fill="none" xmlns="http://www.w3.org/2000/svg">
<g clip-path="url(#clip0_13_100)">
<path d="M671.5 160C703.833 160 735 164.167 765 172.5C795 180.833 823 192.667 849 208C875 223.333 898.75 241.75 920.25 263.25C941.75 284.75 960.167 308.5 975.5 334.5C990.833 360.5 1002.67 388.5 1011 418.5C1019.33 448.5 1023.5 479.667 1023.5 512C1023.5 544.333 1019.33 575.5 1011 605.5C1002.67 635.5 990.833 663.5 975.5 689.5C960.167 715.5 941.75 739.25 920.25 760.75C898.75 782.25 875 800.667 849 816C823 831.333 795 843.167 765 851.5C735 859.833 703.833 864 671.5 864H351.5C319.167 864 288 859.833 258 851.5C228 843.167 200 831.333 174 816C148 800.667 124.25 782.25 102.75 760.75C81.25 739.25 62.833 715.5 47.5 689.5C32.167 663.5 20.333 635.5 12 605.5C3.667 575.5 -0.5 544.333 -0.5 512C-0.5 479.667 3.667 448.5 12 418.5C20.333 388.5 32.167 360.5 47.5 334.5C62.833 308.5 81.25 284.75 102.75 263.25C124.25 241.75 148 223.333 174 208C200 192.667 228 180.833 258 172.5C288 164.167 319.167 160 351.5 160H671.5ZM287.5 352C278.833 352 271.333 355.167 265 361.5C258.667 367.833 255.5 375.333 255.5 384V480H159.5C150.833 480 143.333 483.167 137 489.5C130.667 495.833 127.5 503.333 127.5 512C127.5 520.667 130.667 528.167 137 534.5C143.333 540.833 150.833 544 159.5 544H255.5V640C255.5 648.667 258.667 656.167 265 662.5C271.333 668.833 278.833 672 287.5 672C296.167 672 303.667 668.833 310 662.5C316.333 656.167 319.5 648.667 319.5 640V544H415.5C424.167 544 431.667 540.833 438 534.5C444.333 528.167 447.5 520.667 447.5 512C447.5 503.333 444.333 495.833 438 489.5C431.667 483.167 424.167 480 415.5 480H319.5V384C319.5 375.333 316.333 367.833 310 361.5C303.667 355.167 296.167 352 287.5 352ZM639.5 544C630.5 544 622.167 545.667 614.5 549C606.833 552.333 600.083 556.917 594.25 562.75C588.417 568.583 583.833 575.333 580.5 583C577.167 590.667 575.5 599 575.5 608C575.5 617 577.167 625.417 580.5 633.25C583.833 641.083 588.333 647.833 594 653.5C599.667 659.167 606.417 663.667 614.25 667C622.083 670.333 630.5 672 639.5 672C648.5 672 656.833 670.333 664.5 667C672.167 663.667 678.917 659.083 684.75 653.25C690.583 647.417 695.167 640.667 698.5 633C701.833 625.333 703.5 617 703.5 608C703.5 599.333 701.833 591.083 698.5 583.25C695.167 575.417 690.583 568.583 684.75 562.75C678.917 556.917 672.083 552.333 664.25 549C656.417 545.667 648.167 544 639.5 544ZM767.5 352C758.5 352 750.167 353.667 742.5 357C734.833 360.333 728.083 364.917 722.25 370.75C716.417 376.583 711.833 383.333 708.5 391C705.167 398.667 703.5 407 703.5 416C703.5 425 705.167 433.417 708.5 441.25C711.833 449.083 716.333 455.833 722 461.5C727.667 467.167 734.417 471.667 742.25 475C750.083 478.333 758.5 480 767.5 480C776.5 480 784.833 478.333 792.5 475C800.167 471.667 806.917 467.083 812.75 461.25C818.583 455.417 823.167 448.667 826.5 441C829.833 433.333 831.5 425 831.5 416C831.5 407.333 829.833 399.083 826.5 391.25C823.167 383.417 818.583 376.583 812.75 370.75C806.917 364.917 800.083 360.333 792.25 357C784.417 353.667 776.167 352 767.5 352Z" fill="#005FB8"/>
</g>
<defs>
<clipPath id="clip0_13_100">
<rect width="1024" height="1024" fill="white"/>
</clipPath>
</defs>
</svg>
