<svg width="1024" height="1024" viewBox="0 0 1024 1024" fill="none" xmlns="http://www.w3.org/2000/svg">
<g clip-path="url(#clip0_15_102)">
<path d="M543.142 337.911L574.177 370.138L616.641 413.633L167.317 916.781L616.642 413.633L651.642 448.633L203.975 961.496C185.176 982.709 165.84 993.923 145.967 995.133C126.094 996.343 107.295 987.946 89.5706 969.955L24.7141 905.099C6.98975 887.109 -1.20103 868.377 0.14187 848.904C1.48491 829.431 12.4951 810.165 33.1741 791.098L543.142 337.911ZM140.072 930.41C140.321 930.45 140.57 930.485 140.818 930.515C140.57 930.485 140.321 930.45 140.072 930.41ZM145.866 930.367H145.865H145.866ZM148.675 929.719C150.311 929.245 151.941 928.605 153.564 927.797C153.1 928.028 152.636 928.246 152.171 928.449C151.706 928.653 151.241 928.842 150.775 929.019C150.076 929.283 149.376 929.516 148.675 929.719ZM157.032 925.811C158.184 925.063 159.333 924.23 160.479 923.312C160.02 923.679 159.561 924.033 159.102 924.373C158.872 924.543 158.642 924.709 158.412 924.872C157.952 925.198 157.492 925.512 157.032 925.811ZM71.8216 869.973V869.972V869.973ZM68.8821 866.051C69.082 866.347 69.2882 866.644 69.5003 866.942C69.2882 866.644 69.082 866.347 68.8821 866.051ZM581.629 28.1329C618.019 27.0587 653.536 32.4966 688.18 44.4473C722.823 56.3981 753.438 75.6673 780.025 102.254L873.079 194.503C884.09 205.514 891.475 215.92 895.235 225.722C898.995 235.525 899.532 246.065 896.847 257.345L888.387 296.017L908.529 316.158L927.865 314.144C937.266 313.607 946.056 315.151 954.249 318.777C962.443 322.402 971.105 328.781 980.233 337.911L1008.43 366.108C1018.1 375.508 1023.13 385.983 1023.54 397.53C1023.94 409.078 1019.44 419.686 1010.04 429.354L902.889 536.91C893.49 546.31 882.747 550.741 870.662 550.204C858.578 549.666 847.836 544.699 838.436 535.299L810.641 507.906C801.241 498.776 794.929 489.914 791.707 481.32C788.484 472.725 787.142 463.729 787.679 454.33L789.29 435.799L767.94 414.852L731.282 420.895C720.809 423.043 710.873 423.379 701.473 421.902C692.073 420.425 682.539 414.718 672.871 404.781L588.277 319.784C578.072 309.31 571.492 297.896 568.537 285.543C565.583 273.19 567.464 258.688 574.178 242.037L596.333 183.224C579.147 174.093 561.623 168.319 543.764 165.902C525.905 163.485 508.247 163.35 490.791 165.499C473.334 167.648 456.551 171.004 440.438 175.57C427.547 178.792 416.401 178.323 407.002 174.16C397.602 169.997 390.621 164.29 386.055 157.039C381.221 149.251 379.341 139.986 380.415 129.244C381.489 118.502 386.323 109.102 394.917 101.046C417.743 78.4871 445.473 60.9635 478.102 48.4757C510.732 35.988 545.24 29.2071 581.629 28.1329ZM938.899 376.75C939.112 376.958 939.328 377.171 939.546 377.389L960.493 397.933L871.065 487.361V487.362L960.493 397.933L939.547 377.389C939.111 376.952 938.683 376.537 938.266 376.143L938.899 376.75ZM848.55 464.571V464.57V464.571ZM932.71 371.799C933.033 371.984 933.365 372.19 933.707 372.416C933.365 372.19 933.033 371.984 932.71 371.799ZM924.369 370.044C925.126 370.057 925.838 370.088 926.505 370.138C926.728 370.155 926.945 370.173 927.157 370.194C927.582 370.236 927.987 370.287 928.372 370.346C928.565 370.375 928.752 370.406 928.935 370.44C929.3 370.507 929.645 370.582 929.97 370.666C930.295 370.75 930.6 370.842 930.885 370.942H930.886C929.319 370.389 927.145 370.09 924.369 370.044ZM719.271 366.028C719.359 366.051 719.447 366.071 719.534 366.092C719.338 366.045 719.139 365.994 718.939 365.936L719.271 366.028ZM715.079 364.197C715.156 364.243 715.234 364.287 715.311 364.331C715.112 364.216 714.911 364.097 714.709 363.973L715.079 364.197ZM631.448 282.349C631.684 282.611 631.929 282.874 632.182 283.139C631.929 282.874 631.684 282.611 631.448 282.349ZM841.557 253.77H841.558H841.557ZM841.431 250.206H841.432H841.431ZM840.852 247.071C840.919 247.315 840.982 247.563 841.039 247.816C841.068 247.942 841.096 248.069 841.122 248.197C841.175 248.454 841.223 248.715 841.267 248.981C841.158 248.317 841.021 247.681 840.853 247.072L840.852 247.071ZM839.173 242.985H839.174H839.173ZM838.517 241.846H838.518H838.517ZM835.042 237.182C835.273 237.446 835.498 237.708 835.716 237.971L835.043 237.182C834.812 236.918 834.575 236.653 834.331 236.388L835.042 237.182ZM664.005 158.656C664.281 158.923 664.556 159.19 664.83 159.458C664.556 159.19 664.281 158.923 664.005 158.656ZM661.957 156.715V156.714V156.715ZM653.413 149.347V149.346V149.347ZM650.239 146.881C650.709 147.236 651.177 147.593 651.643 147.954L650.75 147.268C650.58 147.138 650.409 147.01 650.239 146.881ZM730.536 133.351H730.537H730.536ZM626.769 132.326L626.768 132.325L626.769 132.326ZM727.494 130.491C728.009 130.961 728.521 131.434 729.028 131.91L728.265 131.198C728.009 130.962 727.752 130.726 727.494 130.491ZM620.537 129.371L620.536 129.37L620.537 129.371ZM456.55 124.41C456.214 124.544 455.893 124.655 455.587 124.743C455.128 124.875 454.701 124.956 454.308 124.984H454.309C454.964 124.937 455.712 124.746 456.551 124.41H456.55ZM474.35 119.098C472.844 119.48 471.343 119.877 469.849 120.289C471.343 119.877 472.844 119.48 474.35 119.098ZM711.757 118.027C712.347 118.433 712.933 118.841 713.515 119.253C712.933 118.841 712.347 118.433 711.757 118.027ZM490.379 115.647C487.286 116.197 484.215 116.809 481.168 117.482L483.458 116.989C485.752 116.508 488.059 116.06 490.379 115.647ZM709.077 116.229H709.078H709.077ZM509.218 113.072C505.236 113.457 501.289 113.936 497.379 114.511C501.289 113.936 505.236 113.457 509.218 113.072ZM704.494 113.332C703.873 112.954 703.248 112.58 702.618 112.209C703.876 112.951 705.118 113.707 706.345 114.476L704.494 113.332ZM543.323 112.106C544.944 112.171 546.56 112.254 548.172 112.353C546.56 112.254 544.944 112.171 543.323 112.106ZM526.157 112.018C522.89 112.112 519.646 112.267 516.426 112.483L518.846 112.333C521.27 112.194 523.707 112.088 526.157 112.018ZM692.891 106.902H692.89H692.891ZM684.682 103.025H684.683H684.682ZM671.662 97.8233C669.422 97.0176 667.168 96.2432 664.903 95.5001C667.168 96.2432 669.422 97.0177 671.662 97.8233C672.614 98.1655 673.559 98.515 674.497 98.8682C673.559 98.515 672.614 98.1655 671.662 97.8233ZM583.267 82.295C584.92 82.3152 586.577 82.3495 588.237 82.3985C589.066 82.423 589.897 82.4517 590.729 82.4835H590.73C588.234 82.3883 585.747 82.3253 583.267 82.295Z" fill="#005FB8"/>
</g>
<defs>
<clipPath id="clip0_15_102">
<rect width="1024" height="1024" fill="white"/>
</clipPath>
</defs>
</svg>
