<svg width="1024" height="1024" viewBox="0 0 1024 1024" fill="none" xmlns="http://www.w3.org/2000/svg">
<path d="M574.178 370.138L616.642 413.633L167.317 916.781C166.41 917.788 165.502 918.741 164.591 919.639C165.502 918.741 166.411 917.789 167.318 916.781L616.642 413.633L651.642 448.633L203.975 961.496C185.176 982.709 165.84 993.923 145.967 995.133C126.094 996.343 107.295 987.946 89.5706 969.955L24.7151 905.099C6.99059 887.109 -1.20108 868.377 0.141866 848.904C1.48491 829.431 12.4951 810.165 33.1741 791.098L543.142 337.911L574.178 370.138ZM145.16 930.478C144.925 930.511 144.689 930.54 144.452 930.563C144.334 930.574 144.215 930.584 144.096 930.593H144.097C144.454 930.566 144.809 930.528 145.161 930.478H145.16ZM149.376 929.506H149.377H149.376ZM133.879 928.446C134.412 928.694 134.941 928.92 135.465 929.126C134.941 928.92 134.412 928.694 133.879 928.446ZM132.268 927.642V927.641V927.642ZM161.854 922.169C161.167 922.761 160.48 923.322 159.791 923.853C159.562 924.029 159.333 924.203 159.103 924.373C158.184 925.053 157.263 925.678 156.34 926.249C156.109 926.392 155.878 926.531 155.647 926.667H155.648C157.727 925.444 159.796 923.944 161.854 922.169ZM129.804 926.197L129.803 926.196L129.804 926.197ZM126.794 924.104C127.146 924.368 127.497 924.625 127.846 924.873C127.497 924.625 127.146 924.368 126.794 924.104ZM68.6614 865.726C68.7334 865.834 68.8084 865.942 68.8821 866.051C68.6203 865.663 68.3672 865.279 68.1262 864.896L68.6614 865.726ZM581.63 28.1329C618.02 27.0587 653.536 32.4976 688.18 44.4483C722.823 56.399 753.438 75.6674 780.025 102.254L873.08 194.503C884.091 205.514 891.476 215.92 895.236 225.722C898.996 235.525 899.532 246.065 896.847 257.345L888.387 296.017L908.53 316.158L927.865 314.144C937.267 313.607 946.057 315.151 954.25 318.777C962.444 322.402 971.105 328.781 980.233 337.911L1008.43 366.109C1018.1 375.509 1023.13 385.983 1023.54 397.53C1023.94 409.078 1019.44 419.687 1010.04 429.355L902.889 536.91C893.49 546.31 882.748 550.741 870.663 550.204C858.578 549.666 847.836 544.699 838.436 535.299L810.641 507.906C801.241 498.776 794.93 489.914 791.708 481.32C788.485 472.725 787.142 463.729 787.679 454.33L789.291 435.799L767.94 414.852L731.283 420.895C720.809 423.043 710.873 423.379 701.473 421.902C692.073 420.425 682.54 414.718 672.872 404.781L588.278 319.784C578.073 309.31 571.493 297.896 568.538 285.543C565.584 273.19 567.464 258.688 574.178 242.037L596.334 183.224C579.147 174.093 561.623 168.319 543.764 165.902C525.905 163.485 508.248 163.35 490.792 165.499C473.335 167.648 456.551 171.004 440.438 175.57C427.547 178.792 416.402 178.323 407.003 174.16C397.603 169.997 390.621 164.29 386.055 157.039C381.221 149.251 379.342 139.986 380.416 129.244C381.49 118.502 386.324 109.102 394.918 101.046C417.744 78.4872 445.473 60.9644 478.102 48.4766C510.732 35.9888 545.241 29.2071 581.63 28.1329ZM960.493 397.933H960.494H960.493ZM840.449 262.179L828.365 316.964L883.955 372.152V372.151L828.365 316.964L840.45 262.179H840.449ZM927.781 370.264H927.782H927.781ZM925.824 370.094H925.824H925.824ZM720.269 366.248C720.497 366.29 720.729 366.328 720.966 366.361C720.61 366.311 720.265 366.251 719.931 366.182L720.269 366.248ZM718.94 365.937L718.939 365.936L718.94 365.937ZM733.699 365.304H733.7H733.699ZM841.077 258.824L841.078 258.825L841.077 258.824ZM841.451 255.711H841.45H841.451ZM841.199 248.586C841.319 249.239 841.41 249.92 841.472 250.629C841.41 249.92 841.319 249.239 841.199 248.586ZM840.949 247.44C840.981 247.564 841.011 247.689 841.04 247.815L840.95 247.44C840.919 247.317 840.886 247.194 840.853 247.072L840.949 247.44ZM838.964 242.607C839.107 242.86 839.243 243.112 839.373 243.363C839.438 243.489 839.502 243.614 839.564 243.739C839.688 243.99 839.805 244.239 839.916 244.488C840.028 244.737 840.133 244.985 840.232 245.232C840.38 245.603 840.513 245.973 840.632 246.34C840.233 245.115 839.678 243.871 838.964 242.607ZM834.331 236.388C834.818 236.919 835.28 237.446 835.716 237.971C835.934 238.233 836.146 238.495 836.352 238.756C836.763 239.277 837.149 239.796 837.51 240.311C837.69 240.568 837.865 240.824 838.032 241.08H838.033C837.026 239.544 835.792 237.98 834.331 236.388ZM731.282 134.078H731.283H731.282ZM629.816 133.896L629.815 133.895L629.816 133.896ZM621.589 129.847C622.288 130.166 622.984 130.489 623.676 130.817C622.984 130.489 622.288 130.166 621.589 129.847ZM726.721 129.789H726.72H726.721ZM719.478 123.701C720.032 124.137 720.583 124.576 721.129 125.019C720.583 124.576 720.032 124.137 719.478 123.701ZM456.058 124.594H456.059H456.058ZM451.978 124.224C452.016 124.262 452.055 124.298 452.095 124.334C452.015 124.263 451.939 124.186 451.866 124.104L451.978 124.224ZM451.566 123.691C451.609 123.762 451.655 123.83 451.702 123.895C451.655 123.83 451.609 123.762 451.566 123.691ZM460.949 122.945C466.836 121.053 472.815 119.403 478.887 117.997C475.092 118.876 471.333 119.849 467.611 120.918C465.377 121.559 463.156 122.236 460.949 122.945H460.949ZM599.651 121.614C600.326 121.822 601.001 122.032 601.675 122.246C600.249 121.794 598.819 121.355 597.385 120.933L599.651 121.614ZM712.639 118.638C713.225 119.046 713.806 119.458 714.384 119.873C713.517 119.25 712.642 118.635 711.758 118.027L712.639 118.638ZM709.977 116.823H709.978H709.977ZM492.705 115.245C498.915 114.205 505.218 113.407 511.613 112.854C508.415 113.131 505.241 113.469 502.089 113.867C498.938 114.266 495.81 114.725 492.704 115.245H492.705ZM555.395 112.91C556.193 112.984 556.991 113.062 557.787 113.145C556.194 112.98 554.597 112.831 552.994 112.699L555.395 112.91ZM545.752 112.218L545.751 112.217L545.752 112.218ZM531.074 111.922C530.252 111.93 529.431 111.943 528.612 111.959C526.973 111.991 525.34 112.038 523.712 112.101C526.154 112.007 528.608 111.947 531.075 111.922H531.074ZM699.954 110.676C698.93 110.097 697.897 109.525 696.853 108.964C697.897 109.525 698.93 110.097 699.954 110.676ZM671.662 97.8233C674.65 98.8975 677.575 100.026 680.437 101.209C681.152 101.505 681.864 101.805 682.572 102.107C683.987 102.713 685.386 103.331 686.77 103.964C681.927 101.75 676.892 99.7031 671.663 97.8233H671.662ZM644.745 89.793C643.777 89.5609 642.808 89.3328 641.835 89.1114C642.808 89.3328 643.777 89.5609 644.745 89.793ZM605.684 83.4376C607.332 83.5855 608.975 83.7472 610.612 83.9229C612.249 84.0986 613.88 84.2887 615.506 84.4922C617.132 84.6958 618.753 84.9132 620.368 85.1446C615.523 84.4506 610.628 83.8813 605.684 83.4376Z" fill="#60CDFF"/>
</svg>
