<svg xmlns="http://www.w3.org/2000/svg" width="1025" height="1025" fill="none" viewBox="0 0 1025 1025">
  <g clip-path="url(#a)">
    <path fill="#005FB8" d="M899 320.5c16.667 0 32.583 3.417 47.75 10.25 15.167 6.833 28.5 16 40 27.5s20.67 24.833 27.5 40c6.83 15.167 10.25 31.083 10.25 47.75v133c0 16.667-3.42 32.583-10.25 47.75-6.83 15.167-16 28.5-27.5 40s-24.833 20.667-40 27.5c-15.167 6.833-31.083 10.25-47.75 10.25H126c-16.667 0-32.583-3.417-47.75-10.25-15.167-6.833-28.5-16-40-27.5s-20.667-24.833-27.5-40C3.917 611.583.5 595.667.5 579V446c0-16.667 3.417-32.583 10.25-47.75 6.833-15.167 16-28.5 27.5-40s24.833-20.667 40-27.5c15.167-6.833 31.083-10.25 47.75-10.25h773Zm-114.5 128c-13.333 0-24.667 4.667-34 14-9.333 9.333-14 20.667-14 34 0 13.333 4.667 24.667 14 34 9.333 9.333 20.667 14 34 14 13.333 0 24.667-4.667 34-14 9.333-9.333 14-20.667 14-34 0-13.333-4.667-24.667-14-34-9.333-9.333-20.667-14-34-14Z"/>
  </g>
  <defs>
    <clipPath id="a">
      <path fill="#fff" d="M.5.5h1024v1024H.5z"/>
    </clipPath>
  </defs>
</svg>
