<svg width="1024" height="1024" viewBox="0 0 1024 1024" fill="none" xmlns="http://www.w3.org/2000/svg">
<g clip-path="url(#clip0_32_239)">
<mask id="mask0_32_239" style="mask-type:luminance" maskUnits="userSpaceOnUse" x="0" y="320" width="1024" height="384">
<path d="M1024 320H0V704H1024V320Z" fill="white"/>
</mask>
<g mask="url(#mask0_32_239)">
<path fill-rule="evenodd" clip-rule="evenodd" d="M77.75 693.75C92.9167 700.583 108.833 704 125.5 704H898.5C915.167 704 931.083 700.583 946.25 693.75C961.417 686.917 974.75 677.75 986.25 666.25C997.75 654.75 1006.92 641.417 1013.75 626.25C1020.58 611.083 1024 595.167 1024 578.5V445.5C1024 428.833 1020.58 412.917 1013.75 397.75C1006.92 382.583 997.75 369.25 986.25 357.75C974.75 346.25 961.417 337.083 946.25 330.25C931.083 323.417 915.167 320 898.5 320H125.5C108.833 320 92.9167 323.417 77.75 330.25C62.5833 337.083 49.25 346.25 37.75 357.75C26.25 369.25 17.0833 382.583 10.25 397.75C3.41667 412.917 0 428.833 0 445.5V578.5C0 595.167 3.41667 611.083 10.25 626.25C17.0833 641.417 26.25 654.75 37.75 666.25C49.25 677.75 62.5833 686.917 77.75 693.75ZM921 635C913.333 638.333 905 640 896 640H128C119 640 110.583 638.333 102.75 635C94.9167 631.667 88.1667 627.167 82.5 621.5C76.8333 615.833 72.3333 609.083 69 601.25C65.6667 593.417 64 585 64 576V448C64 439 65.6667 430.667 69 423C72.3333 415.333 76.9167 408.583 82.75 402.75C88.5833 396.917 95.3333 392.333 103 389C110.667 385.667 119 384 128 384H896C904.667 384 912.917 385.667 920.75 389C928.583 392.333 935.417 396.917 941.25 402.75C947.083 408.583 951.667 415.417 955 423.25C958.333 431.083 960 439.333 960 448V576C960 585 958.333 593.333 955 601C951.667 608.667 947.083 615.417 941.25 621.25C935.417 627.083 928.667 631.667 921 635Z" fill="#60CDFF"/>
<path fill-rule="evenodd" clip-rule="evenodd" d="M896 640C905 640 913.333 638.333 921 635C928.667 631.667 935.417 627.083 941.25 621.25C947.083 615.417 951.667 608.667 955 601C958.333 593.333 960 585 960 576V448C960 439.333 958.333 431.083 955 423.25C951.667 415.417 947.083 408.583 941.25 402.75C935.417 396.917 928.583 392.333 920.75 389C912.917 385.667 904.667 384 896 384H128C119 384 110.667 385.667 103 389C95.3333 392.333 88.5833 396.917 82.75 402.75C76.9167 408.583 72.3333 415.333 69 423C65.6667 430.667 64 439 64 448V576C64 585 65.6667 593.417 69 601.25C72.3333 609.083 76.8333 615.833 82.5 621.5C88.1667 627.167 94.9167 631.667 102.75 635C110.583 638.333 119 640 128 640H896ZM750 462C740.667 471.333 736 482.667 736 496C736 509.333 740.667 520.667 750 530C759.333 539.333 770.667 544 784 544C797.333 544 808.667 539.333 818 530C827.333 520.667 832 509.333 832 496C832 482.667 827.333 471.333 818 462C808.667 452.667 797.333 448 784 448C770.667 448 759.333 452.667 750 462Z" fill="#60CDFF"/>
</g>
</g>
<defs>
<clipPath id="clip0_32_239">
<rect width="1024" height="384" fill="white" transform="translate(0 320)"/>
</clipPath>
</defs>
</svg>
