<svg width="1024" height="1024" viewBox="0 0 1024 1024" fill="none" xmlns="http://www.w3.org/2000/svg">
<path d="M853.312 495.497C874.769 497.677 909.174 511.934 942.623 537.059C976.454 562.47 1002.64 594.033 1012.22 624.085L1012.37 624.037C1014.1 629.322 1015.73 634.685 1017.28 640.127C1021.47 654.867 1023.57 670.329 1023.57 686.515C1023.57 723.22 1014.75 756.385 997.121 786.01C979.494 815.635 955.216 839.046 924.288 856.242C893.363 873.436 857.813 882.037 817.64 882.037H205.927C165.753 882.037 130.203 873.436 99.2783 856.242C68.3532 839.046 44.0755 815.635 26.4453 786.01C8.8152 756.385 0 723.22 0 686.515C1.5e-05 670.329 2.02303 654.867 6.06934 640.127C7.56456 634.68 9.15902 629.312 10.8516 624.023L11.209 624.121C29.29 557.952 98.7488 510.866 171.879 494.505L853.312 495.497ZM817.206 632.757C802.466 632.757 789.676 638.104 778.838 648.798C768 659.491 762.581 672.064 762.581 686.515C762.581 701.833 768 714.622 778.838 724.882C789.676 735.142 802.466 740.272 817.206 740.272C831.657 740.272 844.23 735.071 854.923 724.666C865.616 714.261 870.964 701.543 870.964 686.515C870.964 672.063 865.616 659.491 854.923 648.798C844.229 638.104 831.657 632.757 817.206 632.757ZM691.481 142C730.21 142 763.809 150.815 792.277 168.445C820.746 186.075 842.206 212.232 856.657 246.914L941.185 449.831C913.004 434.853 883.849 424.721 857.952 422.619L856.505 422.502L855.053 422.5L168.053 421.5L164.243 421.494L160.514 422.276C135.121 427.598 108.43 436.355 82.624 448.648L166.909 246.914C181.36 212.232 202.821 186.075 231.289 168.445C259.757 150.815 293.356 142 332.085 142H691.481Z" fill="#005FB8"/>
</svg>
