<svg xmlns="http://www.w3.org/2000/svg" width="1025" height="1025" fill="none" viewBox="0 0 1025 1025">
  <g clip-path="url(#a)">
    <path fill="#60CDFF" d="M990.862 472.459v418.569c0 17.797-3.648 34.792-10.945 50.987-7.296 16.195-17.083 30.432-29.362 42.711-12.28 12.28-26.518 22.064-42.713 29.364-16.195 7.3-33.188 10.94-50.985 10.94H717.511c-9.61 0-18.598-1.78-26.962-5.34-8.364-3.55-15.571-8.36-21.622-14.41-6.051-6.05-10.855-13.258-14.414-21.622-3.559-8.364-5.339-17.351-5.339-26.961V683.345c0-9.254-1.781-18.063-5.34-26.427s-8.453-15.661-14.681-21.89c-6.228-6.228-13.526-11.123-21.89-14.682-8.364-3.558-17.172-5.338-26.427-5.338H444.159c-9.61 0-18.506 1.78-26.693 5.338-8.187 3.559-15.394 8.454-21.623 14.682-6.228 6.229-11.123 13.436-14.682 21.623-3.558 8.187-5.338 17.084-5.338 26.694v273.352c0 9.61-1.78 18.508-5.339 26.694-3.559 8.187-8.454 15.394-14.682 21.619-6.229 6.23-13.436 11.13-21.623 14.68-8.187 3.56-17.085 5.34-26.695 5.34H168.14c-17.797 0-34.792-3.64-50.987-10.94-16.195-7.3-30.432-17.084-42.712-29.364-12.279-12.279-22.067-26.516-29.364-42.711-7.296-16.195-10.944-33.19-10.944-50.987V472.459c0-13.525 2.58-26.606 7.741-39.241 5.161-12.635 12.547-23.758 22.157-33.368L428.143 36.272c11.39-11.39 24.293-20.11 38.708-26.16 14.415-6.051 29.63-9.077 45.646-9.077 16.017 0 31.234 3.026 45.649 9.076 14.415 6.051 27.316 14.771 38.706 26.16L960.964 399.85c9.61 9.61 16.997 20.733 22.158 33.368 5.16 12.635 7.74 25.716 7.74 39.241Z"/>
  </g>
  <defs>
    <clipPath id="a">
      <path fill="#fff" d="M.5.5h1024v1024H.5z"/>
    </clipPath>
  </defs>
</svg>
