<svg width="959" height="959" viewBox="0 0 959 959" fill="none" xmlns="http://www.w3.org/2000/svg">
<g clip-path="url(#clip0_32_122)">
<g clip-path="url(#clip1_32_122)">
<path d="M927.5 442V834C927.5 850.667 924.083 866.583 917.25 881.75C910.417 896.917 901.25 910.25 889.75 921.75C878.25 933.25 864.917 942.417 849.75 949.25C834.583 956.083 818.667 959.5 802 959.5H671.5C662.5 959.5 654.083 957.833 646.25 954.5C638.417 951.167 631.667 946.667 626 941C620.333 935.333 615.833 928.583 612.5 920.75C609.167 912.917 607.5 904.5 607.5 895.5V639.5C607.5 630.833 605.833 622.583 602.5 614.75C599.167 606.917 594.583 600.083 588.75 594.25C582.917 588.417 576.083 583.833 568.25 580.5C560.417 577.167 552.167 575.5 543.5 575.5H415.5C406.5 575.5 398.167 577.167 390.5 580.5C382.833 583.833 376.083 588.417 370.25 594.25C364.417 600.083 359.833 606.833 356.5 614.5C353.167 622.167 351.5 630.5 351.5 639.5V895.5C351.5 904.5 349.833 912.833 346.5 920.5C343.167 928.167 338.583 934.917 332.75 940.75C326.917 946.583 320.167 951.167 312.5 954.5C304.833 957.833 296.5 959.5 287.5 959.5H157C140.333 959.5 124.417 956.083 109.25 949.25C94.083 942.417 80.75 933.25 69.25 921.75C57.75 910.25 48.5833 896.917 41.75 881.75C34.9167 866.583 31.5 850.667 31.5 834V442C31.5 429.333 33.9167 417.083 38.75 405.25C43.5833 393.417 50.5 383 59.5 374L400.5 33.5C411.167 22.8334 423.25 14.6667 436.75 9C450.25 3.33337 464.5 0.50006 479.5 0.5C494.5 0.50006 508.75 3.33337 522.25 9C535.75 14.6667 547.833 22.8334 558.5 33.5L899.5 374C908.5 383 915.417 393.417 920.25 405.25C925.083 417.083 927.5 429.333 927.5 442Z" fill="#005FB8"/>
</g>
</g>
<defs>
<clipPath id="clip0_32_122">
<rect width="959" height="959" fill="white"/>
</clipPath>
<clipPath id="clip1_32_122">
<rect width="896" height="959" fill="white" transform="translate(31.5 0.5)"/>
</clipPath>
</defs>
</svg>
