<svg xmlns="http://www.w3.org/2000/svg" width="1027" height="1027" fill="none" viewBox="0 0 1027 1027">
  <path fill="#60CDFF" d="M912.104 2c13.673 0 25.298 4.7 34.87 14.097 9.573 9.397 14.359 20.808 14.359 34.233v753.652c0 21.816-4.444 42.289-13.333 61.42s-20.854 35.828-35.896 50.093c-15.044 14.264-32.48 25.507-52.309 33.73-19.829 8.223-40.684 12.335-62.564 12.335-22.906 0-44.274-4.196-64.103-12.587-19.829-8.39-37.179-19.885-52.051-34.485-14.872-14.6-26.582-31.634-35.128-51.1-8.547-19.466-12.821-40.443-12.821-62.93 0-21.48 4.188-41.954 12.564-61.42 8.377-19.466 19.829-36.583 34.359-51.35 14.531-14.768 31.539-26.515 51.026-35.242 19.487-8.726 40.341-13.089 62.564-13.089 18.462 0 36.41 2.601 53.846 7.803 17.436 5.203 33.505 13.341 48.205 24.417V299.03L436.205 468.188v400.235c0 21.816-4.444 42.289-13.333 61.42-8.889 19.13-20.855 35.828-35.898 50.092-15.043 14.265-32.479 25.505-52.307 33.735-19.829 8.22-40.684 12.33-62.564 12.33-22.906 0-44.274-4.2-64.103-12.59-19.829-8.38-37.179-19.882-52.051-34.482-14.872-14.6-26.582-31.633-35.128-51.099-8.547-19.466-12.821-40.444-12.821-62.93 0-21.479 4.189-41.954 12.564-61.42 8.376-19.465 19.829-36.583 34.359-51.351 14.53-14.768 31.539-26.514 51.026-35.241 19.487-8.727 40.341-13.09 62.564-13.09 18.461 0 36.325 2.601 53.59 7.804 17.263 5.202 33.248 13.173 47.948 23.913L368 232.073c0-9.734 2.992-18.879 8.974-27.438 5.983-8.558 13.761-14.683 23.334-18.375L895.179 5.02C900.308 3.008 905.95 2 912.104 2ZM698.769 800.458Z"/>
</svg>
