<svg width="1024" height="1024" viewBox="0 0 1024 1024" fill="none" xmlns="http://www.w3.org/2000/svg">
<path d="M219.429 813.715H859.429C877.714 813.715 895.238 810.858 912 805.143C928.762 799.429 944.381 791.048 958.857 780L606.286 569.143L104 780.572C121.143 791.238 139.523 799.429 159.143 805.143C178.762 810.858 198.857 813.715 219.429 813.715Z" fill="#005FB8"/>
<path d="M44.5714 726.286L528 522.286L341.143 410.286C322.095 399.238 302.095 390.572 281.143 384.286C260.191 378 238.666 374.858 216.571 374.858C186.857 374.858 158.857 380.763 132.571 392.572C106.286 404.381 83.3337 420.286 63.7143 440.286C44.0949 460.286 28.5714 483.62 17.1429 510.286C5.71429 536.952 0 564.952 0 594.286C0 617.906 3.80949 641.238 11.4286 664.286C19.0477 687.334 30.0952 708 44.5714 726.286Z" fill="#005FB8"/>
<path d="M612 487.429L745.143 431.429C762.666 424.191 780.952 418.477 800 414.286C790.477 384.191 776.571 356.572 758.286 331.429C740 306.286 718.571 284.763 694 266.858C669.429 248.952 642.381 235.048 612.857 225.143C583.334 215.238 552.762 210.286 521.143 210.286C499.809 210.286 478.762 212.572 458 217.143C437.238 221.715 417.334 228.286 398.286 236.858C379.238 245.429 361.334 256.191 344.571 269.143C327.809 282.095 312.571 296.763 298.857 313.143C313.334 316.952 327.143 321.81 340.286 327.715C353.429 333.62 366.286 340.381 378.857 348L612 487.429Z" fill="#005FB8"/>
<path d="M689.714 533.715L1006.29 723.429C1012.38 712 1016.86 700 1019.71 687.429C1022.57 674.858 1024 662.095 1024 649.143C1024 624 1019.24 601.238 1009.71 580.858C1000.19 560.477 987.334 543.048 971.143 528.572C954.952 514.095 936 502.952 914.286 495.143C892.571 487.334 869.714 483.429 845.714 483.429C832 483.429 818.477 485.048 805.143 488.286C791.809 491.524 778.666 495.62 765.714 500.572C752.762 505.524 740 510.952 727.429 516.858C714.857 522.763 702.286 528.381 689.714 533.715Z" fill="#005FB8"/>
</svg>
