<svg xmlns="http://www.w3.org/2000/svg" width="1026" height="1026" fill="none" viewBox="0 0 1026 1026">
  <path fill="#005FB8" d="M959.857 780.999c-14.476 11.048-30.095 19.429-46.857 25.143-16.762 5.715-34.286 8.572-52.571 8.572h-640c-20.572 0-40.668-2.857-60.286-8.572-19.62-5.714-38-13.905-55.143-24.571l502.286-211.429 352.571 210.857ZM217.571 375.857c22.095 0 43.62 3.142 64.572 9.428 20.951 6.286 40.952 14.952 60 26l186.857 112-483.429 204c-14.476-18.286-25.523-38.952-33.142-62C4.809 642.237 1 618.905 1 595.285c0-29.334 5.714-57.334 17.143-84 11.428-26.666 26.952-50 46.57-70 19.62-20 42.573-35.905 68.858-47.714 26.286-11.809 54.286-17.714 84-17.714Zm629.143 108.571c24 0 46.857 3.905 68.572 11.714 21.714 7.809 40.666 18.952 56.857 33.429 16.191 14.476 29.047 31.905 38.567 52.286 9.53 20.38 14.29 43.142 14.29 68.285 0 12.951-1.43 25.715-4.29 38.286-2.85 12.571-7.33 24.571-13.42 36L690.714 534.714a1091.313 1091.313 0 0 0 37.715-16.857 562.008 562.008 0 0 1 38.285-16.286 325.193 325.193 0 0 1 39.429-12.286 171.316 171.316 0 0 1 40.571-4.857Zm-324.57-273.143c31.618 0 62.191 4.952 91.713 14.857 29.524 9.905 56.572 23.809 81.143 41.715 24.571 17.905 46 39.428 64.286 64.571 18.285 25.143 32.191 52.762 41.714 82.857-19.048 4.191-37.334 9.905-54.856 17.143l-133.144 56-233.143-139.429c-12.571-7.619-25.428-14.38-38.571-20.285-13.143-5.905-26.952-10.763-41.429-14.572 13.714-16.38 28.952-31.048 45.714-44 16.763-12.952 34.667-23.714 53.715-32.285 19.048-8.572 38.952-15.143 59.714-19.715a292.812 292.812 0 0 1 63.144-6.857Z"/>
</svg>
