<svg width="1025" height="1025" viewBox="0 0 1025 1025" fill="none" xmlns="http://www.w3.org/2000/svg">
<g clip-path="url(#clip0_13_46)">
<path d="M706.938 0.618164C723.604 0.618164 739.521 4.03485 754.688 10.8682C769.854 17.7016 783.188 26.8683 794.688 38.3682C806.188 49.8683 815.354 63.2016 822.188 78.3682C829.021 93.5349 832.438 109.451 832.438 126.118V899.118C832.438 915.785 829.021 931.701 822.188 946.868C815.354 962.035 806.188 975.368 794.688 986.868C783.188 998.368 769.854 1007.54 754.688 1014.37C739.521 1021.2 723.604 1024.62 706.938 1024.62H317.938C301.271 1024.62 285.354 1021.2 270.188 1014.37C255.021 1007.54 241.688 998.368 230.188 986.868C218.688 975.368 209.521 962.035 202.688 946.868C195.854 931.701 192.438 915.785 192.438 899.118V126.118C192.438 109.451 195.854 93.5349 202.688 78.3682C209.521 63.2016 218.688 49.8683 230.188 38.3682C241.688 26.8683 255.021 17.7016 270.188 10.8682C285.354 4.03485 301.271 0.618164 317.938 0.618164H706.938ZM448.438 768.618C439.771 768.618 432.271 771.785 425.938 778.118C419.604 784.451 416.438 791.951 416.438 800.618C416.438 809.285 419.604 816.785 425.938 823.118C432.271 829.451 439.771 832.618 448.438 832.618H576.438C585.104 832.618 592.604 829.451 598.938 823.118C605.271 816.785 608.438 809.285 608.438 800.618C608.438 791.951 605.271 784.451 598.938 778.118C592.604 771.785 585.104 768.618 576.438 768.618H448.438Z" fill="#60CDFF"/>
</g>
<defs>
<clipPath id="clip0_13_46">
<rect width="1024" height="1024" fill="white" transform="translate(0.4375 0.618164)"/>
</clipPath>
</defs>
</svg>
