<svg width="1024" height="1024" viewBox="0 0 1024 1024" fill="none" xmlns="http://www.w3.org/2000/svg">
<path d="M706.5 0C723.167 0 739.083 3.41669 754.25 10.25C769.417 17.0834 782.75 26.2501 794.25 37.75C805.75 49.2501 814.917 62.5834 821.75 77.75C828.583 92.9167 832 108.833 832 125.5V898.5C832 915.167 828.583 931.083 821.75 946.25C814.917 961.417 805.75 974.75 794.25 986.25C782.75 997.75 769.417 1006.92 754.25 1013.75C739.083 1020.58 723.167 1024 706.5 1024H317.5C300.833 1024 284.917 1020.58 269.75 1013.75C254.583 1006.92 241.25 997.75 229.75 986.25C218.25 974.75 209.083 961.417 202.25 946.25C195.417 931.083 192 915.167 192 898.5V125.5C192 108.833 195.417 92.9167 202.25 77.75C209.083 62.5834 218.25 49.2501 229.75 37.75C241.25 26.2501 254.583 17.0834 269.75 10.25C284.917 3.41669 300.833 0 317.5 0H706.5ZM448 768C439.333 768 431.833 771.167 425.5 777.5C419.167 783.833 416 791.333 416 800C416 808.667 419.167 816.167 425.5 822.5C431.833 828.833 439.333 832 448 832H576C584.667 832 592.167 828.833 598.5 822.5C604.833 816.167 608 808.667 608 800C608 791.333 604.833 783.833 598.5 777.5C592.167 771.167 584.667 768 576 768H448Z" fill="#005FB8"/>
</svg>
