<svg width="1024" height="1024" viewBox="0 0 1024 1024" fill="none" xmlns="http://www.w3.org/2000/svg">
<g clip-path="url(#clip0_32_200)">
<path d="M768 896C791.667 896 813.333 890 833 878L546 591C536.667 581.667 525.333 577 512 577C498.667 577 487.333 581.667 478 591L191 878C200.667 884 211 888.5 222 891.5C233 894.5 244.333 896 256 896H768Z" fill="#005FB8"/>
<path fill-rule="evenodd" clip-rule="evenodd" d="M843.75 944.75C855.979 939.305 867.396 932.855 878 925.402L833 878C813.333 890 791.667 896 768 896H256C244.333 896 233 894.5 222 891.5C211 888.5 200.667 884 191 878L146 925.402C156.604 932.855 168.021 939.305 180.25 944.75C203.083 954.917 227 960 252 960H772C797 960 820.917 954.917 843.75 944.75Z" fill="#005FB8"/>
<path fill-rule="evenodd" clip-rule="evenodd" d="M146 833L433 546C443.667 535.333 455.75 527.25 469.25 521.75C482.75 516.25 497 513.5 512 513.5C527 513.5 541.25 516.25 554.75 521.75C568.25 527.25 580.333 535.333 591 546L878 833C884 823.333 888.5 813 891.5 802C894.5 791 896 779.667 896 768V253.5C896 236.833 892.583 220.917 885.75 205.75C878.917 190.583 869.75 177.25 858.25 165.75C846.75 154.25 833.417 145.083 818.25 138.25C803.083 131.417 787.167 128 770.5 128H253.5C236.833 128 220.917 131.417 205.75 138.25C190.583 145.083 177.25 154.25 165.75 165.75C154.25 177.25 145.083 190.583 138.25 205.75C131.417 220.917 128 236.833 128 253.5V768C128 779.667 129.5 791 132.5 802C135.5 813 140 823.333 146 833ZM583.5 315C578.5 326.667 576 339 576 352C576 365 578.5 377.333 583.5 389C588.5 400.667 595.417 410.917 604.25 419.75C613.083 428.583 623.333 435.5 635 440.5C646.667 445.5 659 448 672 448C685 448 697.333 445.5 709 440.5C720.667 435.5 730.917 428.583 739.75 419.75C748.583 410.917 755.5 400.667 760.5 389C765.5 377.333 768 365 768 352C768 339 765.5 326.667 760.5 315C755.5 303.333 748.583 293.083 739.75 284.25C730.917 275.417 720.667 268.5 709 263.5C697.333 258.5 685 256 672 256C659 256 646.667 258.5 635 263.5C623.333 268.5 613.083 275.417 604.25 284.25C595.417 293.083 588.5 303.333 583.5 315Z" fill="#005FB8"/>
<path d="M640 352C640 360.667 643.167 368.167 649.5 374.5C655.833 380.833 663.333 384 672 384C680.667 384 688.167 380.833 694.5 374.5C700.833 368.167 704 360.667 704 352C704 343.333 700.833 335.833 694.5 329.5C688.167 323.167 680.667 320 672 320C663.333 320 655.833 323.167 649.5 329.5C643.167 335.833 640 343.333 640 352Z" fill="#005FB8"/>
<path fill-rule="evenodd" clip-rule="evenodd" d="M772 64C797 64.0001 820.917 69.0834 843.75 79.25C866.583 89.4167 886.583 103.083 903.75 120.25C920.917 137.417 934.583 157.417 944.75 180.25C954.917 203.083 960 227 960 252V772C960 797 954.917 820.917 944.75 843.75C939.305 855.979 932.855 867.396 925.402 878L878 833C884 823.333 888.5 813 891.5 802C894.5 791 896 779.667 896 768V253.5C896 236.833 892.583 220.917 885.75 205.75C878.917 190.583 869.75 177.25 858.25 165.75C846.75 154.25 833.417 145.083 818.25 138.25C803.083 131.417 787.167 128 770.5 128H253.5C236.833 128 220.917 131.417 205.75 138.25C190.583 145.083 177.25 154.25 165.75 165.75C154.25 177.25 145.083 190.583 138.25 205.75C131.417 220.917 128 236.833 128 253.5V768C128 779.667 129.5 791 132.5 802C135.5 813 140 823.333 146 833L98.5978 878C91.1445 867.396 84.6953 855.979 79.25 843.75C69.0833 820.917 64 797 64 772V252C64 227 69.0833 203.083 79.25 180.25C89.4167 157.417 103.083 137.417 120.25 120.25C137.417 103.083 157.417 89.4167 180.25 79.25C203.083 69.0834 227 64.0001 252 64H772Z" fill="#005FB8"/>
</g>
<defs>
<clipPath id="clip0_32_200">
<rect width="1024" height="1024" fill="white"/>
</clipPath>
</defs>
</svg>
