<svg xmlns="http://www.w3.org/2000/svg" width="1025" height="1025" fill="none" viewBox="0 0 1025 1025">
  <path fill="#005FB8" d="M512.5 577.5c13.333 0 24.667 4.667 34 14l287 287 45 47.402c-10.604 7.453-22.021 13.903-34.25 19.348-22.833 10.167-46.75 15.25-71.75 15.25h-520c-25 0-48.917-5.083-71.75-15.25-12.229-5.445-23.646-11.895-34.25-19.348l45-47.402 287-287c9.333-9.333 20.667-14 34-14Zm260-513c25 0 48.917 5.083 71.75 15.25s42.833 23.833 60 41 30.833 37.167 41 60c10.167 22.833 15.25 46.75 15.25 71.75v520c0 25-5.083 48.917-15.25 71.75-5.445 12.229-11.895 23.646-19.348 34.25l-47.402-45-287-287c-10.667-10.667-22.75-18.75-36.25-24.25S527.5 514 512.5 514s-29.25 2.75-42.75 8.25-25.583 13.583-36.25 24.25l-287 287-47.402 45c-7.454-10.604-13.903-22.021-19.348-34.25C69.583 821.417 64.5 797.5 64.5 772.5v-520c0-25 5.083-48.917 15.25-71.75s23.833-42.833 41-60 37.167-30.833 60-41C203.583 69.583 227.5 64.5 252.5 64.5h520Zm-100 192c-13 0-25.333 2.5-37 7.5-11.667 5-21.917 11.917-30.75 20.75-8.833 8.833-15.75 19.083-20.75 30.75-5 11.667-7.5 24-7.5 37s2.5 25.333 7.5 37c5 11.667 11.917 21.917 20.75 30.75 8.833 8.833 19.083 15.75 30.75 20.75 11.667 5 24 7.5 37 7.5s25.333-2.5 37-7.5c11.667-5 21.917-11.917 30.75-20.75 8.833-8.833 15.75-19.083 20.75-30.75 5-11.667 7.5-24 7.5-37s-2.5-25.333-7.5-37c-5-11.667-11.917-21.917-20.75-30.75-8.833-8.833-19.083-15.75-30.75-20.75-11.667-5-24-7.5-37-7.5Zm0 64c8.667 0 16.167 3.167 22.5 9.5 6.333 6.333 9.5 13.833 9.5 22.5s-3.167 16.167-9.5 22.5c-6.333 6.333-13.833 9.5-22.5 9.5s-16.167-3.167-22.5-9.5c-6.333-6.333-9.5-13.833-9.5-22.5s3.167-16.167 9.5-22.5c6.333-6.333 13.833-9.5 22.5-9.5Z"/>
</svg>
