<svg width="1024" height="1024" viewBox="0 0 1024 1024" fill="none" xmlns="http://www.w3.org/2000/svg">
<g clip-path="url(#clip0_13_53)">
<path d="M704 0C710 0 718.083 0.499995 728.25 1.49902C738.417 2.49804 749.417 3.99609 761.25 5.99414C773.083 7.99219 785.167 10.6563 797.5 13.9863C809.833 17.3165 820.917 21.3126 830.75 25.9746C840.583 30.6368 848.667 36.1319 855 42.459C861.333 48.7862 864.5 55.7795 864.5 63.4385C864.5 72.0966 861.333 79.589 855 85.916L685.5 255.75L768 338.17L938 168.835C944.333 162.508 951.833 159.344 960.5 159.344C968.5 159.344 975.583 162.508 981.75 168.835C987.917 175.162 993.333 183.321 998 193.311C1002.67 203.301 1006.67 214.374 1010 226.529C1013.33 238.684 1016 250.672 1018 262.494C1020 274.315 1021.5 285.304 1022.5 295.461C1023.5 305.619 1024 313.694 1024 319.688C1024 363.978 1015.67 405.522 999 444.316C982.333 483.111 959.5 516.995 930.5 545.967C901.5 574.939 867.583 597.749 828.75 614.4C789.917 631.051 748.333 639.376 704 639.376C691.667 639.376 679.417 638.46 667.25 636.628C655.083 634.797 643 632.549 631 629.885L287 974.049C280 981.042 272.167 987.536 263.5 993.53C254.833 999.524 245.583 1004.77 235.75 1009.26C225.917 1013.76 215.917 1017.26 205.75 1019.75C195.583 1022.25 185.5 1023.5 175.5 1023.5C151.167 1023.5 128.333 1019.42 107 1011.26C85.6667 1003.1 67.0833 991.615 51.25 976.796C35.4167 961.978 22.9167 944.245 13.75 923.598C4.58343 902.951 7.46774e-06 880.14 0 855.165C0 832.52 4.25012 811.041 12.75 790.729C21.25 770.416 33.5001 752.265 49.5 736.281L393.5 392.617C390.833 380.961 388.583 369.057 386.75 356.901C384.917 344.747 384 332.508 384 320.188C384 290.55 387.833 262.077 395.5 234.771C403.167 207.464 413.917 181.989 427.75 158.345C441.583 134.701 458.167 113.14 477.5 93.6582C496.833 74.1774 518.333 57.5269 542 43.707C565.667 29.8873 591.167 19.1484 618.5 11.4893C645.833 3.83009 674.333 0 704 0ZM168 959.063V959.062V959.063ZM90.4434 923.785V923.784V923.785ZM79.9434 909.853C80.3887 910.557 80.8418 911.256 81.3027 911.948C80.8418 911.256 80.3887 910.557 79.9434 909.853ZM704.5 575.438V575.438V575.438ZM667.5 572.191V572.19V572.191ZM904.583 478.613V478.614V478.613ZM617.5 233.271V233.272V233.271Z" fill="#60CDFF"/>
</g>
<defs>
<clipPath id="clip0_13_53">
<rect width="1024" height="1024" fill="white"/>
</clipPath>
</defs>
</svg>
