<svg width="1025" height="1025" viewBox="0 0 1025 1025" fill="none" xmlns="http://www.w3.org/2000/svg">
<g clip-path="url(#clip0_13_66)">
<path d="M704.562 0.381836C710.562 0.381836 718.646 0.881831 728.812 1.88086C738.979 2.87988 749.98 4.37793 761.812 6.37598C773.646 8.37403 785.729 11.0382 798.062 14.3682C810.395 17.6984 821.48 21.6944 831.312 26.3564C841.145 31.0186 849.23 36.5137 855.562 42.8408C861.895 49.1681 865.062 56.1613 865.062 63.8203C865.062 72.4784 861.895 79.9709 855.562 86.2979L686.062 256.132L768.562 338.552L938.562 169.217C944.895 162.89 952.396 159.726 961.062 159.726C969.062 159.726 976.146 162.89 982.312 169.217C988.479 175.544 993.896 183.703 998.562 193.692C1003.23 203.682 1007.23 214.756 1010.56 226.911C1013.89 239.066 1016.56 251.054 1018.56 262.876C1020.56 274.697 1022.06 285.686 1023.06 295.843C1024.06 306.001 1024.56 314.076 1024.56 320.07C1024.56 364.36 1016.23 405.903 999.562 444.698C982.896 483.493 960.062 517.377 931.062 546.349C902.062 575.321 868.146 598.131 829.312 614.782C790.48 631.433 748.895 639.758 704.562 639.758C692.229 639.758 679.979 638.842 667.812 637.01C655.646 635.179 643.562 632.931 631.562 630.267L287.562 974.431C280.562 981.424 272.729 987.918 264.062 993.912C255.396 999.906 246.145 1005.15 236.312 1009.64C226.479 1014.14 216.479 1017.64 206.312 1020.13C196.146 1022.63 186.062 1023.88 176.062 1023.88C151.729 1023.88 128.896 1019.8 107.562 1011.64C86.2292 1003.48 67.6458 991.997 51.8125 977.178C35.9792 962.36 23.4792 944.626 14.3125 923.979C5.14593 903.333 0.562507 880.522 0.5625 855.547C0.5625 832.902 4.81262 811.423 13.3125 791.11C21.8125 770.797 34.0626 752.647 50.0625 736.663L394.062 392.999C391.396 381.343 389.145 369.439 387.312 357.283C385.48 345.128 384.563 332.89 384.562 320.569C384.562 290.931 388.396 262.459 396.062 235.153C403.729 207.846 414.479 182.371 428.312 158.727C442.145 135.083 458.73 113.521 478.062 94.04C497.395 74.5592 518.896 57.9087 542.562 44.0889C566.229 30.2691 591.73 19.5303 619.062 11.8711C646.396 4.21192 674.896 0.381836 704.562 0.381836ZM168.562 959.445V959.444V959.445ZM91.0059 924.167V924.166V924.167ZM80.5059 910.234C80.9512 910.939 81.4043 911.637 81.8652 912.33C81.4043 911.637 80.9512 910.939 80.5059 910.234ZM705.062 575.819V575.82V575.819ZM668.062 572.573V572.572V572.573ZM905.146 478.995V478.996V478.995ZM618.062 233.653V233.654V233.653Z" fill="#005FB8"/>
</g>
<defs>
<clipPath id="clip0_13_66">
<rect width="1024" height="1024" fill="white" transform="translate(0.5625 0.381836)"/>
</clipPath>
</defs>
</svg>
