<svg width="1024" height="1024" viewBox="0 0 1024 1024" fill="none" xmlns="http://www.w3.org/2000/svg">
<path d="M432 0C438 0 443.5 0.75 448.5 2.25C453.5 3.75 458.667 5.83337 464 8.5C483.667 19.1667 501.417 32.5834 517.25 48.75C533.083 64.9167 546.5 82.7501 557.5 102.25C568.5 121.75 577 142.5 583 164.5C589 186.5 592 208.5 592 230.5C592 269.5 583.583 306.417 566.75 341.25C549.917 376.083 526.333 405.667 496 430V867.5C496 889.167 491.667 909.5 483 928.5C474.333 947.5 462.667 964.083 448 978.25C433.333 992.417 416.333 1003.58 397 1011.75C377.667 1019.92 357.333 1024 336 1024C313.667 1024 292.833 1019.83 273.5 1011.5C254.167 1003.17 237.25 991.75 222.75 977.25C208.25 962.75 196.833 945.833 188.5 926.5C180.167 907.167 176 886.333 176 864V430C145.667 405.667 122.083 376.083 105.25 341.25C88.4167 306.417 80 269.5 80 230.5C80 208.167 82.9167 186.083 88.75 164.25C94.5833 142.417 103 121.75 114 102.25C125 82.7501 138.417 64.9167 154.25 48.75C170.083 32.5834 188 19.1667 208 8.5C213.333 5.83337 218.5 3.75 223.5 2.25C228.5 0.75 234 0 240 0C249 0 257.333 1.66669 265 5C272.667 8.33337 279.417 12.9167 285.25 18.75C291.083 24.5834 295.667 31.3334 299 39C302.333 46.6667 304 55.0001 304 64V198.5H368V64C368 55.0001 369.667 46.6667 373 39C376.333 31.3334 380.917 24.5834 386.75 18.75C392.583 12.9167 399.333 8.33337 407 5C414.667 1.66669 423 0 432 0ZM944 867.5C944 889.167 939.667 909.5 931 928.5C922.333 947.5 910.667 964.083 896 978.25C881.333 992.417 864.333 1003.58 845 1011.75C825.667 1019.92 805.333 1024 784 1024C762.667 1024 742.333 1019.92 723 1011.75C703.667 1003.58 686.667 992.417 672 978.25C657.333 964.083 645.667 947.5 637 928.5C628.333 909.5 624 889.167 624 867.5V640H944V867.5ZM897 512C902.667 512 908.25 512.333 913.75 513C919.25 513.667 924.25 515.083 928.75 517.25C933.25 519.417 936.917 522.583 939.75 526.75C942.583 530.917 944 536.667 944 544V576H624V544C624 536.667 625.417 530.917 628.25 526.75C631.083 522.583 634.75 519.417 639.25 517.25C643.75 515.083 648.75 513.667 654.25 513C659.75 512.333 665.333 512 671 512H897ZM848 0C855 0 861.25 2 866.75 6C872.25 10 876.167 15.3334 878.5 22C879.833 26.6667 882.417 34.0834 886.25 44.25C890.083 54.4167 893.833 65.0834 897.5 76.25C901.167 87.4167 904.5 97.9167 907.5 107.75C910.5 117.583 912 124.333 912 128C912 132 910.667 137.25 908 143.75C905.333 150.25 902.25 157 898.75 164C895.25 171 891.75 177.75 888.25 184.25C884.75 190.75 882 195.833 880 199.5V448H688V199.5C686 195.833 683.25 190.75 679.75 184.25C676.25 177.75 672.75 171 669.25 164C665.75 157 662.667 150.25 660 143.75C657.333 137.25 656 132 656 128C656 124.333 657.5 117.583 660.5 107.75C663.5 97.9167 666.833 87.4167 670.5 76.25C674.167 65.0834 677.833 54.4167 681.5 44.25C685.167 34.0834 687.833 26.6667 689.5 22C691.5 15.6667 695.417 10.4167 701.25 6.25C707.083 2.08337 713.333 0 720 0H848Z" fill="#60CDFF"/>
</svg>
