<svg width="1025" height="1025" viewBox="0 0 1025 1025" fill="none" xmlns="http://www.w3.org/2000/svg">
<g clip-path="url(#clip0_17_15)">
<path d="M432.379 0.826172C438.379 0.826172 443.879 1.57617 448.879 3.07617C453.879 4.57617 459.046 6.65954 464.379 9.32617C484.046 19.9929 501.796 33.4096 517.629 49.5762C533.462 65.7429 546.879 83.5763 557.879 103.076C568.879 122.576 577.379 143.326 583.379 165.326C589.379 187.326 592.379 209.326 592.379 231.326C592.379 270.326 583.962 307.243 567.129 342.076C550.296 376.909 526.712 406.493 496.379 430.826V868.326C496.379 889.993 492.046 910.326 483.379 929.326C474.712 948.326 463.046 964.909 448.379 979.076C433.712 993.243 416.712 1004.41 397.379 1012.58C378.046 1020.75 357.712 1024.83 336.379 1024.83C314.046 1024.83 293.212 1020.66 273.879 1012.33C254.546 1004 237.629 992.576 223.129 978.076C208.629 963.576 197.212 946.659 188.879 927.326C180.546 907.993 176.379 887.159 176.379 864.826V430.826C146.046 406.493 122.462 376.909 105.629 342.076C88.7956 307.243 80.3789 270.326 80.3789 231.326C80.3789 208.993 83.2956 186.909 89.1289 165.076C94.9622 143.243 103.379 122.576 114.379 103.076C125.379 83.5763 138.796 65.7429 154.629 49.5762C170.462 33.4096 188.379 19.9929 208.379 9.32617C213.712 6.65954 218.879 4.57617 223.879 3.07617C228.879 1.57617 234.379 0.826172 240.379 0.826172C249.379 0.826172 257.712 2.49286 265.379 5.82617C273.046 9.15954 279.796 13.7429 285.629 19.5762C291.462 25.4096 296.046 32.1596 299.379 39.8262C302.712 47.4929 304.379 55.8263 304.379 64.8262V199.326H368.379V64.8262C368.379 55.8263 370.046 47.4929 373.379 39.8262C376.712 32.1596 381.296 25.4096 387.129 19.5762C392.962 13.7429 399.712 9.15954 407.379 5.82617C415.046 2.49286 423.379 0.826172 432.379 0.826172ZM944.379 868.326C944.379 889.993 940.046 910.326 931.379 929.326C922.712 948.326 911.046 964.909 896.379 979.076C881.712 993.243 864.712 1004.41 845.379 1012.58C826.046 1020.75 805.712 1024.83 784.379 1024.83C763.046 1024.83 742.712 1020.75 723.379 1012.58C704.046 1004.41 687.046 993.243 672.379 979.076C657.712 964.909 646.046 948.326 637.379 929.326C628.712 910.326 624.379 889.993 624.379 868.326V640.826H944.379V868.326ZM897.379 512.826C903.046 512.826 908.629 513.159 914.129 513.826C919.629 514.493 924.629 515.909 929.129 518.076C933.629 520.243 937.296 523.409 940.129 527.576C942.962 531.743 944.379 537.493 944.379 544.826V576.826H624.379V544.826C624.379 537.493 625.796 531.743 628.629 527.576C631.462 523.409 635.129 520.243 639.629 518.076C644.129 515.909 649.129 514.493 654.629 513.826C660.129 513.159 665.712 512.826 671.379 512.826H897.379ZM848.379 0.826172C855.379 0.826172 861.629 2.82617 867.129 6.82617C872.629 10.8262 876.546 16.1596 878.879 22.8262C880.212 27.4929 882.796 34.9096 886.629 45.0762C890.462 55.2429 894.212 65.9096 897.879 77.0762C901.546 88.2429 904.879 98.7429 907.879 108.576C910.879 118.409 912.379 125.159 912.379 128.826C912.379 132.826 911.046 138.076 908.379 144.576C905.712 151.076 902.629 157.826 899.129 164.826C895.629 171.826 892.129 178.576 888.629 185.076C885.129 191.576 882.379 196.659 880.379 200.326V448.826H688.379V200.326C686.379 196.659 683.629 191.576 680.129 185.076C676.629 178.576 673.129 171.826 669.629 164.826C666.129 157.826 663.046 151.076 660.379 144.576C657.712 138.076 656.379 132.826 656.379 128.826C656.379 125.159 657.879 118.409 660.879 108.576C663.879 98.7429 667.212 88.2429 670.879 77.0762C674.546 65.9096 678.212 55.2429 681.879 45.0762C685.546 34.9096 688.212 27.4929 689.879 22.8262C691.879 16.4929 695.796 11.2429 701.629 7.07617C707.462 2.90954 713.712 0.826172 720.379 0.826172H848.379Z" fill="#005FB8"/>
</g>
<defs>
<clipPath id="clip0_17_15">
<rect width="1024" height="1024" fill="white" transform="translate(0.378906 0.826172)"/>
</clipPath>
</defs>
</svg>
