<svg width="1024" height="1024" viewBox="0 0 1024 1024" fill="none" xmlns="http://www.w3.org/2000/svg">
<g clip-path="url(#clip0_32_169)">
<path fill-rule="evenodd" clip-rule="evenodd" d="M992 160C992 167.333 990.583 173.167 987.75 177.5C984.917 181.833 981.167 185.083 976.5 187.25C971.833 189.417 966.667 190.833 961 191.5C955.333 192.167 949.5 192.5 943.5 192.5C940.167 192.5 936.833 192.417 933.5 192.25C930.167 192.083 927.167 192 924.5 192L841.5 910.5C839.5 926.5 834.833 941.417 827.5 955.25C820.167 969.083 810.833 981.083 799.5 991.25C788.167 1001.42 775.167 1009.42 760.5 1015.25C745.833 1021.08 730.5 1024 714.5 1024H309.5C293.5 1024 278.167 1021.08 263.5 1015.25C248.833 1009.42 235.833 1001.42 224.5 991.25C213.167 981.083 203.833 969.083 196.5 955.25C189.167 941.417 184.5 926.5 182.5 910.5L99.5 192H94.5L84.5 192.5H79.5C73.8333 192.5 68.1667 192.167 62.5 191.5C56.8333 190.833 51.75 189.333 47.25 187C42.75 184.667 39.0833 181.333 36.25 177C33.4167 172.667 32 167 32 160C32 151.333 35.1667 143.833 41.5 137.5C47.8333 131.167 55.3333 128 64 128H355C358.333 109.667 364.917 92.6667 374.75 77C384.583 61.3334 396.583 47.7501 410.75 36.25C424.917 24.7501 440.667 15.8334 458 9.5C475.333 3.16669 493.333 0 512 0C530.667 0 548.667 3.16669 566 9.5C583.333 15.8334 599.083 24.7501 613.25 36.25C627.417 47.7501 639.417 61.3334 649.25 77C659.083 92.6667 665.667 109.667 669 128H960C968.667 128 976.167 131.167 982.5 137.5C988.833 143.833 992 151.333 992 160ZM602.5 128C599.167 118.333 594.5 109.583 588.5 101.75C582.5 93.9167 575.5 87.1667 567.5 81.5C559.5 75.8334 550.833 71.5001 541.5 68.5C532.167 65.5001 522.333 64.0001 512 64C501.667 64.0001 491.833 65.5001 482.5 68.5C473.167 71.5001 464.5 75.8334 456.5 81.5C448.5 87.1667 441.5 93.9167 435.5 101.75C429.5 109.583 424.833 118.333 421.5 128H602.5ZM164 192L246 903.5C248 920.167 254.917 933.75 266.75 944.25C278.583 954.75 292.833 960 309.5 960H714.5C722.5 960 730.167 958.583 737.5 955.75C744.833 952.917 751.333 949 757 944C762.667 939 767.333 933 771 926C774.667 919 777 911.5 778 903.5L860 192H164Z" fill="#005FB8"/>
<path fill-rule="evenodd" clip-rule="evenodd" d="M860 192H164L246 903.5C248 920.167 254.917 933.75 266.75 944.25C278.583 954.75 292.833 960 309.5 960H714.5C722.5 960 730.167 958.583 737.5 955.75C744.833 952.917 751.333 949 757 944C762.667 939 767.333 933 771 926C774.667 919 777 911.5 778 903.5L860 192ZM384 416V736C384 744.667 387.167 752.167 393.5 758.5C399.833 764.833 407.333 768 416 768C424.667 768 432.167 764.833 438.5 758.5C444.833 752.167 448 744.667 448 736V416C448 407.333 444.833 399.833 438.5 393.5C432.167 387.167 424.667 384 416 384C407.333 384 399.833 387.167 393.5 393.5C387.167 399.833 384 407.333 384 416ZM576 416V736C576 744.667 579.167 752.167 585.5 758.5C591.833 764.833 599.333 768 608 768C616.667 768 624.167 764.833 630.5 758.5C636.833 752.167 640 744.667 640 736V416C640 407.333 636.833 399.833 630.5 393.5C624.167 387.167 616.667 384 608 384C599.333 384 591.833 387.167 585.5 393.5C579.167 399.833 576 407.333 576 416Z" fill="#005FB8"/>
</g>
<defs>
<clipPath id="clip0_32_169">
<rect width="1024" height="1024" fill="white"/>
</clipPath>
</defs>
</svg>
