<svg width="1024" height="1024" viewBox="0 0 1024 1024" fill="none" xmlns="http://www.w3.org/2000/svg">
<path fill-rule="evenodd" clip-rule="evenodd" d="M770.5 896C787.167 896 803.083 892.583 818.25 885.75C833.417 878.917 846.75 869.75 858.25 858.25C869.75 846.75 878.917 833.417 885.75 818.25C892.583 803.083 896 787.167 896 770.5V253.5C896 236.833 892.583 220.917 885.75 205.75C878.917 190.583 869.75 177.25 858.25 165.75C846.75 154.25 833.417 145.083 818.25 138.25C803.083 131.417 787.167 128 770.5 128H253.5C236.833 128 220.917 131.417 205.75 138.25C190.583 145.083 177.25 154.25 165.75 165.75C154.25 177.25 145.083 190.583 138.25 205.75C131.417 220.917 128 236.833 128 253.5V770.5C128 787.167 131.417 803.083 138.25 818.25C145.083 833.417 154.25 846.75 165.75 858.25C177.25 869.75 190.583 878.917 205.75 885.75C220.917 892.583 236.833 896 253.5 896H770.5ZM192 224V288C192 296.667 195.167 304.167 201.5 310.5C207.833 316.833 215.333 320 224 320C232.667 320 240.167 316.833 246.5 310.5C252.833 304.167 256 296.667 256 288V224C256 215.333 252.833 207.833 246.5 201.5C240.167 195.167 232.667 192 224 192C215.333 192 207.833 195.167 201.5 201.5C195.167 207.833 192 215.333 192 224ZM768 224V288C768 296.667 771.167 304.167 777.5 310.5C783.833 316.833 791.333 320 800 320C808.667 320 816.167 316.833 822.5 310.5C828.833 304.167 832 296.667 832 288V224C832 215.333 828.833 207.833 822.5 201.5C816.167 195.167 808.667 192 800 192C791.333 192 783.833 195.167 777.5 201.5C771.167 207.833 768 215.333 768 224ZM192 480V544C192 552.667 195.167 560.167 201.5 566.5C207.833 572.833 215.333 576 224 576C232.667 576 240.167 572.833 246.5 566.5C252.833 560.167 256 552.667 256 544V480C256 471.333 252.833 463.833 246.5 457.5C240.167 451.167 232.667 448 224 448C215.333 448 207.833 451.167 201.5 457.5C195.167 463.833 192 471.333 192 480ZM768 480V544C768 552.667 771.167 560.167 777.5 566.5C783.833 572.833 791.333 576 800 576C808.667 576 816.167 572.833 822.5 566.5C828.833 560.167 832 552.667 832 544V480C832 471.333 828.833 463.833 822.5 457.5C816.167 451.167 808.667 448 800 448C791.333 448 783.833 451.167 777.5 457.5C771.167 463.833 768 471.333 768 480ZM192 736V800C192 808.667 195.167 816.167 201.5 822.5C207.833 828.833 215.333 832 224 832C232.667 832 240.167 828.833 246.5 822.5C252.833 816.167 256 808.667 256 800V736C256 727.333 252.833 719.833 246.5 713.5C240.167 707.167 232.667 704 224 704C215.333 704 207.833 707.167 201.5 713.5C195.167 719.833 192 727.333 192 736ZM768 736V800C768 808.667 771.167 816.167 777.5 822.5C783.833 828.833 791.333 832 800 832C808.667 832 816.167 828.833 822.5 822.5C828.833 816.167 832 808.667 832 800V736C832 727.333 828.833 719.833 822.5 713.5C816.167 707.167 808.667 704 800 704C791.333 704 783.833 707.167 777.5 713.5C771.167 719.833 768 727.333 768 736Z" fill="#60CDFF"/>
<path fill-rule="evenodd" clip-rule="evenodd" d="M252 960C227 960 203.083 954.917 180.25 944.75C157.417 934.583 137.417 920.917 120.25 903.75C103.083 886.583 89.4167 866.583 79.25 843.75C69.0833 820.917 64 797 64 772V252C64 227 69.0833 203.083 79.25 180.25C89.4167 157.417 103.083 137.417 120.25 120.25C137.417 103.083 157.417 89.4167 180.25 79.25C203.083 69.0834 227 64.0001 252 64H772C797 64.0001 820.917 69.0834 843.75 79.25C866.583 89.4167 886.583 103.083 903.75 120.25C920.917 137.417 934.583 157.417 944.75 180.25C954.917 203.083 960 227 960 252V772C960 797 954.917 820.917 944.75 843.75C934.583 866.583 920.917 886.583 903.75 903.75C886.583 920.917 866.583 934.583 843.75 944.75C820.917 954.917 797 960 772 960H252ZM770.5 896C787.167 896 803.083 892.583 818.25 885.75C833.417 878.917 846.75 869.75 858.25 858.25C869.75 846.75 878.917 833.417 885.75 818.25C892.583 803.083 896 787.167 896 770.5V253.5C896 236.833 892.583 220.917 885.75 205.75C878.917 190.583 869.75 177.25 858.25 165.75C846.75 154.25 833.417 145.083 818.25 138.25C803.083 131.417 787.167 128 770.5 128H253.5C236.833 128 220.917 131.417 205.75 138.25C190.583 145.083 177.25 154.25 165.75 165.75C154.25 177.25 145.083 190.583 138.25 205.75C131.417 220.917 128 236.833 128 253.5V770.5C128 787.167 131.417 803.083 138.25 818.25C145.083 833.417 154.25 846.75 165.75 858.25C177.25 869.75 190.583 878.917 205.75 885.75C220.917 892.583 236.833 896 253.5 896H770.5Z" fill="#60CDFF"/>
</svg>
