<svg xmlns="http://www.w3.org/2000/svg" width="1025" height="1025" fill="none" viewBox="0 0 1025 1025">
  <path fill="#60CDFF" d="M772.5 64.5c25 0 48.917 5.083 71.75 15.25s42.833 23.833 60 41 30.833 37.167 41 60c10.167 22.833 15.25 46.75 15.25 71.75v520c0 25-5.083 48.917-15.25 71.75s-23.833 42.833-41 60-37.167 30.833-60 41c-22.833 10.167-46.75 15.25-71.75 15.25h-520c-25 0-48.917-5.083-71.75-15.25s-42.833-23.833-60-41-30.833-37.167-41-60C69.583 821.417 64.5 797.5 64.5 772.5v-520c0-25 5.083-48.917 15.25-71.75s23.833-42.833 41-60 37.167-30.833 60-41C203.583 69.583 227.5 64.5 252.5 64.5h520Zm-548 640c-8.667 0-16.167 3.167-22.5 9.5-6.333 6.333-9.5 13.833-9.5 22.5v64c0 8.667 3.167 16.167 9.5 22.5 6.333 6.333 13.833 9.5 22.5 9.5s16.167-3.167 22.5-9.5c6.333-6.333 9.5-13.833 9.5-22.5v-64c0-8.667-3.167-16.167-9.5-22.5-6.333-6.333-13.833-9.5-22.5-9.5Zm576 0c-8.667 0-16.167 3.167-22.5 9.5-6.333 6.333-9.5 13.833-9.5 22.5v64c0 8.667 3.167 16.167 9.5 22.5 6.333 6.333 13.833 9.5 22.5 9.5s16.167-3.167 22.5-9.5c6.333-6.333 9.5-13.833 9.5-22.5v-64c0-8.667-3.167-16.167-9.5-22.5-6.333-6.333-13.833-9.5-22.5-9.5Zm-576-256c-8.667 0-16.167 3.167-22.5 9.5-6.333 6.333-9.5 13.833-9.5 22.5v64c0 8.667 3.167 16.167 9.5 22.5 6.333 6.333 13.833 9.5 22.5 9.5s16.167-3.167 22.5-9.5c6.333-6.333 9.5-13.833 9.5-22.5v-64c0-8.667-3.167-16.167-9.5-22.5-6.333-6.333-13.833-9.5-22.5-9.5Zm576 0c-8.667 0-16.167 3.167-22.5 9.5-6.333 6.333-9.5 13.833-9.5 22.5v64c0 8.667 3.167 16.167 9.5 22.5 6.333 6.333 13.833 9.5 22.5 9.5s16.167-3.167 22.5-9.5c6.333-6.333 9.5-13.833 9.5-22.5v-64c0-8.667-3.167-16.167-9.5-22.5-6.333-6.333-13.833-9.5-22.5-9.5Zm-576-256c-8.667 0-16.167 3.167-22.5 9.5-6.333 6.333-9.5 13.833-9.5 22.5v64c0 8.667 3.167 16.167 9.5 22.5 6.333 6.333 13.833 9.5 22.5 9.5s16.167-3.167 22.5-9.5c6.333-6.333 9.5-13.833 9.5-22.5v-64c0-8.667-3.167-16.167-9.5-22.5-6.333-6.333-13.833-9.5-22.5-9.5Zm576 0c-8.667 0-16.167 3.167-22.5 9.5-6.333 6.333-9.5 13.833-9.5 22.5v64c0 8.667 3.167 16.167 9.5 22.5 6.333 6.333 13.833 9.5 22.5 9.5s16.167-3.167 22.5-9.5c6.333-6.333 9.5-13.833 9.5-22.5v-64c0-8.667-3.167-16.167-9.5-22.5-6.333-6.333-13.833-9.5-22.5-9.5Z"/>
</svg>
